<?xml version="1.0" encoding="UTF-8" standalone="no"?>
<!-- Created with Inkscape (http://www.inkscape.org/) -->

<svg
   width="43.169289mm"
   height="49.951874mm"
   viewBox="0 0 43.169289 49.951874"
   version="1.1"
   id="svg5"
   inkscape:version="1.4 (1:1.4+202410161351+e7c3feb100)"
   sodipodi:docname="logo.svg"
   xmlns:inkscape="http://www.inkscape.org/namespaces/inkscape"
   xmlns:sodipodi="http://sodipodi.sourceforge.net/DTD/sodipodi-0.dtd"
   xmlns="http://www.w3.org/2000/svg"
   xmlns:svg="http://www.w3.org/2000/svg">
  <sodipodi:namedview
     id="namedview7"
     pagecolor="#ffffff"
     bordercolor="#000000"
     borderopacity="0.25"
     inkscape:pageshadow="2"
     inkscape:pageopacity="0.0"
     inkscape:pagecheckerboard="0"
     inkscape:document-units="mm"
     showgrid="false"
     inkscape:zoom="3.2814072"
     inkscape:cx="81.824651"
     inkscape:cy="64.606429"
     inkscape:window-width="1680"
     inkscape:window-height="981"
     inkscape:window-x="1920"
     inkscape:window-y="32"
     inkscape:window-maximized="1"
     inkscape:current-layer="g1"
     showguides="true"
     inkscape:guide-bbox="true"
     fit-margin-top="0"
     fit-margin-left="0"
     fit-margin-right="0"
     fit-margin-bottom="0"
     inkscape:showpageshadow="2"
     inkscape:deskcolor="#d1d1d1">
    <sodipodi:guide
       position="10.107056,30.214844"
       orientation="1,0"
       id="guide18"
       inkscape:locked="false" />
  </sodipodi:namedview>
  <defs
     id="defs2">
    <inkscape:perspective
       sodipodi:type="inkscape:persp3d"
       inkscape:vp_x="0 : 635.08828 : 1"
       inkscape:vp_y="0 : 1000 : 0"
       inkscape:vp_z="1500.0001 : 635.08828 : 1"
       inkscape:persp3d-origin="750.00003 : 341.04281 : 1"
       id="perspective4362" />
    <clipPath
       id="clp12">
      <path
         d="m 45.315,71.927 h 12.92 v 15.867 h -12.92 z"
         id="path184"
         inkscape:connector-curvature="0" />
    </clipPath>
    <clipPath
       id="clp21">
      <path
         d="m 123.91,72.178 h 26.23 v 15.294 h -26.23 z"
         id="path592"
         inkscape:connector-curvature="0" />
    </clipPath>
    <clipPath
       id="clp9">
      <path
         d="m 413.96,49.857 h 31.76 v 8.719 h -31.76 z"
         id="path100"
         inkscape:connector-curvature="0" />
    </clipPath>
    <inkscape:perspective
       sodipodi:type="inkscape:persp3d"
       inkscape:vp_x="0 : 388.91986 : 1"
       inkscape:vp_y="0 : 999.99996 : 0"
       inkscape:vp_z="1500.0001 : 388.91986 : 1"
       inkscape:persp3d-origin="750.00001 : 94.874402 : 1"
       id="perspective4362-535" />
    <clipPath
       id="clp12-6">
      <path
         d="m 45.315,71.927 h 12.92 v 15.867 h -12.92 z"
         id="path184-2"
         inkscape:connector-curvature="0" />
    </clipPath>
    <clipPath
       id="clp21-9">
      <path
         d="m 123.91,72.178 h 26.23 v 15.294 h -26.23 z"
         id="path592-12"
         inkscape:connector-curvature="0" />
    </clipPath>
    <clipPath
       id="clp9-7">
      <path
         d="m 413.96,49.857 h 31.76 v 8.719 h -31.76 z"
         id="path100-0"
         inkscape:connector-curvature="0" />
    </clipPath>
    <inkscape:perspective
       sodipodi:type="inkscape:persp3d"
       inkscape:vp_x="0 : 388.91986 : 1"
       inkscape:vp_y="0 : 999.99996 : 0"
       inkscape:vp_z="1500.0001 : 388.91986 : 1"
       inkscape:persp3d-origin="750.00001 : 94.874402 : 1"
       id="perspective4362-5" />
    <clipPath
       id="clp12-3">
      <path
         d="m 45.315,71.927 h 12.92 v 15.867 h -12.92 z"
         id="path184-5"
         inkscape:connector-curvature="0" />
    </clipPath>
    <clipPath
       id="clp21-6">
      <path
         d="m 123.91,72.178 h 26.23 v 15.294 h -26.23 z"
         id="path592-2"
         inkscape:connector-curvature="0" />
    </clipPath>
    <clipPath
       id="clp9-9">
      <path
         d="m 413.96,49.857 h 31.76 v 8.719 h -31.76 z"
         id="path100-1"
         inkscape:connector-curvature="0" />
    </clipPath>
    <inkscape:perspective
       sodipodi:type="inkscape:persp3d"
       inkscape:vp_x="0 : 635.08828 : 1"
       inkscape:vp_y="0 : 1000 : 0"
       inkscape:vp_z="1500.0001 : 635.08828 : 1"
       inkscape:persp3d-origin="750.00003 : 341.04281 : 1"
       id="perspective4362-9" />
    <clipPath
       id="clp12-37">
      <path
         d="m 45.315,71.927 h 12.92 v 15.867 h -12.92 z"
         id="path184-4"
         inkscape:connector-curvature="0" />
    </clipPath>
    <clipPath
       id="clp21-5">
      <path
         d="m 123.91,72.178 h 26.23 v 15.294 h -26.23 z"
         id="path592-25"
         inkscape:connector-curvature="0" />
    </clipPath>
    <clipPath
       id="clp9-4">
      <path
         d="m 413.96,49.857 h 31.76 v 8.719 h -31.76 z"
         id="path100-7"
         inkscape:connector-curvature="0" />
    </clipPath>
    <inkscape:perspective
       sodipodi:type="inkscape:persp3d"
       inkscape:vp_x="0 : 635.08828 : 1"
       inkscape:vp_y="0 : 1000 : 0"
       inkscape:vp_z="1500.0001 : 635.08828 : 1"
       inkscape:persp3d-origin="750.00003 : 341.04281 : 1"
       id="perspective4362-6" />
    <clipPath
       id="clp12-8">
      <path
         d="m 45.315,71.927 h 12.92 v 15.867 h -12.92 z"
         id="path184-9"
         inkscape:connector-curvature="0" />
    </clipPath>
    <clipPath
       id="clp21-2">
      <path
         d="m 123.91,72.178 h 26.23 v 15.294 h -26.23 z"
         id="path592-6"
         inkscape:connector-curvature="0" />
    </clipPath>
    <clipPath
       id="clp9-6">
      <path
         d="m 413.96,49.857 h 31.76 v 8.719 h -31.76 z"
         id="path100-4"
         inkscape:connector-curvature="0" />
    </clipPath>
    <inkscape:perspective
       sodipodi:type="inkscape:persp3d"
       inkscape:vp_x="0 : 635.08828 : 1"
       inkscape:vp_y="0 : 1000 : 0"
       inkscape:vp_z="1500.0001 : 635.08828 : 1"
       inkscape:persp3d-origin="750.00003 : 341.04281 : 1"
       id="perspective4362-53" />
    <clipPath
       id="clp12-5">
      <path
         d="m 45.315,71.927 h 12.92 v 15.867 h -12.92 z"
         id="path184-6"
         inkscape:connector-curvature="0" />
    </clipPath>
    <clipPath
       id="clp21-29">
      <path
         d="m 123.91,72.178 h 26.23 v 15.294 h -26.23 z"
         id="path592-1"
         inkscape:connector-curvature="0" />
    </clipPath>
    <clipPath
       id="clp9-2">
      <path
         d="m 413.96,49.857 h 31.76 v 8.719 h -31.76 z"
         id="path100-70"
         inkscape:connector-curvature="0" />
    </clipPath>
    <clipPath
       clipPathUnits="userSpaceOnUse"
       id="clipPath7">
      <path
         d="m 4269.8013,3683.3309 h 1147.8999 v 971.0208 H 4269.8013 Z"
         id="path7"
         style="stroke-width:1" />
    </clipPath>
    <clipPath
       clipPathUnits="userSpaceOnUse"
       id="clipPath6">
      <path
         d="M 4470.8312,4481.7918 H 4605.37 v 78.0115 h -134.5388 z"
         id="path6"
         style="stroke-width:1" />
    </clipPath>
    <clipPath
       clipPathUnits="userSpaceOnUse"
       id="clipPath3">
      <path
         d="m 4741.7216,4511.2015 h 112.5895 v 65.3909 h -112.5895 z"
         id="path3"
         style="stroke-width:1" />
    </clipPath>
    <clipPath
       clipPathUnits="userSpaceOnUse"
       id="clipPath8">
      <path
         d="m 5003.011,4464.492 h 106.2583 v 61.7067 H 5003.011 Z"
         id="path8"
         style="stroke-width:1" />
    </clipPath>
    <clipPath
       clipPathUnits="userSpaceOnUse"
       id="clipPath2">
      <path
         d="m 4641.1913,4337.7815 h 112.6288 v 65.3089 h -112.6288 z"
         id="path2"
         style="stroke-width:1" />
    </clipPath>
    <clipPath
       clipPathUnits="userSpaceOnUse"
       id="clipPath11">
      <path
         d="m 4831.9313,4184.5413 h 95.2423 v 65.6607 h -95.2423 z"
         id="path11"
         style="stroke-width:1" />
    </clipPath>
    <clipPath
       clipPathUnits="userSpaceOnUse"
       id="clipPath4">
      <path
         d="m 4538.1014,4190.2212 h 95.2303 v 65.6607 h -95.2303 z"
         id="path4"
         style="stroke-width:1" />
    </clipPath>
    <clipPath
       clipPathUnits="userSpaceOnUse"
       id="clipPath5">
      <path
         d="m 5164.2513,4213.9711 h 95.2302 v 65.6607 h -95.2302 z"
         id="path5"
         style="stroke-width:1" />
    </clipPath>
    <clipPath
       clipPathUnits="userSpaceOnUse"
       id="clipPath10">
      <path
         d="m 4394.9914,4317.7212 h 112.5935 v 65.3908 h -112.5935 z"
         id="path10"
         style="stroke-width:1" />
    </clipPath>
    <clipPath
       clipPathUnits="userSpaceOnUse"
       id="clipPath9">
      <path
         d="m 4921.9716,4322.9216 h 110.633 v 68.6797 h -110.633 z"
         id="path9"
         style="stroke-width:1" />
    </clipPath>
  </defs>
  <g
     inkscape:label="Layer 1"
     inkscape:groupmode="layer"
     id="layer1"
     transform="translate(133.93872,576.10609)">
    <text
       xml:space="preserve"
       style="font-size:4.23333px;font-family:sans-serif;-inkscape-font-specification:sans-serif;fill:#fdf0e3;fill-opacity:1;stroke:#4a280d;stroke-width:15;stroke-linecap:round;stroke-linejoin:round;stroke-miterlimit:4;stroke-dasharray:none"
       x="-105.7908"
       y="-558.50726"
       id="text265343"><tspan
         sodipodi:role="line"
         id="tspan265341"
         style="stroke-width:15;stroke-miterlimit:4;stroke-dasharray:none"
         x="-105.7908"
         y="-558.50726" /></text>
    <text
       xml:space="preserve"
       style="font-size:4.23333px;font-family:sans-serif;-inkscape-font-specification:sans-serif;fill:#fdf0e3;fill-opacity:1;stroke:#4a280d;stroke-width:15;stroke-linecap:round;stroke-linejoin:round;stroke-miterlimit:4;stroke-dasharray:none"
       x="-106.25206"
       y="-560.1264"
       id="text268683"><tspan
         sodipodi:role="line"
         id="tspan268681"
         style="stroke-width:15"
         x="-106.25206"
         y="-560.1264" /></text>
    <text
       xml:space="preserve"
       style="font-size:4.23333px;font-family:sans-serif;-inkscape-font-specification:sans-serif;fill:#fdf0e3;fill-opacity:1;stroke:#4a280d;stroke-width:5;stroke-linecap:round;stroke-linejoin:round;stroke-miterlimit:4;stroke-dasharray:none"
       x="-78.450752"
       y="-551.28766"
       id="text270271"><tspan
         sodipodi:role="line"
         id="tspan270269"
         style="stroke-width:5;stroke-miterlimit:4;stroke-dasharray:none"
         x="-78.450752"
         y="-551.28766" /></text>
    <text
       xml:space="preserve"
       style="font-size:4.23333px;font-family:sans-serif;-inkscape-font-specification:sans-serif;fill:#fdf0e3;fill-opacity:1;stroke:#4a280d;stroke-width:4.99999;stroke-linecap:round;stroke-linejoin:round;stroke-miterlimit:4;stroke-dasharray:none"
       x="-75.665482"
       y="-548.79803"
       id="text275393"><tspan
         sodipodi:role="line"
         id="tspan275391"
         style="stroke-width:5"
         x="-75.665482"
         y="-548.79803" /></text>
    <g
       id="g46348">
      <g
         id="g57961"
         transform="rotate(-30,-112.35409,-551.13016)">
        <g
           id="g57911">
          <path
             sodipodi:type="star"
             style="fill:#cccccc;fill-opacity:1;stroke:#000000;stroke-width:21.7043;stroke-miterlimit:4;stroke-dasharray:none;stroke-opacity:1"
             id="path4560"
             sodipodi:sides="6"
             sodipodi:cx="-5551.2134"
             sodipodi:cy="-204.52565"
             sodipodi:r1="1701.6108"
             sodipodi:r2="1473.6381"
             sodipodi:arg1="1.0471976"
             sodipodi:arg2="1.5707963"
             inkscape:flatsided="true"
             inkscape:rounded="0"
             inkscape:randomized="0"
             inkscape:transform-center-x="1.5731476e-05"
             inkscape:transform-center-y="7.9344316e-05"
             transform="matrix(-0.00728526,0.01261844,-0.0125921,-0.00727005,-155.37152,-482.56941)"
             d="m -4700.408,1269.1126 -1701.6109,-10e-5 -850.8053,-1473.63823 850.8055,-1473.63817 1701.6108,10e-5 850.8054,1473.63823 z" />
          <path
             d="m -122.16589,-532.03341 q 0.21802,0 0.34925,0.0656 0.13123,0.0656 0.20109,0.17357 0.0699,0.10795 0.091,0.24554 0.0233,0.13758 0.0233,0.2794 0,0.15451 -0.0402,0.2921 -0.0381,0.13758 -0.12065,0.2413 -0.0804,0.1016 -0.20744,0.16298 -0.127,0.0593 -0.30268,0.0593 -0.1397,0 -0.22437,-0.0212 -0.0825,-0.019 -0.12911,-0.0593 -0.0444,-0.0402 -0.0593,-0.1016 -0.0148,-0.0614 -0.0148,-0.14393 v -0.79587 q 0,-0.091 0.0148,-0.1651 0.0169,-0.0741 0.0635,-0.12488 0.0466,-0.0529 0.13123,-0.0804 0.0868,-0.0275 0.22437,-0.0275 z m 0.008,1.3081 q 0.13123,0 0.2159,-0.0466 0.0868,-0.0487 0.13758,-0.127 0.0508,-0.0783 0.0699,-0.1778 0.0212,-0.0995 0.0212,-0.2032 0,-0.0952 -0.0148,-0.1905 -0.0148,-0.0974 -0.0614,-0.17568 -0.0466,-0.0783 -0.13335,-0.127 -0.0868,-0.0487 -0.23072,-0.0487 -0.13123,0 -0.18203,0.0381 -0.0508,0.0381 -0.0508,0.11641 v 0.81069 q 0,0.0656 0.0466,0.0995 0.0487,0.0317 0.18204,0.0317 z"
             style="font-weight:bold;font-size:2.11667px;font-family:Sniglet;-inkscape-font-specification:'Sniglet Bold';fill:#000000;stroke-width:0.315912;stroke-linecap:round;stroke-linejoin:round"
             id="path79928" />
          <path
             d="m -120.79852,-530.92639 q -0.0741,0 -0.15663,-0.0106 -0.0804,-0.0127 -0.17569,-0.0508 0.0191,0.12912 0.10583,0.19474 0.0889,0.0656 0.25401,0.0656 0.0593,0 0.10583,-0.006 0.0487,-0.008 0.0847,-0.0169 0.036,-0.0106 0.0635,-0.0169 0.0275,-0.008 0.0508,-0.008 0.0296,0 0.0572,0.019 0.0275,0.0169 0.0275,0.0593 0,0.0529 -0.0444,0.0868 -0.0423,0.0339 -0.10583,0.055 -0.0614,0.019 -0.13123,0.0254 -0.0699,0.008 -0.12277,0.008 -0.12488,0 -0.23072,-0.0339 -0.10372,-0.0339 -0.17992,-0.1016 -0.0762,-0.0698 -0.11853,-0.17145 -0.0423,-0.1016 -0.0423,-0.23706 0,-0.13124 0.0402,-0.23284 0.0423,-0.1016 0.1143,-0.17145 0.072,-0.0698 0.16934,-0.10583 0.0995,-0.036 0.21378,-0.036 0.0889,0 0.17145,0.0233 0.0847,0.0233 0.14817,0.0699 0.0656,0.0466 0.10372,0.11853 0.0402,0.0698 0.0402,0.1651 0,0.0847 -0.0318,0.14394 -0.0318,0.0593 -0.091,0.0953 -0.0572,0.036 -0.1397,0.0529 -0.0804,0.0169 -0.17992,0.0169 z m -0.0148,-0.49107 q -0.0572,0 -0.11006,0.0148 -0.0529,0.0127 -0.0974,0.0444 -0.0423,0.0296 -0.072,0.0804 -0.0296,0.0487 -0.0402,0.12277 0.0804,0.036 0.15664,0.0508 0.0762,0.0127 0.16087,0.0127 0.12488,0 0.18415,-0.0296 0.0614,-0.0317 0.0614,-0.11218 0,-0.0741 -0.0572,-0.12912 -0.055,-0.055 -0.18627,-0.055 z"
             style="font-weight:bold;font-size:2.11667px;font-family:Sniglet;-inkscape-font-specification:'Sniglet Bold';fill:#000000;stroke-width:0.315912;stroke-linecap:round;stroke-linejoin:round"
             id="path79930" />
          <path
             d="m -119.78252,-531.64183 q 0.0445,0 0.11218,0.008 0.0677,0.006 0.12912,0.0275 0.0614,0.019 0.10583,0.055 0.0444,0.036 0.0444,0.091 0,0.0317 -0.019,0.055 -0.0169,0.0233 -0.055,0.0233 -0.0275,0 -0.0635,-0.008 -0.0339,-0.008 -0.0762,-0.019 -0.0402,-0.0127 -0.0889,-0.0212 -0.0466,-0.008 -0.0995,-0.008 -0.0889,0 -0.14605,0.0275 -0.055,0.0275 -0.055,0.0868 0,0.0339 0.0191,0.0571 0.0212,0.0233 0.055,0.0423 0.036,0.0169 0.0826,0.0296 0.0487,0.0127 0.1016,0.0254 0.0656,0.0169 0.12911,0.0381 0.0656,0.0212 0.11642,0.0593 0.0508,0.036 0.0825,0.0931 0.0318,0.055 0.0318,0.13758 0,0.15664 -0.11853,0.24977 -0.11854,0.091 -0.34925,0.091 -0.0508,0 -0.12065,-0.008 -0.0699,-0.006 -0.13124,-0.0275 -0.0614,-0.019 -0.10583,-0.055 -0.0423,-0.0381 -0.0423,-0.0995 0,-0.0423 0.019,-0.0635 0.0212,-0.0233 0.0508,-0.0233 0.0233,0 0.0487,0.0148 0.0254,0.0148 0.0614,0.0317 0.036,0.0169 0.0868,0.0317 0.0508,0.0148 0.12488,0.0148 0.0275,0 0.072,-0.002 0.0444,-0.004 0.0868,-0.019 0.0444,-0.0148 0.0741,-0.0402 0.0318,-0.0275 0.0318,-0.0762 0,-0.0381 -0.0212,-0.0635 -0.0212,-0.0275 -0.0572,-0.0466 -0.036,-0.019 -0.0847,-0.0317 -0.0466,-0.0148 -0.0995,-0.0296 -0.0614,-0.0169 -0.12489,-0.0381 -0.0614,-0.0212 -0.11218,-0.055 -0.0508,-0.0339 -0.0825,-0.0847 -0.0318,-0.0529 -0.0318,-0.12911 0,-0.072 0.0296,-0.13335 0.0296,-0.0635 0.0847,-0.11007 0.055,-0.0466 0.13123,-0.072 0.0783,-0.0254 0.17357,-0.0254 z"
             style="font-weight:bold;font-size:2.11667px;font-family:Sniglet;-inkscape-font-specification:'Sniglet Bold';fill:#000000;stroke-width:0.315912;stroke-linecap:round;stroke-linejoin:round"
             id="path79932" />
          <path
             d="m -119.16657,-530.66816 q -0.004,-0.0783 -0.008,-0.1778 -0.002,-0.1016 -0.002,-0.22225 0,-0.15028 0.002,-0.25612 0.002,-0.10795 0.0106,-0.17568 0.0106,-0.0698 0.0318,-0.1016 0.0212,-0.0339 0.0593,-0.0339 0.036,0 0.0635,0.0254 0.0275,0.0254 0.0318,0.11007 0.0127,0.22225 0.0127,0.42968 0,0.10584 -0.004,0.19897 -0.004,0.091 -0.008,0.20108 -0.002,0.0508 -0.0106,0.0783 -0.006,0.0275 -0.019,0.0423 -0.0127,0.0148 -0.0296,0.0169 -0.0148,0.004 -0.036,0.004 -0.0381,0 -0.0635,-0.0254 -0.0254,-0.0275 -0.0296,-0.1143 z m 0.0952,-1.35044 q 0.0487,0 0.0889,0.0381 0.0423,0.0381 0.0423,0.091 0,0.0508 -0.0423,0.0889 -0.0423,0.036 -0.0952,0.036 -0.0444,0 -0.0847,-0.036 -0.0381,-0.0381 -0.0381,-0.0931 0,-0.0508 0.0381,-0.0868 0.0402,-0.0381 0.091,-0.0381 z"
             style="font-weight:bold;font-size:2.11667px;font-family:Sniglet;-inkscape-font-specification:'Sniglet Bold';fill:#000000;stroke-width:0.315912;stroke-linecap:round;stroke-linejoin:round"
             id="path79934" />
          <path
             d="m -118.28604,-530.24694 q 0.0995,0 0.16722,-0.0402 0.0699,-0.0381 0.11218,-0.11218 0.0423,-0.072 0.0593,-0.17357 0.0191,-0.10372 0.0191,-0.23283 -0.0191,0.0677 -0.055,0.1143 -0.036,0.0466 -0.0847,0.0762 -0.0466,0.0275 -0.10583,0.0402 -0.0593,0.0127 -0.12277,0.0127 -0.0974,0 -0.18415,-0.0275 -0.0868,-0.0275 -0.1524,-0.0868 -0.0635,-0.0593 -0.1016,-0.15028 -0.0381,-0.0931 -0.0381,-0.22225 0,-0.12488 0.036,-0.2286 0.0381,-0.10583 0.10795,-0.18203 0.072,-0.0762 0.17357,-0.11854 0.1016,-0.0423 0.23283,-0.0423 0.0698,0 0.12277,0.0127 0.055,0.0127 0.0974,0.0339 0.0423,0.0212 0.0741,0.0508 0.0339,0.0296 0.0614,0.0635 0.0804,0.1016 0.11642,0.2413 0.036,0.13758 0.036,0.33231 0,0.14394 -0.0254,0.29422 -0.0233,0.15028 -0.0868,0.27093 -0.0635,0.12277 -0.17568,0.19897 -0.11219,0.0783 -0.28787,0.0783 -0.0317,0 -0.072,-0.004 -0.0381,-0.002 -0.0804,-0.008 -0.0402,-0.006 -0.0804,-0.019 -0.0402,-0.0106 -0.0741,-0.0296 -0.0423,-0.0233 -0.0677,-0.0444 -0.0254,-0.0212 -0.0254,-0.0698 0,-0.0402 0.0169,-0.0741 0.019,-0.0317 0.0635,-0.0317 0.0212,0 0.0466,0.0127 0.0254,0.0127 0.0614,0.0254 0.0381,0.0148 0.0889,0.0275 0.0529,0.0127 0.127,0.0127 z m 0.0106,-0.508 q 0.0826,0 0.1397,-0.0296 0.0593,-0.0317 0.0953,-0.0825 0.0381,-0.0508 0.055,-0.1143 0.0191,-0.0635 0.0191,-0.127 0,-0.0529 -0.0148,-0.10583 -0.0127,-0.055 -0.0444,-0.0995 -0.0318,-0.0444 -0.0868,-0.072 -0.055,-0.0275 -0.13758,-0.0275 -0.1397,0 -0.22649,0.0847 -0.0847,0.0847 -0.0847,0.24977 0,0.15451 0.0762,0.23918 0.0762,0.0847 0.20955,0.0847 z"
             style="font-weight:bold;font-size:2.11667px;font-family:Sniglet;-inkscape-font-specification:'Sniglet Bold';fill:#000000;stroke-width:0.315912;stroke-linecap:round;stroke-linejoin:round"
             id="path79936" />
          <path
             d="m -117.0245,-531.43863 q -0.0783,0 -0.14182,0.0254 -0.0614,0.0254 -0.1397,0.0762 0,0.0444 0,0.13124 0,0.0847 -0.002,0.18626 -0.002,0.0995 -0.004,0.19685 -0.002,0.0974 -0.008,0.16299 -0.004,0.0423 -0.0106,0.0677 -0.004,0.0233 -0.0148,0.036 -0.008,0.0127 -0.0254,0.0169 -0.0148,0.002 -0.0402,0.002 -0.0254,0 -0.0423,-0.002 -0.0148,-0.004 -0.0254,-0.0148 -0.0106,-0.0127 -0.0169,-0.036 -0.006,-0.0233 -0.0106,-0.0635 -0.004,-0.0381 -0.008,-0.1016 -0.002,-0.0635 -0.004,-0.13759 -0.002,-0.0762 -0.004,-0.1524 0,-0.0783 0,-0.14393 0,-0.10795 0.002,-0.17568 0.004,-0.0677 0.0127,-0.12065 0.0127,-0.0889 0.0339,-0.11219 0.0212,-0.0233 0.0572,-0.0233 0.0529,0 0.0783,0.0296 0.0275,0.0296 0.0339,0.0974 0.0783,-0.0677 0.16722,-0.10795 0.091,-0.0402 0.18626,-0.0402 0.091,0 0.1651,0.0423 0.0762,0.0423 0.12489,0.13758 0.0296,0.0571 0.0444,0.127 0.0148,0.0677 0.0212,0.14393 0.002,0.0339 0.004,0.0677 0.002,0.0317 0.002,0.0698 0.002,0.036 0.002,0.0826 0,0.0466 0,0.11006 0,0.0677 -0.002,0.127 -0.002,0.0593 -0.0127,0.10372 -0.008,0.0423 -0.0318,0.0677 -0.0233,0.0233 -0.0635,0.0233 -0.0974,0 -0.1016,-0.0931 0,-0.006 0,-0.0529 0,-0.0487 -0.002,-0.11219 0,-0.0635 -0.002,-0.12911 0,-0.0656 -0.002,-0.10795 -0.002,-0.0339 -0.006,-0.072 -0.002,-0.0402 -0.008,-0.0804 -0.004,-0.0402 -0.0127,-0.0762 -0.008,-0.0381 -0.0212,-0.0677 -0.0296,-0.0698 -0.0741,-0.0889 -0.0444,-0.019 -0.0953,-0.019 z"
             style="font-weight:bold;font-size:2.11667px;font-family:Sniglet;-inkscape-font-specification:'Sniglet Bold';fill:#000000;stroke-width:0.315912;stroke-linecap:round;stroke-linejoin:round"
             id="path79938" />
          <path
             d="m -115.66772,-531.92123 q 0,0.127 -0.008,0.2667 -0.006,0.13759 -0.0169,0.26882 0.0275,-0.0571 0.072,-0.0974 0.0444,-0.0423 0.0974,-0.0677 0.055,-0.0254 0.1143,-0.0381 0.0593,-0.0127 0.1143,-0.0127 0.0953,0 0.1778,0.036 0.0847,0.0339 0.14605,0.1016 0.0635,0.0656 0.0974,0.1651 0.036,0.0974 0.036,0.22437 0,0.12277 -0.036,0.22437 -0.036,0.1016 -0.10795,0.17568 -0.0699,0.072 -0.17568,0.11218 -0.10372,0.0402 -0.23919,0.0402 -0.18415,0 -0.28998,-0.0741 -0.10372,-0.0741 -0.15452,-0.19685 -0.0508,-0.12489 -0.0635,-0.28575 -0.0106,-0.16087 -0.0106,-0.33655 0,-0.1778 0.006,-0.32174 0.006,-0.14393 0.019,-0.23283 0.0127,-0.0804 0.0423,-0.1143 0.0296,-0.0339 0.0783,-0.0339 0.036,0 0.0571,0.0169 0.0212,0.0148 0.0296,0.0423 0.0106,0.0275 0.0127,0.0635 0.002,0.0339 0.002,0.0741 z m 0.31327,0.52917 q -0.0614,0 -0.11854,0.0212 -0.055,0.019 -0.0995,0.0614 -0.0423,0.0423 -0.0677,0.10795 -0.0254,0.0635 -0.0254,0.15452 0,0.16086 0.0783,0.24553 0.0804,0.0825 0.21379,0.0825 0.055,0 0.11218,-0.0148 0.0571,-0.0169 0.10372,-0.055 0.0466,-0.0402 0.0762,-0.10583 0.0296,-0.0656 0.0296,-0.16299 0,-0.0868 -0.0254,-0.15028 -0.0233,-0.0635 -0.0656,-0.10372 -0.0423,-0.0423 -0.0974,-0.0614 -0.055,-0.019 -0.1143,-0.019 z"
             style="font-weight:bold;font-size:2.11667px;font-family:Sniglet;-inkscape-font-specification:'Sniglet Bold';fill:#000000;stroke-width:0.315912;stroke-linecap:round;stroke-linejoin:round"
             id="path79940" />
          <path
             d="m -114.41254,-530.14958 q -0.0275,0.0487 -0.0529,0.072 -0.0233,0.0233 -0.055,0.0233 -0.0296,0 -0.0593,-0.019 -0.0296,-0.019 -0.0296,-0.0529 0,-0.0317 0.0212,-0.091 0.0233,-0.0593 0.055,-0.12912 0.0339,-0.0698 0.0699,-0.14393 0.036,-0.0741 0.0656,-0.13547 l 0.0148,-0.0318 q -0.0635,-0.12488 -0.13123,-0.2667 -0.0656,-0.14181 -0.12065,-0.26881 -0.055,-0.127 -0.091,-0.22014 -0.0339,-0.0952 -0.0339,-0.12488 0,-0.0275 0.0212,-0.0466 0.0233,-0.0212 0.0572,-0.0212 0.0296,0 0.0571,0.0127 0.0275,0.0106 0.0508,0.0508 0.0339,0.0635 0.0699,0.14605 0.0381,0.0804 0.0741,0.16933 0.0381,0.0889 0.0762,0.17992 0.0402,0.091 0.0804,0.17568 0.0466,-0.0868 0.0995,-0.18203 0.0529,-0.0952 0.1016,-0.18415 0.0508,-0.0889 0.0931,-0.16299 0.0423,-0.0762 0.072,-0.127 0.0296,-0.0487 0.0593,-0.0699 0.0296,-0.0212 0.0614,-0.0212 0.0212,0 0.0423,0.0191 0.0212,0.0169 0.0212,0.0466 0,0.0444 -0.0402,0.14394 -0.0381,0.0974 -0.0995,0.22648 -0.0614,0.12912 -0.1397,0.27728 -0.0762,0.14605 -0.1524,0.28787 -0.0762,0.1397 -0.14605,0.26247 -0.0677,0.12276 -0.11218,0.20531 z"
             style="font-weight:bold;font-size:2.11667px;font-family:Sniglet;-inkscape-font-specification:'Sniglet Bold';fill:#000000;stroke-width:0.315912;stroke-linecap:round;stroke-linejoin:round"
             id="path79942" />
          <path
             d="m -111.69474,-530.60043 q -0.0127,-0.036 -0.0169,-0.0804 -0.002,-0.0444 -0.002,-0.11007 0,-0.0466 0,-0.072 0.002,-0.0275 0.002,-0.0466 0,-0.0212 0,-0.0402 0.002,-0.0212 0.002,-0.0572 0,-0.0741 -0.004,-0.14816 -0.002,-0.0762 -0.0212,-0.13547 -0.0191,-0.0614 -0.0593,-0.0995 -0.0402,-0.0381 -0.11642,-0.0381 -0.12911,0 -0.20108,0.12276 -0.072,0.12277 -0.0868,0.39159 -0.004,0.0847 -0.004,0.15451 0,0.0698 -0.008,0.12065 -0.008,0.0487 -0.0317,0.0762 -0.0212,0.0275 -0.072,0.0275 -0.0466,0 -0.0677,-0.0233 -0.0212,-0.0254 -0.0318,-0.0741 -0.008,-0.0487 -0.0106,-0.11853 0,-0.0698 -0.006,-0.16298 -0.006,-0.1016 -0.0212,-0.19474 -0.0127,-0.0931 -0.0444,-0.16298 -0.0296,-0.072 -0.0825,-0.1143 -0.0508,-0.0423 -0.13124,-0.0423 -0.0762,0 -0.11853,0.0381 -0.0402,0.036 -0.0593,0.0974 -0.019,0.0593 -0.0233,0.13547 -0.002,0.0741 -0.002,0.15028 0,0.0381 0,0.0572 0.002,0.0169 0.002,0.0317 0,0.0148 0,0.0381 0.002,0.0233 0.002,0.072 0,0.0698 -0.004,0.12065 -0.002,0.0508 -0.0148,0.0868 -0.0148,0.0423 -0.0402,0.0529 -0.0254,0.008 -0.0466,0.008 -0.0656,0 -0.0847,-0.0466 -0.019,-0.0466 -0.0212,-0.13547 0,-0.0487 -0.002,-0.10795 0,-0.0614 0,-0.14816 0,-0.0423 0,-0.0741 0,-0.0317 0,-0.0614 0.002,-0.0296 0.002,-0.0593 0.002,-0.0317 0.004,-0.072 0.006,-0.12912 0.0466,-0.20532 0.0402,-0.0783 0.0953,-0.11853 0.055,-0.0402 0.11853,-0.0508 0.0635,-0.0127 0.11642,-0.0127 0.1143,0 0.19262,0.0339 0.0783,0.0339 0.127,0.0889 0.0508,0.055 0.0741,0.12489 0.0254,0.0698 0.0339,0.14181 0.008,-0.0699 0.0339,-0.13758 0.0275,-0.0698 0.0783,-0.12277 0.0529,-0.055 0.13547,-0.0889 0.0825,-0.0339 0.2032,-0.0339 0.0571,0 0.11641,0.0127 0.0614,0.0106 0.11219,0.0508 0.0508,0.0402 0.0847,0.11641 0.036,0.0741 0.0423,0.20109 0.002,0.0402 0.002,0.072 0.002,0.0296 0.002,0.0593 0.002,0.0296 0.002,0.0614 0,0.0317 0,0.0741 0,0.0868 -0.002,0.14816 0,0.0593 0,0.10795 0,0.0402 -0.004,0.0741 -0.002,0.0339 -0.0127,0.0571 -0.0106,0.0233 -0.0318,0.0381 -0.0191,0.0127 -0.0572,0.0127 -0.036,0 -0.055,-0.0127 -0.0191,-0.0148 -0.0318,-0.0487 z"
             style="font-weight:bold;font-size:2.11667px;font-family:Sniglet;-inkscape-font-specification:'Sniglet Bold';fill:#000000;stroke-width:0.315912;stroke-linecap:round;stroke-linejoin:round"
             id="path79944" />
          <path
             d="m -110.87982,-531.64183 q 0.0444,0 0.11218,0.008 0.0677,0.006 0.12912,0.0275 0.0614,0.019 0.10583,0.055 0.0444,0.036 0.0444,0.091 0,0.0317 -0.019,0.055 -0.0169,0.0233 -0.055,0.0233 -0.0275,0 -0.0635,-0.008 -0.0339,-0.008 -0.0762,-0.019 -0.0402,-0.0127 -0.0889,-0.0212 -0.0466,-0.008 -0.0995,-0.008 -0.0889,0 -0.14605,0.0275 -0.055,0.0275 -0.055,0.0868 0,0.0339 0.019,0.0571 0.0212,0.0233 0.055,0.0423 0.036,0.0169 0.0825,0.0296 0.0487,0.0127 0.1016,0.0254 0.0656,0.0169 0.12911,0.0381 0.0656,0.0212 0.11642,0.0593 0.0508,0.036 0.0825,0.0931 0.0318,0.055 0.0318,0.13758 0,0.15664 -0.11853,0.24977 -0.11854,0.091 -0.34925,0.091 -0.0508,0 -0.12065,-0.008 -0.0698,-0.006 -0.13124,-0.0275 -0.0614,-0.019 -0.10583,-0.055 -0.0423,-0.0381 -0.0423,-0.0995 0,-0.0423 0.0191,-0.0635 0.0212,-0.0233 0.0508,-0.0233 0.0233,0 0.0487,0.0148 0.0254,0.0148 0.0614,0.0317 0.036,0.0169 0.0868,0.0317 0.0508,0.0148 0.12488,0.0148 0.0275,0 0.072,-0.002 0.0444,-0.004 0.0868,-0.019 0.0444,-0.0148 0.0741,-0.0402 0.0318,-0.0275 0.0318,-0.0762 0,-0.0381 -0.0212,-0.0635 -0.0212,-0.0275 -0.0572,-0.0466 -0.036,-0.019 -0.0847,-0.0317 -0.0466,-0.0148 -0.0995,-0.0296 -0.0614,-0.0169 -0.12489,-0.0381 -0.0614,-0.0212 -0.11218,-0.055 -0.0508,-0.0339 -0.0825,-0.0847 -0.0318,-0.0529 -0.0318,-0.12911 0,-0.072 0.0296,-0.13335 0.0296,-0.0635 0.0847,-0.11007 0.055,-0.0466 0.13123,-0.072 0.0783,-0.0254 0.17357,-0.0254 z"
             style="font-weight:bold;font-size:2.11667px;font-family:Sniglet;-inkscape-font-specification:'Sniglet Bold';fill:#000000;stroke-width:0.315912;stroke-linecap:round;stroke-linejoin:round"
             id="path79946" />
          <path
             d="m -109.2775,-530.49459 q -0.14605,0.004 -0.35984,0.006 -0.21166,0.004 -0.4826,0.004 -0.14393,0 -0.20531,-0.0169 -0.0614,-0.0169 -0.0614,-0.0868 0,-0.019 0.004,-0.0339 0.004,-0.0169 0.0191,-0.0296 0.0148,-0.0148 0.0402,-0.0233 0.0275,-0.008 0.0698,-0.0127 0.0445,-0.002 0.091,-0.004 0.0487,-0.002 0.10795,-0.002 0.0614,-0.002 0.1397,-0.002 0.0783,0 0.18415,0 0.1143,0 0.22648,0.002 0.11219,0 0.22437,0.006 0.0508,0.002 0.0783,0.0106 0.0275,0.008 0.0423,0.0212 0.0148,0.0127 0.0169,0.0296 0.004,0.0169 0.004,0.0381 0,0.0381 -0.0275,0.0635 -0.0254,0.0254 -0.11218,0.0296 z"
             style="font-weight:bold;font-size:2.11667px;font-family:Sniglet;-inkscape-font-specification:'Sniglet Bold';fill:#000000;stroke-width:0.315912;stroke-linecap:round;stroke-linejoin:round"
             id="path79948" />
          <path
             d="m -108.75681,-530.23213 q 0,0.0402 -0.002,0.0762 -0.002,0.0381 -0.0148,0.0677 -0.0106,0.0296 -0.0339,0.0466 -0.0212,0.0191 -0.0614,0.0191 -0.0466,0 -0.0783,-0.0339 -0.0296,-0.0318 -0.0339,-0.1143 -0.002,-0.0529 -0.006,-0.12912 -0.004,-0.0762 -0.008,-0.16087 -0.002,-0.0847 -0.006,-0.16933 -0.002,-0.0847 -0.002,-0.15663 0,-0.24765 0.0339,-0.40852 0.036,-0.16087 0.10583,-0.25612 0.0699,-0.0952 0.17145,-0.13335 0.10372,-0.0381 0.23919,-0.0381 0.10795,0 0.2032,0.0339 0.0952,0.0318 0.1651,0.1016 0.072,0.0677 0.1143,0.1778 0.0423,0.10795 0.0423,0.26035 0,0.127 -0.0444,0.22437 -0.0423,0.0974 -0.11853,0.1651 -0.0762,0.0656 -0.17992,0.1016 -0.1016,0.0339 -0.21801,0.0339 -0.0995,0 -0.17992,-0.0402 -0.0783,-0.0423 -0.11219,-0.091 0.0106,0.11853 0.0169,0.22013 0.008,0.1016 0.008,0.2032 z m 0.29211,-1.17898 q -0.0741,0 -0.12912,0.0254 -0.0529,0.0254 -0.0868,0.0698 -0.0339,0.0445 -0.0508,0.10583 -0.0148,0.0614 -0.0148,0.13335 0,0.0698 0.0127,0.13335 0.0148,0.0614 0.0466,0.10795 0.0318,0.0466 0.0847,0.0741 0.0529,0.0275 0.12912,0.0275 0.0593,0 0.1143,-0.0148 0.055,-0.0169 0.0974,-0.055 0.0444,-0.0381 0.0699,-0.1016 0.0275,-0.0635 0.0275,-0.15875 0,-0.0974 -0.0275,-0.16298 -0.0254,-0.0677 -0.0699,-0.10795 -0.0423,-0.0423 -0.0974,-0.0593 -0.0529,-0.0169 -0.10583,-0.0169 z"
             style="font-weight:bold;font-size:2.11667px;font-family:Sniglet;-inkscape-font-specification:'Sniglet Bold';fill:#000000;stroke-width:0.315912;stroke-linecap:round;stroke-linejoin:round"
             id="path79950" />
          <path
             d="m -107.23069,-531.61008 q 0.12065,0 0.2159,0.0381 0.0953,0.036 0.16087,0.10372 0.0677,0.0677 0.10371,0.1651 0.036,0.0974 0.036,0.21802 0,0.13335 -0.0423,0.23918 -0.0402,0.10583 -0.1143,0.17992 -0.072,0.0741 -0.17357,0.1143 -0.0995,0.0402 -0.21801,0.0402 -0.12912,0 -0.2286,-0.0444 -0.0974,-0.0444 -0.1651,-0.12065 -0.0656,-0.0762 -0.0995,-0.17568 -0.0339,-0.0995 -0.0339,-0.20955 0,-0.12065 0.0381,-0.22013 0.0402,-0.1016 0.11218,-0.17357 0.0741,-0.0741 0.1778,-0.1143 0.10372,-0.0402 0.23072,-0.0402 z m -0.0233,0.90382 q 0.0868,0 0.14817,-0.0296 0.0614,-0.0317 0.0995,-0.0825 0.0402,-0.0508 0.0572,-0.1143 0.019,-0.0656 0.019,-0.13547 0,-0.072 -0.019,-0.13335 -0.0169,-0.0635 -0.055,-0.11007 -0.036,-0.0466 -0.0952,-0.072 -0.0572,-0.0275 -0.13758,-0.0275 -0.0826,0 -0.14394,0.0275 -0.0614,0.0275 -0.10371,0.0762 -0.0402,0.0466 -0.0614,0.11218 -0.0212,0.0656 -0.0212,0.14182 0,0.15451 0.0783,0.25188 0.0804,0.0952 0.23495,0.0952 z"
             style="font-weight:bold;font-size:2.11667px;font-family:Sniglet;-inkscape-font-specification:'Sniglet Bold';fill:#000000;stroke-width:0.315912;stroke-linecap:round;stroke-linejoin:round"
             id="path79952" />
          <path
             d="m -106.36498,-530.67451 q -0.006,-0.13335 -0.008,-0.31538 0,-0.18415 0,-0.41699 -0.0212,0.002 -0.0508,0.002 -0.0275,0 -0.0444,0 -0.0381,0 -0.0699,-0.002 -0.0296,-0.002 -0.0529,-0.0127 -0.0233,-0.0106 -0.036,-0.0296 -0.0127,-0.0212 -0.0127,-0.0571 0,-0.1016 0.1524,-0.1016 0.0233,0 0.0572,0 0.0339,0 0.0571,0.004 0,-0.11218 0.004,-0.17991 0.004,-0.0677 0.0148,-0.10372 0.0127,-0.0381 0.0317,-0.0487 0.0212,-0.0127 0.0529,-0.0127 0.0339,0 0.055,0.0233 0.0212,0.0233 0.0318,0.0593 0.0127,0.036 0.0148,0.0804 0.004,0.0444 0.004,0.0868 0,0.0296 -0.002,0.055 0,0.0233 0,0.0423 0.0296,-0.008 0.0614,-0.008 0.0318,-0.002 0.0614,-0.002 0.0783,0 0.12065,0.0254 0.0423,0.0233 0.0423,0.0783 0,0.0339 -0.0148,0.055 -0.0148,0.019 -0.0402,0.0296 -0.0233,0.0106 -0.0572,0.0148 -0.0318,0.002 -0.0699,0.002 -0.0212,0 -0.0487,0 -0.0275,0 -0.0508,-0.004 0,0.11218 0,0.20532 0,0.0931 -0.002,0.17991 -0.002,0.0847 -0.004,0.16934 -0.002,0.0847 -0.006,0.17991 -0.002,0.0508 -0.0106,0.0783 -0.006,0.0275 -0.0191,0.0423 -0.0127,0.0148 -0.0296,0.019 -0.0148,0.002 -0.036,0.002 -0.0381,0 -0.0656,-0.0254 -0.0254,-0.0275 -0.0296,-0.1143 z"
             style="font-weight:bold;font-size:2.11667px;font-family:Sniglet;-inkscape-font-specification:'Sniglet Bold';fill:#000000;stroke-width:0.315912;stroke-linecap:round;stroke-linejoin:round"
             id="path79954" />
          <path
             d="m -104.83886,-530.52846 q -0.0339,0 -0.055,-0.0106 -0.0191,-0.0127 -0.0296,-0.0317 -0.0106,-0.019 -0.0148,-0.0444 -0.004,-0.0275 -0.006,-0.0571 -0.0529,0.0656 -0.13759,0.11006 -0.0825,0.0444 -0.21166,0.0444 -0.0825,0 -0.16934,-0.0233 -0.0847,-0.0254 -0.15451,-0.0847 -0.0699,-0.0614 -0.1143,-0.16298 -0.0444,-0.1016 -0.0444,-0.25612 0,-0.12065 0.0296,-0.22648 0.0296,-0.10583 0.0889,-0.18415 0.0614,-0.0804 0.1524,-0.127 0.091,-0.0466 0.21378,-0.0466 0.10795,0 0.19262,0.0402 0.0847,0.0381 0.1524,0.127 0,-0.0254 0.002,-0.0508 0.002,-0.0275 0.0106,-0.0487 0.0106,-0.0233 0.0318,-0.036 0.0212,-0.0148 0.0572,-0.0148 0.0317,0 0.0593,0.0254 0.0275,0.0254 0.0318,0.11006 0.006,0.11219 0.008,0.20109 0.004,0.0889 0.004,0.18415 0,0.11641 -0.002,0.21378 -0.002,0.0974 -0.0106,0.20743 -0.004,0.0487 -0.0127,0.0783 -0.006,0.0275 -0.0169,0.0423 -0.0106,0.0127 -0.0254,0.0169 -0.0148,0.004 -0.0296,0.004 z m -0.1143,-0.53763 q 0,-0.11007 -0.0339,-0.17992 -0.0318,-0.0699 -0.0825,-0.10795 -0.0487,-0.0402 -0.10583,-0.055 -0.0572,-0.0148 -0.10583,-0.0148 -0.0762,0 -0.13124,0.0275 -0.0529,0.0275 -0.0868,0.0762 -0.0339,0.0466 -0.0508,0.11218 -0.0148,0.0635 -0.0148,0.1397 0,0.18627 0.0804,0.27517 0.0826,0.0889 0.22225,0.0889 0.0825,0 0.1397,-0.0275 0.0593,-0.0296 0.0952,-0.0783 0.0381,-0.0487 0.055,-0.1143 0.0191,-0.0677 0.0191,-0.14181 z"
             style="font-weight:bold;font-size:2.11667px;font-family:Sniglet;-inkscape-font-specification:'Sniglet Bold';fill:#000000;stroke-width:0.315912;stroke-linecap:round;stroke-linejoin:round"
             id="path79956" />
          <path
             d="m -104.31181,-530.67451 q -0.006,-0.13335 -0.008,-0.31538 0,-0.18415 0,-0.41699 -0.0212,0.002 -0.0508,0.002 -0.0275,0 -0.0444,0 -0.0381,0 -0.0699,-0.002 -0.0296,-0.002 -0.0529,-0.0127 -0.0233,-0.0106 -0.036,-0.0296 -0.0127,-0.0212 -0.0127,-0.0571 0,-0.1016 0.1524,-0.1016 0.0233,0 0.0571,0 0.0339,0 0.0572,0.004 0,-0.11218 0.004,-0.17991 0.004,-0.0677 0.0148,-0.10372 0.0127,-0.0381 0.0318,-0.0487 0.0212,-0.0127 0.0529,-0.0127 0.0339,0 0.055,0.0233 0.0212,0.0233 0.0318,0.0593 0.0127,0.036 0.0148,0.0804 0.004,0.0444 0.004,0.0868 0,0.0296 -0.002,0.055 0,0.0233 0,0.0423 0.0296,-0.008 0.0614,-0.008 0.0318,-0.002 0.0614,-0.002 0.0783,0 0.12065,0.0254 0.0423,0.0233 0.0423,0.0783 0,0.0339 -0.0148,0.055 -0.0148,0.019 -0.0402,0.0296 -0.0233,0.0106 -0.0571,0.0148 -0.0318,0.002 -0.0699,0.002 -0.0212,0 -0.0487,0 -0.0275,0 -0.0508,-0.004 0,0.11218 0,0.20532 0,0.0931 -0.002,0.17991 -0.002,0.0847 -0.004,0.16934 -0.002,0.0847 -0.006,0.17991 -0.002,0.0508 -0.0106,0.0783 -0.006,0.0275 -0.0191,0.0423 -0.0127,0.0148 -0.0296,0.019 -0.0148,0.002 -0.036,0.002 -0.0381,0 -0.0656,-0.0254 -0.0254,-0.0275 -0.0296,-0.1143 z"
             style="font-weight:bold;font-size:2.11667px;font-family:Sniglet;-inkscape-font-specification:'Sniglet Bold';fill:#000000;stroke-width:0.315912;stroke-linecap:round;stroke-linejoin:round"
             id="path79958" />
          <path
             d="m -103.18574,-531.61008 q 0.12065,0 0.2159,0.0381 0.0953,0.036 0.16087,0.10372 0.0677,0.0677 0.10371,0.1651 0.036,0.0974 0.036,0.21802 0,0.13335 -0.0423,0.23918 -0.0402,0.10583 -0.1143,0.17992 -0.072,0.0741 -0.17356,0.1143 -0.0995,0.0402 -0.21802,0.0402 -0.12912,0 -0.2286,-0.0444 -0.0974,-0.0444 -0.1651,-0.12065 -0.0656,-0.0762 -0.0995,-0.17568 -0.0339,-0.0995 -0.0339,-0.20955 0,-0.12065 0.0381,-0.22013 0.0402,-0.1016 0.11218,-0.17357 0.0741,-0.0741 0.1778,-0.1143 0.10372,-0.0402 0.23072,-0.0402 z m -0.0233,0.90382 q 0.0868,0 0.14816,-0.0296 0.0614,-0.0317 0.0995,-0.0825 0.0402,-0.0508 0.0572,-0.1143 0.019,-0.0656 0.019,-0.13547 0,-0.072 -0.019,-0.13335 -0.0169,-0.0635 -0.055,-0.11007 -0.036,-0.0466 -0.0952,-0.072 -0.0572,-0.0275 -0.13758,-0.0275 -0.0826,0 -0.14393,0.0275 -0.0614,0.0275 -0.10372,0.0762 -0.0402,0.0466 -0.0614,0.11218 -0.0212,0.0656 -0.0212,0.14182 0,0.15451 0.0783,0.25188 0.0804,0.0952 0.23495,0.0952 z"
             style="font-weight:bold;font-size:2.11667px;font-family:Sniglet;-inkscape-font-specification:'Sniglet Bold';fill:#000000;stroke-width:0.315912;stroke-linecap:round;stroke-linejoin:round"
             id="path79960" />
          <path
             d="m -123.8213,-539.95713 q -0.0469,0.0812 -0.0932,0.15148 -0.0488,0.0745 -0.10899,0.11957 -0.0559,0.0475 -0.12274,0.0546 -0.065,0.0138 -0.14629,-0.0331 -0.0941,-0.0543 -0.11875,-0.15979 -0.0229,-0.0988 0.0649,-0.27047 0.0574,-0.10942 0.13782,-0.2683 0.0802,-0.15898 0.17053,-0.33498 0.0944,-0.17358 0.18474,-0.34957 0.0944,-0.17358 0.17841,-0.31902 0.28892,-0.50043 0.54501,-0.78599 0.26043,-0.28307 0.51267,-0.39407 0.25227,-0.11099 0.50203,-0.0694 0.25403,0.044 0.52777,0.20206 0.21814,0.12594 0.37111,0.30548 0.15543,0.17529 0.21509,0.39792 0.0664,0.22084 0.0235,0.49264 -0.0404,0.26754 -0.21818,0.5755 -0.14816,0.25663 -0.35158,0.40152 -0.19916,0.14735 -0.43215,0.19534 -0.23053,0.0437 -0.48209,-0.005 -0.2448,-0.0501 -0.48005,-0.18594 -0.20103,-0.11607 -0.31667,-0.29114 -0.10885,-0.17693 -0.1205,-0.31481 -0.1169,0.25188 -0.22262,0.46459 -0.10138,0.2152 -0.21991,0.4205 z m 1.96574,-2.04162 q -0.1497,-0.0864 -0.29056,-0.0993 -0.13658,-0.0104 -0.25686,0.0399 -0.12027,0.0503 -0.22612,0.1546 -0.10158,0.10673 -0.18554,0.25216 -0.0815,0.14114 -0.12994,0.28426 -0.0417,0.14134 -0.0319,0.27246 0.01,0.13115 0.0847,0.24848 0.0748,0.11734 0.22881,0.20624 0.11976,0.0691 0.24827,0.10338 0.13096,0.03 0.26096,0.002 0.13427,-0.0251 0.25967,-0.12381 0.12969,-0.0962 0.24081,-0.28869 0.1136,-0.19675 0.13455,-0.36145 0.0277,-0.16652 -0.0152,-0.29962 -0.0362,-0.13497 -0.12761,-0.23336 -0.0872,-0.0959 -0.19411,-0.15768 z"
             style="font-weight:normal;font-size:4.93889px;font-family:Sniglet;-inkscape-font-specification:Sniglet;stroke-width:0.315912;stroke-linecap:round;stroke-linejoin:round"
             id="path79915" />
          <path
             d="m -121.38551,-538.32841 q -0.1124,0.0663 -0.19089,0.0837 -0.0742,0.0199 -0.13836,-0.0172 -0.0598,-0.0345 -0.0976,-0.10759 -0.0377,-0.073 0.002,-0.14153 0.0371,-0.0642 0.14896,-0.15922 0.11617,-0.0926 0.26185,-0.19671 0.14991,-0.10164 0.30907,-0.20935 0.15918,-0.1077 0.29064,-0.19719 l 0.067,-0.0469 q 0.0174,-0.32644 0.046,-0.69203 0.0329,-0.36313 0.0698,-0.68396 0.037,-0.32085 0.0729,-0.55102 0.0427,-0.23198 0.0773,-0.29185 0.0321,-0.0556 0.0971,-0.0694 0.0717,-0.0156 0.14018,0.0239 0.0599,0.0346 0.10069,0.0923 0.0433,0.0535 0.0434,0.16192 -0.006,0.16782 -0.0292,0.37661 -0.0168,0.20699 -0.0479,0.42861 -0.0267,0.22409 -0.0559,0.45246 -0.025,0.23082 -0.0424,0.44885 0.19534,-0.12104 0.4134,-0.25178 0.21806,-0.13074 0.42014,-0.25358 0.20638,-0.12037 0.37835,-0.22069 0.17446,-0.10458 0.2936,-0.17267 0.11663,-0.0638 0.20124,-0.072 0.0846,-0.008 0.14874,0.0288 0.0428,0.0247 0.0634,0.0879 0.023,0.0589 -0.0115,0.1188 -0.0519,0.0898 -0.24916,0.24395 -0.19058,0.1523 -0.46526,0.34159 -0.27467,0.1893 -0.60579,0.39734 -0.32437,0.20623 -0.6438,0.40389 -0.31696,0.1934 -0.60134,0.35999 -0.28009,0.16905 -0.46623,0.28401 z"
             style="font-weight:normal;font-size:4.93889px;font-family:Sniglet;-inkscape-font-specification:Sniglet;stroke-width:0.315912;stroke-linecap:round;stroke-linejoin:round"
             id="path79917" />
          <path
             d="m -126.2739,-545.10286 q 0.12403,0.0716 0.23573,0.16461 0.11596,0.0955 0.19641,0.1932 0.0804,0.0978 0.11249,0.1904 0.0321,0.0926 -0.01,0.16537 -0.10865,0.1882 -0.32251,0.0647 -0.0514,-0.0297 -0.091,-0.0696 -0.0329,-0.0419 -0.0854,-0.0892 -0.0499,-0.0517 -0.1324,-0.1164 -0.0799,-0.069 -0.21252,-0.14555 -0.28229,-0.16299 -0.5474,-0.0594 -0.2651,0.10357 -0.4429,0.41153 -0.19509,0.33791 -0.15964,0.63211 0.0397,0.29667 0.32629,0.46212 0.17965,0.10372 0.30815,0.13796 0.12851,0.0342 0.21914,0.0353 0.0949,0.004 0.15499,-0.002 0.0643,-0.003 0.11995,0.0293 0.077,0.0444 0.10001,0.10335 0.0297,0.0571 -0.0271,0.15546 -0.0593,0.10265 -0.18495,0.13274 -0.12144,0.0325 -0.27084,0.0147 -0.1494,-0.0178 -0.30535,-0.0737 -0.15167,-0.0534 -0.26716,-0.12006 -0.51754,-0.2988 -0.64721,-0.75576 -0.12967,-0.45697 0.17407,-0.98306 0.13088,-0.22669 0.31536,-0.38822 0.19128,-0.16331 0.42129,-0.23582 0.23005,-0.0725 0.48721,-0.0438 0.26144,0.0312 0.53519,0.18923 z"
             style="font-weight:normal;font-size:4.93889px;font-family:Sniglet;-inkscape-font-specification:Sniglet;stroke-width:0.315912;stroke-linecap:round;stroke-linejoin:round"
             id="path79911" />
          <path
             d="m -124.63898,-541.22763 q -0.0684,-0.0395 -0.0988,-0.0856 -0.0237,-0.0478 -0.0228,-0.0987 8.1e-4,-0.0508 0.0219,-0.10712 0.0234,-0.0606 0.0539,-0.12288 -0.18349,0.0708 -0.40644,0.0619 -0.21867,-0.006 -0.47957,-0.15713 -0.16682,-0.0963 -0.31503,-0.24458 -0.14144,-0.15013 -0.21346,-0.35135 -0.0695,-0.20553 -0.0408,-0.4627 0.0287,-0.25716 0.20898,-0.5694 0.14076,-0.2438 0.32407,-0.42311 0.18332,-0.17931 0.39448,-0.2684 0.21788,-0.0909 0.45613,-0.0788 0.23824,0.0121 0.48632,0.15532 0.21814,0.12594 0.34233,0.30595 0.12663,0.17577 0.15979,0.43444 0.0296,-0.0514 0.0636,-0.10016 0.0364,-0.0531 0.0782,-0.086 0.0485,-0.0347 0.10617,-0.0357 0.0601,-0.005 0.13279,0.0367 0.0642,0.0371 0.0901,0.1205 0.0259,0.0835 -0.0642,0.25947 -0.11806,0.23409 -0.21745,0.41623 -0.0951,0.18464 -0.20618,0.37712 -0.13582,0.23525 -0.25374,0.4295 -0.11793,0.19425 -0.2634,0.40681 -0.0655,0.0934 -0.117,0.14346 -0.0449,0.0482 -0.0836,0.0658 -0.0362,0.0133 -0.0711,0.005 -0.035,-0.009 -0.0649,-0.0259 z m 0.39627,-1.21976 q 0.12841,-0.22241 0.14149,-0.40307 0.0173,-0.17819 -0.0409,-0.31444 -0.0515,-0.13803 -0.14965,-0.23468 -0.0982,-0.0966 -0.19657,-0.15344 -0.15398,-0.0889 -0.29728,-0.0975 -0.13903,-0.006 -0.26426,0.0527 -0.12275,0.0546 -0.23354,0.16742 -0.10405,0.11102 -0.19295,0.265 -0.21731,0.37639 -0.1585,0.64988 0.0631,0.27595 0.34539,0.43893 0.16682,0.0963 0.3144,0.10739 0.15431,0.009 0.28384,-0.0471 0.13379,-0.0539 0.24456,-0.16676 0.11747,-0.11468 0.2039,-0.26438 z"
             style="font-weight:normal;font-size:4.93889px;font-family:Sniglet;-inkscape-font-specification:Sniglet;stroke-width:0.315912;stroke-linecap:round;stroke-linejoin:round"
             id="path79913" />
          <path
             d="m -114.94684,-535.63187 q -0.0684,-0.0395 -0.0989,-0.0856 -0.0237,-0.0479 -0.0228,-0.0987 8.1e-4,-0.0508 0.0219,-0.10713 0.0234,-0.0606 0.0539,-0.12288 -0.18349,0.0709 -0.40644,0.0619 -0.21866,-0.006 -0.47957,-0.15713 -0.16682,-0.0963 -0.31503,-0.24458 -0.14144,-0.15014 -0.21346,-0.35136 -0.0695,-0.20553 -0.0408,-0.4627 0.0287,-0.25716 0.20898,-0.56939 0.14076,-0.24381 0.32416,-0.42306 0.18331,-0.17932 0.39448,-0.26841 0.21788,-0.0909 0.45613,-0.0788 0.23824,0.0121 0.48632,0.15532 0.21813,0.12594 0.34233,0.30596 0.12663,0.17576 0.15979,0.43443 0.0297,-0.0513 0.0636,-0.10016 0.0364,-0.0531 0.0782,-0.086 0.0485,-0.0347 0.10617,-0.0357 0.0601,-0.005 0.13279,0.0367 0.0642,0.0371 0.0901,0.1205 0.026,0.0834 -0.0642,0.25947 -0.11806,0.23409 -0.21745,0.41623 -0.0951,0.18464 -0.20618,0.37711 -0.13582,0.23525 -0.25374,0.4295 -0.11793,0.19426 -0.2634,0.40682 -0.0655,0.0934 -0.117,0.14346 -0.0449,0.0482 -0.0836,0.0658 -0.0362,0.0133 -0.0711,0.005 -0.035,-0.009 -0.0649,-0.0259 z m 0.39627,-1.21976 q 0.12841,-0.22242 0.14149,-0.40307 0.0173,-0.1782 -0.0409,-0.31444 -0.0515,-0.13803 -0.14965,-0.23468 -0.0982,-0.0966 -0.19656,-0.15344 -0.15398,-0.0889 -0.29729,-0.0975 -0.13903,-0.006 -0.26426,0.0527 -0.12275,0.0546 -0.23354,0.16742 -0.10405,0.11102 -0.19295,0.265 -0.21731,0.37639 -0.15849,0.64988 0.0631,0.27595 0.34538,0.43893 0.16682,0.0963 0.3144,0.10738 0.15431,0.009 0.28384,-0.0471 0.13379,-0.0539 0.24456,-0.16676 0.11747,-0.11468 0.2039,-0.26438 z"
             style="font-weight:normal;font-size:4.93889px;font-family:Sniglet;-inkscape-font-specification:Sniglet;stroke-width:0.315912;stroke-linecap:round;stroke-linejoin:round"
             id="path79921" />
          <path
             d="m -114.06776,-535.49503 q 0.0693,-0.1596 0.18851,-0.37591 0.11914,-0.21636 0.29447,-0.52004 0.17286,-0.2994 0.27905,-0.48333 0.11052,-0.18142 0.21331,-0.31026 0.12264,-0.16302 0.19505,-0.18964 0.0767,-0.0242 0.14942,0.0178 0.0513,0.0296 0.0848,0.0605 0.0378,0.0334 0.0506,0.0804 0.0194,0.0454 0.007,0.10664 -0.0125,0.0613 -0.0643,0.15105 -0.01,0.0172 -0.0154,0.0367 -0.01,0.0171 -0.0222,0.0385 -0.006,0.0196 -0.0204,0.0453 0.19945,-0.0788 0.40414,-0.0974 0.20897,-0.0162 0.39717,0.0924 0.25235,0.1457 0.13134,0.35528 -0.0444,0.077 -0.10829,0.10857 -0.0596,0.0341 -0.13921,0.0337 -0.0729,-0.002 -0.15975,-0.0295 -0.0827,-0.0249 -0.18229,-0.0596 -0.15166,-0.0534 -0.31343,-0.0498 -0.15926,-7.3e-4 -0.26378,0.0815 -0.0469,0.0812 -0.0691,0.11976 -0.0179,0.0409 -0.0327,0.0667 -0.0105,0.0281 -0.0278,0.0581 -0.0173,0.03 -0.0543,0.0941 -0.12594,0.21815 -0.24573,0.40562 -0.11731,0.1832 -0.25412,0.40076 -0.0636,0.10015 -0.11701,0.14346 -0.0492,0.0457 -0.0964,0.0584 -0.0429,0.0152 -0.0796,-3.4e-4 -0.0392,-0.0111 -0.0734,-0.0308 -0.11976,-0.0692 -0.13289,-0.1452 -0.006,-0.0778 0.0778,-0.26306 z"
             style="font-weight:normal;font-size:4.93889px;font-family:Sniglet;-inkscape-font-specification:Sniglet;stroke-width:0.315912;stroke-linecap:round;stroke-linejoin:round"
             id="path79923" />
          <path
             d="m -110.92628,-533.3106 q -0.0684,-0.0395 -0.0988,-0.0856 -0.0237,-0.0479 -0.0228,-0.0987 8.1e-4,-0.0508 0.0219,-0.10712 0.0234,-0.0606 0.0539,-0.12288 -0.1835,0.0709 -0.40644,0.0619 -0.21867,-0.006 -0.47958,-0.15713 -0.16681,-0.0963 -0.31502,-0.24458 -0.14144,-0.15013 -0.21346,-0.35135 -0.0695,-0.20553 -0.0408,-0.4627 0.0287,-0.25716 0.20897,-0.5694 0.14076,-0.2438 0.32416,-0.42306 0.18332,-0.17931 0.39449,-0.2684 0.21787,-0.0909 0.45612,-0.0788 0.23824,0.0121 0.48633,0.15532 0.21813,0.12594 0.34232,0.30595 0.12664,0.17577 0.15979,0.43444 0.0297,-0.0514 0.0636,-0.10016 0.0364,-0.0531 0.0782,-0.086 0.0485,-0.0347 0.10617,-0.0357 0.0601,-0.005 0.13278,0.0367 0.0642,0.0371 0.0901,0.1205 0.0259,0.0835 -0.0643,0.25947 -0.11806,0.23409 -0.21744,0.41623 -0.0951,0.18464 -0.20618,0.37712 -0.13582,0.23525 -0.25375,0.4295 -0.11792,0.19425 -0.26339,0.40681 -0.0655,0.0934 -0.11701,0.14346 -0.0449,0.0482 -0.0836,0.0658 -0.0362,0.0133 -0.0711,0.005 -0.035,-0.009 -0.0649,-0.0259 z m 0.39627,-1.21976 q 0.12841,-0.22241 0.14149,-0.40307 0.0173,-0.17819 -0.0409,-0.31444 -0.0515,-0.13803 -0.14965,-0.23468 -0.0982,-0.0966 -0.19657,-0.15344 -0.15398,-0.0889 -0.29728,-0.0975 -0.13903,-0.006 -0.26427,0.0527 -0.12274,0.0546 -0.23353,0.16742 -0.10405,0.11102 -0.19295,0.265 -0.21731,0.37639 -0.1585,0.64988 0.0631,0.27595 0.34539,0.43893 0.16681,0.0963 0.3144,0.10739 0.15431,0.009 0.28384,-0.0471 0.13379,-0.0539 0.24455,-0.16676 0.11748,-0.11468 0.20391,-0.26438 z"
             style="font-weight:normal;font-size:4.93889px;font-family:Sniglet;-inkscape-font-specification:Sniglet;stroke-width:0.315912;stroke-linecap:round;stroke-linejoin:round"
             id="path79925" />
          <path
             d="m -117.13294,-540.64655 q -0.14816,0.25663 -0.3283,0.52903 -0.17333,0.27062 -0.34782,0.52346 0.12227,-0.0834 0.25901,-0.1128 0.13922,-0.0337 0.27578,-0.0233 0.14086,0.0129 0.27542,0.0564 0.13456,0.0435 0.24577,0.10772 0.19247,0.11112 0.31728,0.28017 0.13159,0.1672 0.1766,0.37571 0.0518,0.20667 0.004,0.44721 -0.0408,0.23875 -0.18901,0.49538 -0.14323,0.24809 -0.33451,0.41139 -0.19128,0.1633 -0.4231,0.22906 -0.22511,0.0639 -0.4859,0.0217 -0.25648,-0.0398 -0.53022,-0.19781 -0.37211,-0.21484 -0.49955,-0.48801 -0.12315,-0.2707 -0.0826,-0.57805 0.043,-0.31162 0.20507,-0.6515 0.16628,-0.33742 0.37125,-0.69243 0.20743,-0.35928 0.38817,-0.64273 0.18074,-0.28345 0.31009,-0.4483 0.11947,-0.14773 0.21892,-0.18157 0.0993,-0.0339 0.19775,0.023 0.0727,0.042 0.0957,0.10088 0.0255,0.0547 0.0104,0.12011 -0.0107,0.068 -0.0485,0.14312 -0.0352,0.0709 -0.0821,0.1522 z m 0.0157,1.43478 q -0.12404,-0.0716 -0.26422,-0.0955 -0.13341,-0.0258 -0.27265,0.008 -0.13496,0.0362 -0.26281,0.13911 -0.12544,0.0987 -0.23162,0.28259 -0.18768,0.32507 -0.1282,0.58752 0.0662,0.26066 0.33569,0.41623 0.11121,0.0642 0.24399,0.10092 0.13524,0.0325 0.27379,0.01 0.141,-0.0269 0.27746,-0.12495 0.1364,-0.098 0.24999,-0.29479 0.10125,-0.17537 0.12398,-0.33334 0.0271,-0.15546 -0.0116,-0.28613 -0.0362,-0.13496 -0.12514,-0.23763 -0.089,-0.10266 -0.20877,-0.1718 z"
             style="font-weight:normal;font-size:4.93889px;font-family:Sniglet;-inkscape-font-specification:Sniglet;stroke-width:0.315912;stroke-linecap:round;stroke-linejoin:round"
             id="path79919" />
          <g
             id="g13"
             transform="rotate(4.2028621,-142.45941,-577.10495)"
             style="stroke-width:0.362;stroke-dasharray:none">
            <g
               id="g14"
               transform="rotate(10.144284,-84.089525,-606.14506)"
               style="stroke-width:0.362;stroke-dasharray:none" />
          </g>
          <g
             id="g1">
            <g
               id="g2"
               transform="translate(-0.0647179,-0.0373649)">
              <path
                 style="fill:#d8a672;fill-opacity:1;stroke:#000000;stroke-width:0.362;stroke-linecap:round;stroke-linejoin:round;stroke-dasharray:none"
                 d="m -105.24742,-558.70378 c 0.1007,-0.7537 0.39002,-1.89263 0.0874,-2.83951 -1.14201,-3.57361 -5.33011,-4.98455 -7.08013,-5.42582 -1.72814,-0.43575 -4.08744,-0.4252 -5.66765,0.1482 -1.07769,0.39106 -1.63907,0.79293 -2.12767,1.22444 -1.80439,1.78849 -2.14554,4.1785 -0.20725,5.93624 0.8821,0.75645 2.38166,1.34958 2.76143,1.25686 -1.74737,4.20264 -3.85004,8.63973 -3.62815,11.54299 0.12233,1.60058 0.84804,2.43418 1.90244,1.74934 0.4135,-0.26857 0.83806,-0.77423 1.27367,-1.51694 2.85199,3.6594 6.48176,5.09487 10.1739,6.352 -0.35011,1.12753 -0.27016,1.96399 0.0247,2.45843 0.58728,0.91704 2.56187,0.64183 5.08763,-2.33911 1.27485,-1.5046 5.878296,-7.44774 3.669485,-12.44586 -0.976581,-2.20981 -2.873455,-3.97664 -4.266525,-4.83528 -0.72446,-0.44653 -1.42927,-0.8508 -2.00328,-1.26601 z"
                 id="path12"
                 sodipodi:nodetypes="cssssscssccsssscc" />
              <path
                 id="path94"
                 d="m -108.45072,-564.55962 c 0,0 1.44634,-0.85349 2.90066,-0.66594 1.45427,0.18764 1.9539,2.42565 -0.28578,3.52904"
                 style="fill:#d8a672;fill-opacity:1;fill-rule:nonzero;stroke:#000000;stroke-width:0.362;stroke-linecap:round;stroke-linejoin:round;stroke-miterlimit:10;stroke-dasharray:none;stroke-opacity:1" />
              <path
                 id="path95"
                 d="m -107.1458,-563.7116 c 0.24205,-0.3583 1.37276,-0.87962 1.73417,-0.15559 0.36145,0.72419 -0.64075,1.65428 -1.08138,1.4377 -0.4406,-0.21684 -0.89473,-0.92402 -0.65279,-1.28211"
                 style="fill:#97744f;fill-opacity:1;fill-rule:nonzero;stroke:none;stroke-width:0.011998" />
              <path
                 id="path96"
                 d="m -115.24112,-557.60253 -0.0375,0.0548 c 0.0346,-0.0309 0.0375,-0.0548 0.0375,-0.0548"
                 style="fill:#d8a672;fill-opacity:1;fill-rule:nonzero;stroke:none;stroke-width:0.011998" />
              <path
                 id="path101"
                 d="m -112.46139,-563.88187 c 0.6636,-0.46239 1.71219,0.0708 1.57945,0.91938 -0.0359,0.2515 -0.15759,0.46276 -0.33635,0.60657 -0.0369,0.0295 -0.0905,0.0238 -0.12001,-0.0129 -0.0565,-0.18389 -0.0437,-0.43378 -0.10055,-0.58243 -0.0898,-0.29222 -0.22334,-0.40936 -0.49347,-0.55769 -0.14194,-0.0747 -0.31596,-0.13712 -0.51578,-0.22367 -0.0615,-0.0243 -0.069,-0.11492 -0.0133,-0.14926"
                 style="fill:#000000;fill-opacity:1;fill-rule:nonzero;stroke:none;stroke-width:0.011998" />
              <path
                 style="fill:#ffaf8c;fill-opacity:1;stroke-width:0.499998;stroke-linecap:round;stroke-linejoin:round"
                 d="m -105.24746,-558.70376 -12.33211,0.81623"
                 id="path1" />
              <path
                 style="fill:#97744f;fill-opacity:1;stroke:#97744f;stroke-width:0.0123091;stroke-linejoin:round;stroke-dasharray:none"
                 d="m -119.70768,-559.49338 c -0.83722,-0.57543 -1.42711,-1.427 -1.58769,-2.29202 -0.15641,-0.84255 0.002,-1.65627 0.48593,-2.49895 0.29308,-0.51017 0.68173,-0.98753 1.06065,-1.30275 0.2524,-0.20996 0.73285,-0.52771 1.00726,-0.66615 0.43948,-0.22173 1.1925,-0.51285 1.24625,-0.48182 0.15323,0.0885 0.92963,1.40404 1.14894,1.9468 0.38834,0.96112 0.39408,2.09927 0.0167,3.30551 -0.21695,0.69339 -0.48601,1.30309 -1.03211,2.33876 -0.32494,0.61624 -0.2759,0.5643 -0.48621,0.51497 -0.49106,-0.11517 -1.35161,-0.51513 -1.8597,-0.86435 z"
                 id="path18" />
              <path
                 id="path99"
                 d="m -119.23643,-563.89269 c -0.0424,0.15216 -0.1619,0.25163 -0.26706,0.22236 -0.10527,-0.0293 -0.15616,-0.17633 -0.11375,-0.32848 0.0423,-0.15222 0.16202,-0.25184 0.26712,-0.22247 0.10516,0.0293 0.1561,0.17643 0.11369,0.32859"
                 style="fill:#000000;fill-opacity:1;fill-rule:nonzero;stroke:none;stroke-width:0.011998" />
              <path
                 id="path100-3"
                 d="m -120.36425,-564.80222 c -0.11046,0.11287 -0.13702,0.26614 -0.059,0.34263 0.078,0.0765 0.23068,0.047 0.34125,-0.0658 0.11067,-0.11274 0.13708,-0.26623 0.0592,-0.34251 -0.078,-0.0765 -0.23089,-0.0471 -0.34146,0.0657"
                 style="fill:#000000;fill-opacity:1;fill-rule:nonzero;stroke:none;stroke-width:0.011998" />
              <path
                 id="path104"
                 d="m -119.74398,-561.28565 c -0.75405,-0.15121 -1.30024,-0.90794 -1.17337,-1.46339"
                 style="fill:none;fill-opacity:1;fill-rule:nonzero;stroke:#000000;stroke-width:0.361737;stroke-linecap:round;stroke-linejoin:round;stroke-miterlimit:10;stroke-dasharray:none;stroke-opacity:1" />
              <path
                 id="path102"
                 d="m -120.46732,-561.6153 c -0.094,0.20673 -0.5572,1.06251 -0.8355,1.00463 -0.27803,-0.0579 -0.5829,-0.63194 -0.49368,-0.90142 0.0893,-0.26932 0.86298,-1.12783 0.86298,-1.12783 0,0 -0.0838,0.5533 0.4662,1.02462"
                 style="fill:#eafcfc;fill-opacity:1;fill-rule:nonzero;stroke:none;stroke-width:0.011998"
                 sodipodi:nodetypes="ccccc" />
              <path
                 id="path105"
                 d="m -121.09458,-561.61958 -0.53189,0.73823"
                 style="fill:#eafcfc;fill-opacity:1;fill-rule:nonzero;stroke:#000000;stroke-width:0.162;stroke-linecap:round;stroke-linejoin:miter;stroke-miterlimit:10;stroke-dasharray:none;stroke-opacity:1"
                 sodipodi:nodetypes="cc" />
              <path
                 id="path103"
                 d="m -120.46732,-561.6153 c -0.094,0.20673 -0.5572,1.06251 -0.8355,1.00463 -0.27803,-0.0579 -0.58291,-0.63192 -0.49369,-0.9014 0.0893,-0.26932 0.86299,-1.12785 0.86299,-1.12785 0,0 -0.0838,0.5533 0.4662,1.02462 z"
                 style="fill:none;stroke:#000000;stroke-width:0.361737;stroke-linecap:butt;stroke-linejoin:round;stroke-miterlimit:10;stroke-dasharray:none;stroke-opacity:1"
                 sodipodi:nodetypes="ccccc" />
            </g>
          </g>
        </g>
      </g>
    </g>
  </g>
  <style
     type="text/css"
     id="style10296">
	.st0{fill:#75AADB;}
	.st1{fill:#4D4D4D;}
	.st2{fill:#FFFFFF;}
	.st3{fill:url(#SVGID_1_);}
	.st4{fill:url(#SVGID_2_);}
	.st5{fill:url(#SVGID_3_);}
	.st6{fill:url(#SVGID_4_);}
	.st7{fill:url(#SVGID_5_);}
	.st8{fill:url(#SVGID_6_);}
	.st9{fill:url(#SVGID_7_);}
	.st10{fill:url(#SVGID_8_);}
	.st11{fill:url(#SVGID_9_);}
	.st12{fill:url(#SVGID_10_);}
	.st13{opacity:0.18;fill:url(#SVGID_11_);}
	.st14{opacity:0.3;}
</style>
  <style
     type="text/css"
     id="style10296-3">
	.st0{fill:#75AADB;}
	.st1{fill:#4D4D4D;}
	.st2{fill:#FFFFFF;}
	.st3{fill:url(#SVGID_1_);}
	.st4{fill:url(#SVGID_2_);}
	.st5{fill:url(#SVGID_3_);}
	.st6{fill:url(#SVGID_4_);}
	.st7{fill:url(#SVGID_5_);}
	.st8{fill:url(#SVGID_6_);}
	.st9{fill:url(#SVGID_7_);}
	.st10{fill:url(#SVGID_8_);}
	.st11{fill:url(#SVGID_9_);}
	.st12{fill:url(#SVGID_10_);}
	.st13{opacity:0.18;fill:url(#SVGID_11_);}
	.st14{opacity:0.3;}
</style>
  <style
     type="text/css"
     id="style10296-7">
	.st0{fill:#75AADB;}
	.st1{fill:#4D4D4D;}
	.st2{fill:#FFFFFF;}
	.st3{fill:url(#SVGID_1_);}
	.st4{fill:url(#SVGID_2_);}
	.st5{fill:url(#SVGID_3_);}
	.st6{fill:url(#SVGID_4_);}
	.st7{fill:url(#SVGID_5_);}
	.st8{fill:url(#SVGID_6_);}
	.st9{fill:url(#SVGID_7_);}
	.st10{fill:url(#SVGID_8_);}
	.st11{fill:url(#SVGID_9_);}
	.st12{fill:url(#SVGID_10_);}
	.st13{opacity:0.18;fill:url(#SVGID_11_);}
	.st14{opacity:0.3;}
</style>
  <style
     type="text/css"
     id="style10296-4">
	.st0{fill:#75AADB;}
	.st1{fill:#4D4D4D;}
	.st2{fill:#FFFFFF;}
	.st3{fill:url(#SVGID_1_);}
	.st4{fill:url(#SVGID_2_);}
	.st5{fill:url(#SVGID_3_);}
	.st6{fill:url(#SVGID_4_);}
	.st7{fill:url(#SVGID_5_);}
	.st8{fill:url(#SVGID_6_);}
	.st9{fill:url(#SVGID_7_);}
	.st10{fill:url(#SVGID_8_);}
	.st11{fill:url(#SVGID_9_);}
	.st12{fill:url(#SVGID_10_);}
	.st13{opacity:0.18;fill:url(#SVGID_11_);}
	.st14{opacity:0.3;}
</style>
  <style
     type="text/css"
     id="style10296-9">
	.st0{fill:#75AADB;}
	.st1{fill:#4D4D4D;}
	.st2{fill:#FFFFFF;}
	.st3{fill:url(#SVGID_1_);}
	.st4{fill:url(#SVGID_2_);}
	.st5{fill:url(#SVGID_3_);}
	.st6{fill:url(#SVGID_4_);}
	.st7{fill:url(#SVGID_5_);}
	.st8{fill:url(#SVGID_6_);}
	.st9{fill:url(#SVGID_7_);}
	.st10{fill:url(#SVGID_8_);}
	.st11{fill:url(#SVGID_9_);}
	.st12{fill:url(#SVGID_10_);}
	.st13{opacity:0.18;fill:url(#SVGID_11_);}
	.st14{opacity:0.3;}
</style>
  <style
     type="text/css"
     id="style10296-2">
	.st0{fill:#75AADB;}
	.st1{fill:#4D4D4D;}
	.st2{fill:#FFFFFF;}
	.st3{fill:url(#SVGID_1_);}
	.st4{fill:url(#SVGID_2_);}
	.st5{fill:url(#SVGID_3_);}
	.st6{fill:url(#SVGID_4_);}
	.st7{fill:url(#SVGID_5_);}
	.st8{fill:url(#SVGID_6_);}
	.st9{fill:url(#SVGID_7_);}
	.st10{fill:url(#SVGID_8_);}
	.st11{fill:url(#SVGID_9_);}
	.st12{fill:url(#SVGID_10_);}
	.st13{opacity:0.18;fill:url(#SVGID_11_);}
	.st14{opacity:0.3;}
</style>
</svg>
