<?xml version="1.0" encoding="UTF-8" standalone="no"?>
<svg
   width="146.15871"
   height="20"
   role="img"
   aria-label="Buy Me A Coffee: Donate"
   version="1.1"
   id="svg30"
   xmlns="http://www.w3.org/2000/svg"
   xmlns:svg="http://www.w3.org/2000/svg"
   xmlns:rdf="http://www.w3.org/1999/02/22-rdf-syntax-ns#"
   xmlns:cc="http://creativecommons.org/ns#"
   xmlns:dc="http://purl.org/dc/elements/1.1/">
  <defs
     id="defs34">
    <linearGradient
       id="workflow-fill"
       x1="19.179085"
       y1="0"
       x2="19.179085"
       y2="38.35817"
       gradientTransform="scale(1.9179085,0.52140129)"
       gradientUnits="userSpaceOnUse">
      <stop
         stop-color="#444D56"
         offset="0%"
         id="stop1025" />
      <stop
         stop-color="#24292E"
         offset="100%"
         id="stop1027" />
    </linearGradient>
    <linearGradient
       id="state-fill"
       x1="0.5"
       y1="0"
       x2="0.5"
       y2="1">
      <stop
         stop-color="#D73A49"
         offset="0%"
         id="stop1030" />
      <stop
         stop-color="#CB2431"
         offset="100%"
         id="stop1032" />
    </linearGradient>
  </defs>
  <title
     id="title2">Buy Me A Coffee: Donate</title>
  <linearGradient
     id="s"
     x2="0"
     y2="54.772255"
     gradientTransform="matrix(2.7386128,0,0,0.36514837,-5.5656844,18.995008)"
     x1="0"
     y1="0"
     gradientUnits="userSpaceOnUse">
    <stop
       offset="0"
       stop-color="#bbb"
       stop-opacity=".1"
       id="stop4" />
    <stop
       offset="1"
       stop-opacity=".1"
       id="stop6" />
  </linearGradient>
  <clipPath
     id="r">
    <rect
       width="150"
       height="20"
       rx="3"
       fill="#ffffff"
       id="rect9"
       x="0"
       y="0" />
  </clipPath>
  <metadata
     id="metadata851">
    <rdf:RDF>
      <cc:Work
         rdf:about="">
        <dc:title>Buy Me A Coffee: Donate</dc:title>
      </cc:Work>
    </rdf:RDF>
  </metadata>
  <path
     id="workflow-bg"
     d="M 0,3 C 0,1.3431 1.3552,0 3.027027,0 H 97.158704 V 20 H 3.027027 C 1.3552,20 0,18.6569 0,17 Z"
     fill="url(#workflow-fill)"
     fill-rule="nonzero"
     style="font-size:11px;font-family:'DejaVu Sans', Verdana, Geneva, sans-serif;fill:url(#workflow-fill)" />
  <path
     d="M 97.158701,0 H 143.6287 c 1.399,0 2.53,1.343 2.53,3 v 14 c 0,1.657 -1.132,3 -2.53,3 H 97.158701 Z"
     id="state-bg"
     fill="url(#state-fill)"
     fill-rule="nonzero"
     style="font-size:11px;font-family:'DejaVu Sans', Verdana, Geneva, sans-serif;fill:#dfb317;fill-opacity:1" />
  <text
     fill="#010101"
     fill-opacity="0.3"
     aria-hidden="true"
     id="text1051"
     style="font-size:11px;font-family:'DejaVu Sans', Verdana, Geneva, sans-serif;fill-rule:evenodd"
     x="96.415047"><tspan
       x="101.41505"
       y="15"
       id="tspan1049">Donate</tspan></text>
  <text
     fill="#ffffff"
     id="text1055"
     style="font-size:11px;font-family:'DejaVu Sans', Verdana, Geneva, sans-serif;fill-rule:evenodd"
     x="96.415047"><tspan
       x="101.41505"
       y="14"
       id="tspan1053">Donate</tspan></text>
  <path
     d="m 14.022205,6.170413 -0.0094,-0.0055 -0.02166,-0.0066 c 0.0087,0.0074 0.01963,0.01162 0.03102,0.01212 z"
     fill="#0d0c22"
     id="path1087"
     style="stroke-width:0.014941" />
  <path
     d="m 14.158586,7.144956 -0.01046,0.0029 z"
     fill="#0d0c22"
     id="path1089"
     style="stroke-width:0.014941" />
  <path
     d="m 14.026209,6.168904 c -0.0013,-1.65e-4 -0.0026,-4.78e-4 -0.0039,-9.27e-4 -7.5e-5,8.67e-4 -7.5e-5,0.0017 0,0.0026 0.0014,-1.79e-4 0.0028,-7.62e-4 0.0039,-0.0017 z"
     fill="#0d0c22"
     id="path1091"
     style="stroke-width:0.014941" />
  <path
     d="m 14.022249,6.170532 h 0.0014 v -8.66e-4 z"
     fill="#0d0c22"
     id="path1093"
     style="stroke-width:0.014941" />
  <path
     d="m 14.150219,7.143193 0.01578,-0.009 0.0059,-0.0033 0.0053,-0.0057 c -0.01001,0.0043 -0.01916,0.01041 -0.02698,0.01799 z"
     fill="#0d0c22"
     id="path1095"
     style="stroke-width:0.014941" />
  <path
     d="m 14.049517,6.191704 -0.01542,-0.01467 -0.01046,-0.0057 c 0.0056,0.0099 0.01491,0.01723 0.02588,0.02036 z"
     fill="#0d0c22"
     id="path1097"
     style="stroke-width:0.014941" />
  <path
     d="m 10.171007,15.648443 c -0.01231,0.0053 -0.0231,0.01366 -0.03138,0.02422 l 0.0097,-0.0062 c 0.0066,-0.0061 0.01596,-0.01321 0.02165,-0.01797 z"
     fill="#0d0c22"
     id="path1099"
     style="stroke-width:0.014941" />
  <path
     d="m 12.423217,15.205322 c 0,-0.01396 -0.0068,-0.01139 -0.0051,0.03817 0,-0.004 0.0016,-0.0081 0.0024,-0.01194 9.27e-4,-0.0088 0.0017,-0.01744 0.0027,-0.02624 z"
     fill="#0d0c22"
     id="path1101"
     style="stroke-width:0.014941" />
  <path
     d="m 12.189614,15.648443 c -0.01231,0.0053 -0.0231,0.01366 -0.03138,0.02422 l 0.0097,-0.0062 c 0.0066,-0.0061 0.01596,-0.01321 0.02165,-0.01797 z"
     fill="#0d0c22"
     id="path1103"
     style="stroke-width:0.014941" />
  <path
     d="m 8.584898,15.753792 c -0.0094,-0.0081 -0.0208,-0.01348 -0.03303,-0.01542 0.0099,0.0048 0.01981,0.0095 0.02642,0.01322 z"
     fill="#0d0c22"
     id="path1105"
     style="stroke-width:0.014941" />
  <path
     d="m 8.227987,15.412001 c -0.0014,-0.01446 -0.0059,-0.02845 -0.01303,-0.0411 0.0051,0.01318 0.0093,0.02665 0.01267,0.04037 z"
     fill="#0d0c22"
     id="path1107"
     style="stroke-width:0.014941" />
  <path
     d="m 6.423903,7.115522 0.0084,0.0079 0.0055,0.0033 c -0.0042,-0.0042 -0.0089,-0.008 -0.01395,-0.01121 z"
     fill="#0d0c22"
     id="path1111"
     style="stroke-width:0.014941" />
  <path
     d="M 10.625394,9.298793 C 10.135418,9.50855 9.579358,9.746382 8.858708,9.746382 8.557228,9.745784 8.257212,9.704412 7.966818,9.623432 l 0.498433,5.117314 c 0.01763,0.213881 0.115076,0.413314 0.272957,0.55869 0.157882,0.145376 0.364666,0.226043 0.579279,0.226013 0,0 0.706725,0.03671 0.942539,0.03671 0.253803,0 1.014839,-0.03671 1.014839,-0.03671 0.214583,-1.5e-5 0.421322,-0.08071 0.579159,-0.226073 0.157851,-0.145376 0.255252,-0.344779 0.272897,-0.55863 L 12.660764,9.085914 C 12.422201,9.004424 12.181426,8.950294 11.910008,8.950294 11.440576,8.9501 11.062344,9.111792 10.625394,9.298793 Z"
     fill="#ffdd00"
     id="path1109"
     style="fill:#dfb317;fill-opacity:1;stroke-width:0.014941" />
  <path
     d="m 14.965655,6.643221 -0.07505,-0.37859 C 14.823255,5.924947 14.670389,5.603984 14.32171,5.481199 14.209936,5.441929 14.083132,5.425049 13.99743,5.343756 13.91173,5.262466 13.886404,5.136195 13.866592,5.019118 13.829882,4.804221 13.795382,4.589145 13.757761,4.37461 13.725281,4.190176 13.699581,3.982989 13.614985,3.813788 13.504885,3.586596 13.276407,3.453732 13.049213,3.365828 12.932793,3.322368 12.813982,3.285608 12.693378,3.255719 12.125769,3.10597 11.528965,3.050916 10.945025,3.019535 10.244127,2.980855 9.541361,2.992515 8.842121,3.054405 8.321681,3.101755 7.773524,3.159009 7.278947,3.339036 7.09819,3.404916 6.911918,3.484013 6.774465,3.623669 6.605815,3.795254 6.55076,4.060617 6.6739,4.274595 c 0.08754,0.151952 0.235815,0.2593 0.393087,0.33033 0.204848,0.09151 0.418788,0.161139 0.638272,0.20774 0.611103,0.135066 1.244049,0.188107 1.868359,0.210668 0.691964,0.02792 1.385048,0.0053 2.073724,-0.06771 0.170298,-0.01872 0.340297,-0.04116 0.509982,-0.06735 0.199851,-0.03064 0.328135,-0.291962 0.269222,-0.474016 -0.07048,-0.217649 -0.259854,-0.302065 -0.474018,-0.269216 -0.03157,0.005 -0.06295,0.0095 -0.09452,0.01413 l -0.02276,0.0033 c -0.07255,0.0092 -0.145093,0.01774 -0.217646,0.02569 -0.149874,0.01615 -0.300106,0.02936 -0.450711,0.03964 -0.337309,0.02349 -0.675528,0.03432 -1.013554,0.03487 -0.332169,0 -0.664502,-0.0094 -0.995939,-0.0312 C 9.00618,4.221571 8.855336,4.208961 8.70485,4.193671 8.6364,4.186471 8.56814,4.178991 8.499859,4.170551 l -0.06496,-0.0083 -0.01412,-0.002 -0.06735,-0.0097 c -0.137636,-0.02074 -0.275273,-0.0446 -0.411446,-0.07341 -0.01373,-0.0031 -0.02603,-0.01069 -0.03484,-0.02167 -0.0088,-0.01098 -0.01361,-0.02463 -0.01361,-0.03871 0,-0.01408 0.0048,-0.02773 0.01361,-0.03871 0.0088,-0.01098 0.02111,-0.01862 0.03484,-0.02167 h 0.0026 c 0.118004,-0.02514 0.23692,-0.04661 0.356209,-0.06533 0.03976,-0.0062 0.07964,-0.01236 0.119648,-0.01835 h 0.0011 c 0.07469,-0.005 0.149739,-0.01835 0.224071,-0.02716 0.646647,-0.06726 1.297134,-0.09019 1.946904,-0.06863 0.315465,0.0092 0.630751,0.02771 0.944736,0.05964 0.06753,0.007 0.134708,0.01431 0.201868,0.02257 0.0257,0.0031 0.05156,0.0068 0.07744,0.0099 l 0.05213,0.0075 c 0.15195,0.02264 0.303093,0.0501 0.45346,0.0824 0.222785,0.04845 0.508891,0.06423 0.60798,0.308305 0.03157,0.07744 0.04588,0.163513 0.06332,0.244811 l 0.0222,0.103691 c 5.83e-4,0.0019 10e-4,0.0038 0.0013,0.0057 0.05249,0.24469 0.105035,0.489379 0.157643,0.734068 0.0039,0.01808 0.0039,0.03675 2.69e-4,0.05486 -0.0037,0.01811 -0.01106,0.03528 -0.02166,0.05041 -0.01061,0.01514 -0.02422,0.02793 -0.04,0.03756 -0.01576,0.0096 -0.03335,0.01593 -0.05165,0.01847 h -0.0015 l -0.03211,0.0044 -0.03175,0.0042 c -0.100568,0.01309 -0.201256,0.02532 -0.302063,0.03669 -0.198566,0.02264 -0.397431,0.04221 -0.59661,0.05873 -0.395772,0.0329 -0.792352,0.05449 -1.189723,0.06477 -0.202481,0.0054 -0.404902,0.0079 -0.607248,0.0075 C 9.495092,5.692443 8.690338,5.645636 7.890247,5.552879 7.803637,5.542599 7.71702,5.531589 7.630392,5.520399 c 0.06717,0.0086 -0.04881,-0.0066 -0.0723,-0.0099 C 7.503032,5.502799 7.447977,5.494769 7.392934,5.486459 7.208128,5.458739 7.02443,5.424599 6.839997,5.394689 6.617026,5.357999 6.403782,5.376339 6.202099,5.486459 6.036548,5.577049 5.902557,5.715968 5.818002,5.884682 5.731012,6.064528 5.70514,6.26033 5.666235,6.453577 c -0.0389,0.193247 -0.09947,0.401166 -0.07653,0.599538 0.04937,0.42815 0.348679,0.776096 0.779205,0.853909 0.405018,0.07341 0.812231,0.132856 1.220554,0.183506 1.603978,0.196444 3.224422,0.219947 4.83342,0.0701 0.131033,-0.01224 0.261871,-0.02556 0.392545,-0.04 0.0408,-0.0045 0.0821,2.09e-4 0.120858,0.01376 0.03876,0.01354 0.074,0.03557 0.103138,0.0645 0.02914,0.02893 0.05144,0.06401 0.06526,0.10266 0.01382,0.03867 0.01882,0.07993 0.01464,0.120768 l -0.04074,0.396027 c -0.08209,0.800256 -0.164187,1.600437 -0.246273,2.400558 -0.08564,0.840254 -0.171837,1.680447 -0.258584,2.52058 -0.02446,0.236606 -0.04893,0.473168 -0.07341,0.709654 -0.02349,0.232886 -0.02679,0.473107 -0.07101,0.703229 -0.06973,0.361887 -0.314733,0.584134 -0.672212,0.665428 -0.327507,0.07453 -0.662081,0.113657 -0.997955,0.11672 -0.37236,0.002 -0.744526,-0.01451 -1.116871,-0.01249 -0.397491,0.0022 -0.884359,-0.0345 -1.191203,-0.330316 C 8.181486,15.331839 8.144238,14.924995 8.107528,14.573193 8.058598,14.107437 8.010078,13.641725 7.962002,13.176088 L 7.692242,10.586884 7.517716,8.911578 c -0.0029,-0.02772 -0.0059,-0.05506 -0.0086,-0.08295 C 7.488186,8.628777 7.346692,8.433154 7.123728,8.443239 6.932872,8.451639 6.715957,8.613911 6.738346,8.828628 l 0.129378,1.242032 0.267568,2.569213 c 0.07621,0.729764 0.152249,1.459678 0.228104,2.189696 0.01469,0.139833 0.02845,0.28004 0.04387,0.419873 0.08386,0.764158 0.667446,1.175978 1.390128,1.29195 0.422084,0.06791 0.854432,0.08185 1.282761,0.08882 0.549083,0.0088 1.103663,0.02991 1.643751,-0.06955 0.800301,-0.146811 1.400766,-0.681206 1.486467,-1.510149 0.02447,-0.239295 0.04893,-0.478665 0.07341,-0.718095 0.08135,-0.7918 0.162588,-1.583674 0.243703,-2.375592 L 13.792853,9.36925 13.914518,8.183381 c 0.0061,-0.05879 0.0309,-0.114089 0.07082,-0.157687 0.03994,-0.04358 0.09283,-0.07317 0.150875,-0.08437 0.228836,-0.04458 0.447588,-0.120754 0.61037,-0.294906 0.259122,-0.27729 0.310684,-0.638818 0.21911,-1.003275 z M 6.357154,6.899042 c 0.0035,-0.0017 -0.0029,0.02827 -0.0057,0.04221 -5.51e-4,-0.0211 5.5e-4,-0.03982 0.0057,-0.04221 z m 0.02221,0.171776 c 0.0018,-0.0013 0.0073,0.0061 0.01303,0.01485 -0.0086,-0.0081 -0.01413,-0.01412 -0.01321,-0.01485 z m 0.02184,0.02881 c 0.0079,0.0134 0.01211,0.02184 0,0 z m 0.04386,0.0356 h 0.0011 c 0,0.0013 0.002,0.0026 0.0028,0.0039 -0.0012,-0.0014 -0.0026,-0.0027 -0.004,-0.0039 z m 7.680464,-0.05322 C 14.043318,7.160178 13.919446,7.196516 13.797034,7.214685 12.424343,7.41839 11.031661,7.521528 9.643909,7.476018 8.650735,7.442058 7.668004,7.331762 6.684734,7.192856 6.588384,7.179276 6.483968,7.161646 6.41772,7.090629 6.29293,6.956668 6.35422,6.686893 6.3867,6.525037 6.41643,6.376762 6.47332,6.179108 6.649677,6.158011 c 0.275274,-0.0323 0.594953,0.08386 0.867298,0.125161 0.327881,0.05004 0.656972,0.09009 0.987303,0.1202 1.40976,0.128448 2.843201,0.108457 4.246716,-0.07947 0.25582,-0.03438 0.510729,-0.07432 0.764711,-0.119827 0.226282,-0.04057 0.477141,-0.116719 0.613867,0.117631 0.09377,0.159659 0.106245,0.373271 0.09175,0.553669 -0.0045,0.07859 -0.0388,0.152518 -0.09598,0.206634 z"
     fill="#0d0c22"
     id="path1113"
     style="fill:#ffffff;stroke-width:0.014941" />
  <path
     fill-rule="evenodd"
     clip-rule="evenodd"
     d="m 22.683389,11.537661 c -0.121632,0.232384 -0.289118,0.43472 -0.501983,0.606444 -0.213094,0.171836 -0.461591,0.311742 -0.745715,0.419469 -0.283897,0.107977 -0.569838,0.180416 -0.857141,0.217361 -0.287528,0.03706 -0.566661,0.03386 -0.837033,-0.01018 -0.270531,-0.04373 -0.500668,-0.132978 -0.689842,-0.267876 l 0.213116,-2.213633 c 0.196027,-0.06733 0.44273,-0.136456 0.740517,-0.207238 0.297514,-0.07064 0.603425,-0.1212978 0.91796,-0.1515692 0.314534,-0.030393 0.612048,-0.026808 0.892996,0.010177 0.280266,0.037061 0.501984,0.1263102 0.664243,0.2678992 0.08782,0.08079 0.162488,0.168365 0.223307,0.262747 0.06082,0.09438 0.09803,0.192102 0.111653,0.293157 0.03358,0.283013 -0.01018,0.540768 -0.132082,0.773265 z M 19.589243,6.8222547 c 0.142107,-0.087579 0.312809,-0.165165 0.512286,-0.2326111 0.199478,-0.067195 0.404175,-0.114539 0.613865,-0.1414536 0.209461,-0.026808 0.414158,-0.030393 0.613863,-0.010177 0.199252,0.020262 0.375354,0.075792 0.527402,0.1667082 0.152274,0.091042 0.265516,0.222512 0.339724,0.3942128 0.07444,0.1719726 0.09485,0.3893325 0.06104,0.6520798 -0.027,0.2088952 -0.110058,0.3858604 -0.248495,0.5306465 -0.138659,0.1450383 -0.307954,0.2662194 -0.507204,0.3639384 -0.199705,0.097862 -0.410983,0.1753081 -0.634062,0.2323604 -0.223306,0.057459 -0.438214,0.099654 -0.644274,0.1264471 -0.206284,0.027051 -0.385564,0.043987 -0.537612,0.050518 -0.152253,0.00684 -0.252127,0.010177 -0.299352,0.010177 z m 4.189798,3.2850463 C 23.67079,9.8716048 23.525551,9.664388 23.342868,9.4856077 23.16041,9.3071221 22.943687,9.1774732 22.693602,9.096547 22.801853,9.008953 22.908284,8.870859 23.013129,8.6820921 23.117977,8.4935758 23.207614,8.2878808 23.282048,8.0655283 23.356258,7.8430163 23.407083,7.6191206 23.434096,7.393296 23.461106,7.1676065 23.450896,6.9738257 23.403916,6.8119977 23.288633,6.4077998 23.107764,6.091041 22.860857,5.8618809 22.613951,5.6328559 22.326647,5.4744773 21.998723,5.3867663 c -0.32815,-0.087321 -0.689887,-0.1060485 -1.085437,-0.05553 -0.395779,0.050533 -0.799952,0.1499138 -1.21232,0.2981721 0,-0.033613 0.0033,-0.069018 0.01018,-0.1060637 0.0065,-0.036924 0.01003,-0.075777 0.01003,-0.1163009 0,-0.1010514 -0.0507,-0.1885164 -0.152116,-0.2627473 -0.101416,-0.074137 -0.218155,-0.1178502 -0.349936,-0.1314442 -0.131915,-0.013366 -0.260501,0.015189 -0.385589,0.085923 -0.125216,0.07078 -0.21146,0.200681 -0.258685,0.3890607 -0.05419,0.6065573 -0.108251,1.2367151 -0.162305,1.8902241 -0.05416,0.653737 -0.111577,1.3141691 -0.17245,1.9813861 -0.06089,0.6670798 -0.121754,1.3291678 -0.182638,1.9861278 -0.06086,0.657095 -0.121754,1.288796 -0.182617,1.895217 0.02034,0.18198 0.07105,0.323545 0.152253,0.424599 0.08108,0.101189 0.175808,0.161851 0.284033,0.181981 0.108114,0.02026 0.221514,0.0015 0.339792,-0.05567 0.118261,-0.05705 0.221492,-0.1567 0.30952,-0.298149 0.270395,0.148227 0.574786,0.244297 0.913035,0.288141 0.338136,0.04373 0.681264,0.04373 1.029612,0 0.348121,-0.04385 0.691477,-0.12631 1.029612,-0.247747 0.338136,-0.121192 0.645863,-0.272892 0.92318,-0.454737 0.277316,-0.181958 0.510608,-0.38931 0.700099,-0.621693 0.189265,-0.23261 0.314307,-0.483579 0.375354,-0.752999 0.06082,-0.276341 0.07761,-0.552569 0.05061,-0.828933 -0.02701,-0.276204 -0.09463,-0.532165 -0.202881,-0.768271 z"
     fill="#0d0c23"
     id="path1115"
     style="fill:#ffffff;stroke-width:0.0226937" />
  <path
     fill-rule="evenodd"
     clip-rule="evenodd"
     d="m 33.675754,15.444242 c -0.03721,0.222376 -0.08987,0.456528 -0.157267,0.70262 -0.06785,0.245817 -0.147286,0.469985 -0.23851,0.672209 -0.09122,0.202109 -0.192669,0.365345 -0.304096,0.490138 -0.111881,0.12464 -0.231929,0.176965 -0.360375,0.156813 -0.101446,-0.01367 -0.165665,-0.07771 -0.192669,-0.19208 -0.02701,-0.114782 -0.02701,-0.256234 0,-0.424598 0.02701,-0.1685 0.07942,-0.358946 0.157267,-0.571178 0.07762,-0.212231 0.172472,-0.422918 0.283897,-0.631701 0.111881,-0.209009 0.238511,-0.409325 0.380574,-0.601428 0.142061,-0.191966 0.290705,-0.352138 0.446385,-0.480107 0.03381,0.0404 0.04901,0.141423 0.04561,0.303279 -0.0036,0.161692 -0.02383,0.353793 -0.06082,0.576033 z m 3.439002,-4.38687 c -0.09123,-0.101051 -0.202882,-0.158243 -0.334734,-0.171836 -0.131854,-0.01352 -0.265514,0.06066 -0.400769,0.222375 -0.08805,0.161692 -0.199478,0.316735 -0.334732,0.46497 -0.135485,0.14838 -0.275728,0.283037 -0.421194,0.404333 -0.145236,0.121192 -0.283898,0.225825 -0.415749,0.313287 -0.131855,0.08772 -0.235107,0.151706 -0.309541,0.192102 -0.02701,-0.215567 -0.04221,-0.448064 -0.04561,-0.69749 -0.0036,-0.249289 0.0015,-0.501916 0.0152,-0.757991 0.0202,-0.36394 0.06241,-0.731077 0.126857,-1.1018246 0.06422,-0.3706108 0.157267,-0.7345492 0.278905,-1.0918151 0,-0.1884935 -0.04402,-0.3418811 -0.131854,-0.4598422 -0.08805,-0.1178654 -0.194486,-0.1921024 -0.319528,-0.2223753 -0.125262,-0.030271 -0.253488,-0.013518 -0.385566,0.050518 -0.131854,0.064127 -0.245092,0.1804374 -0.339724,0.3486872 -0.08125,0.2224892 -0.174288,0.4717792 -0.278905,0.7480065 -0.105077,0.2763412 -0.223307,0.5576979 -0.355156,0.8440695 -0.131855,0.286599 -0.279132,0.564483 -0.441393,0.833924 -0.162259,0.269669 -0.339724,0.508974 -0.532619,0.717734 -0.192671,0.208895 -0.40236,0.372403 -0.628843,0.490251 -0.22671,0.117987 -0.471574,0.170179 -0.735503,0.156701 -0.12186,-0.03372 -0.209689,-0.12464 -0.263927,-0.273006 -0.05401,-0.148122 -0.08624,-0.333552 -0.09622,-0.555904 -0.01018,-0.222375 0,-0.466673 0.03041,-0.732892 0.03041,-0.266084 0.07104,-0.530647 0.121632,-0.793394 0.05084,-0.262884 0.106656,-0.5121739 0.16748,-0.7480065 0.06082,-0.2358326 0.11823,-0.4347214 0.172472,-0.5964355 0.08125,-0.1953027 0.08125,-0.3589458 0,-0.4902518 -0.08124,-0.1314442 -0.192669,-0.2189031 -0.334732,-0.2628839 -0.142061,-0.043729 -0.290933,-0.041936 -0.446385,0.00516 -0.155679,0.047176 -0.267331,0.1515694 -0.334731,0.3132866 -0.115056,0.2764764 -0.219903,0.5862908 -0.314535,0.9299642 -0.09485,0.3436947 -0.170884,0.6992822 -0.228298,1.0664209 -0.05764,0.367411 -0.08987,0.731349 -0.09645,1.091815 -4.54e-4,0.02347 6.82e-4,0.04578 6.82e-4,0.06912 -0.147514,0.391761 -0.28821,0.687867 -0.42165,0.885983 -0.172471,0.256234 -0.366956,0.367411 -0.583227,0.333552 -0.09485,-0.0404 -0.157267,-0.134634 -0.187677,-0.283012 -0.03064,-0.148122 -0.04084,-0.33008 -0.03064,-0.545919 0.01048,-0.215431 0.03563,-0.45973 0.07602,-0.732734 0.04084,-0.272892 0.09145,-0.555927 0.152274,-0.849061 0.06104,-0.2932942 0.125277,-0.5878362 0.192669,-0.8844652 0.06764,-0.2964695 0.128452,-0.576169 0.182911,-0.839053 -0.0068,-0.2358326 -0.07625,-0.4159981 -0.2081,-0.5407684 -0.131855,-0.1245181 -0.316351,-0.1733791 -0.552818,-0.1465723 -0.162261,0.067439 -0.282537,0.1551571 -0.360377,0.262884 -0.07784,0.1077344 -0.140238,0.2459544 -0.18745,0.414341 -0.02723,0.087715 -0.06785,0.2628839 -0.12186,0.5257678 -0.05424,0.2626334 -0.123455,0.5643688 -0.207874,0.9045928 -0.08465,0.3404503 -0.184273,0.6958103 -0.29933,1.0664213 -0.115055,0.370588 -0.243503,0.706068 -0.385338,1.005761 -0.142289,0.299806 -0.297741,0.540768 -0.466809,0.722749 -0.169069,0.181821 -0.351752,0.256075 -0.547825,0.222352 -0.108251,-0.02026 -0.177465,-0.131444 -0.207875,-0.333551 -0.03041,-0.202224 -0.03563,-0.451378 -0.0152,-0.748007 0.0202,-0.296471 0.06082,-0.621693 0.121633,-0.975374 0.06082,-0.353795 0.123227,-0.689002 0.187676,-1.0058753 0.06422,-0.316622 0.123455,-0.5964354 0.177691,-0.838939 0.05401,-0.242619 0.09122,-0.4043346 0.111425,-0.485124 0,-0.1954379 -0.04403,-0.3520015 -0.131854,-0.4701221 C 25.700042,7.9122714 25.593607,7.8380192 25.468564,7.8076324 25.343302,7.777361 25.21485,7.7941143 25.083,7.8581505 c -0.131854,0.064127 -0.245091,0.1804374 -0.339952,0.3486888 -0.03381,0.1819577 -0.07784,0.392668 -0.131854,0.6318133 -0.05424,0.2391696 -0.106428,0.485124 -0.157041,0.7378861 -0.05084,0.2527621 -0.09827,0.5003723 -0.142061,0.7430143 -0.04403,0.242617 -0.07625,0.454849 -0.09645,0.636807 -0.01367,0.141454 -0.02883,0.315079 -0.04561,0.520525 -0.01703,0.205695 -0.02541,0.422919 -0.02541,0.651966 0,0.229275 0.0168,0.456643 0.05084,0.682331 0.03358,0.225825 0.09463,0.433064 0.182457,0.621581 0.08782,0.188765 0.211279,0.343672 0.370361,0.464992 0.158857,0.121299 0.360148,0.188631 0.603653,0.202223 0.250084,0.01337 0.46817,-0.005 0.654258,-0.05567 0.186089,-0.05052 0.35493,-0.129758 0.507204,-0.237602 0.152274,-0.107613 0.290705,-0.23572 0.415975,-0.384091 0.12505,-0.148091 0.248496,-0.309814 0.37036,-0.485122 0.114828,0.256234 0.263701,0.454872 0.446385,0.596435 0.182458,0.141454 0.375354,0.225825 0.578235,0.252625 0.202656,0.02681 0.409168,-0.0015 0.618857,-0.08592 0.209463,-0.08413 0.398729,-0.227368 0.568023,-0.42959 0.111426,-0.124002 0.216498,-0.264927 0.314988,-0.420742 0.04175,0.07297 0.08624,0.143383 0.136396,0.208374 0.165889,0.21584 0.390785,0.363939 0.67491,0.444865 0.304094,0.08093 0.601609,0.09452 0.892542,0.04052 0.290705,-0.05387 0.568023,-0.151707 0.831723,-0.293157 0.263927,-0.14156 0.509019,-0.311607 0.735729,-0.510517 0.226484,-0.198773 0.424146,-0.405876 0.59344,-0.621693 -0.007,0.155043 -0.01018,0.301735 -0.01018,0.439735 0,0.138234 -0.0033,0.288005 -0.01018,0.449857 -0.338135,0.235947 -0.657663,0.518959 -0.958581,0.849061 -0.301145,0.330079 -0.564846,0.682218 -0.791328,1.056278 -0.226484,0.373946 -0.404175,0.753022 -0.532393,1.13709 -0.12868,0.384317 -0.191308,0.742991 -0.187905,1.076678 0.0033,0.333528 0.08284,0.624893 0.238284,0.874183 0.155678,0.249426 0.409167,0.427935 0.760919,0.535776 0.365368,0.114645 0.686484,0.11785 0.9638,0.01018 0.277317,-0.107871 0.519005,-0.286486 0.72529,-0.535776 0.206286,-0.249312 0.375355,-0.550799 0.507431,-0.904592 0.131854,-0.353817 0.236695,-0.722749 0.314307,-1.106816 0.07784,-0.384068 0.126857,-0.761737 0.147058,-1.132075 0.02043,-0.370747 0.02043,-0.701076 0,-0.99076 0.58164,-0.242505 1.058433,-0.549119 1.430384,-0.919844 0.371949,-0.37036 0.679675,-0.76135 0.923178,-1.172491 0.07444,-0.101036 0.09985,-0.222352 0.07625,-0.363803 -0.02383,-0.14156 -0.08125,-0.262884 -0.172471,-0.363938 z"
     fill="#0d0c23"
     id="path1117"
     style="fill:#ffffff;stroke-width:0.0226937" />
  <path
     fill-rule="evenodd"
     clip-rule="evenodd"
     d="m 49.911948,10.410557 c 0.0202,-0.154907 0.05061,-0.318415 0.09122,-0.4902522 0.0404,-0.171836 0.09123,-0.3386581 0.152275,-0.5003721 0.06059,-0.1617157 0.131626,-0.3014864 0.212867,-0.4194703 0.08125,-0.1178503 0.16748,-0.2020876 0.258708,-0.2527393 0.09145,-0.050397 0.184273,-0.045415 0.279132,0.015037 0.101446,0.060801 0.163848,0.188767 0.187676,0.3840681 0.02338,0.1957113 0,0.4044698 -0.07104,0.6268223 -0.07125,0.222512 -0.19789,0.4312705 -0.380573,0.6267085 -0.182458,0.195552 -0.429365,0.323408 -0.740494,0.384068 -0.01367,-0.09413 -0.01018,-0.218903 0.01018,-0.373946 z m 3.515025,0.414341 c -0.111653,-0.03348 -0.218087,-0.03692 -0.319528,-0.01002 -0.101446,0.02694 -0.165891,0.09772 -0.192669,0.212367 -0.05447,0.215568 -0.140466,0.436263 -0.258934,0.661953 -0.11823,0.225825 -0.263702,0.439735 -0.435946,0.641958 -0.172472,0.20211 -0.367184,0.380733 -0.583455,0.535639 -0.216497,0.155043 -0.442981,0.266242 -0.679675,0.333552 -0.236923,0.07426 -0.432996,0.08258 -0.588448,0.02526 -0.155451,-0.05705 -0.278905,-0.154908 -0.370134,-0.293022 -0.09122,-0.138112 -0.157266,-0.304934 -0.197889,-0.500372 -0.04061,-0.195438 -0.06445,-0.397526 -0.07104,-0.606558 0.385338,0.02705 0.728694,-0.04194 1.029838,-0.207238 0.300692,-0.164916 0.555996,-0.384068 0.765685,-0.65696 0.20969,-0.272891 0.368547,-0.579506 0.476795,-0.919842 0.108023,-0.340224 0.169068,-0.6788821 0.182683,-1.0159058 0.0065,-0.316736 -0.04062,-0.5844986 -0.142061,-0.8035156 C 51.940751,8.0032845 51.803687,7.832855 51.631214,7.7116708 51.458968,7.5903575 51.261081,7.5195699 51.037774,7.4994402 c -0.222852,-0.020262 -0.449789,0.010177 -0.679675,0.090905 -0.277318,0.094383 -0.512196,0.2476328 -0.704867,0.4600002 -0.192895,0.2122322 -0.353567,0.458299 -0.482013,0.7378618 -0.128452,0.2796995 -0.229886,0.5811859 -0.304322,0.9045928 -0.07444,0.323545 -0.128452,0.64196 -0.16226,0.955359 -0.03041,0.281221 -0.04675,0.550141 -0.05242,0.809688 -0.01458,0.03298 -0.0286,0.06463 -0.04403,0.0999 -0.104849,0.239419 -0.226709,0.473596 -0.365141,0.702619 -0.138659,0.229162 -0.292521,0.421264 -0.461589,0.576171 -0.169067,0.155043 -0.344943,0.208895 -0.527629,0.161715 -0.108023,-0.02681 -0.167252,-0.151706 -0.177463,-0.373946 -0.01002,-0.222489 0.0015,-0.498716 0.0354,-0.828933 0.03404,-0.330079 0.07285,-0.687481 0.116878,-1.07155 0.04381,-0.384068 0.06581,-0.7512066 0.06581,-1.1016876 0,-0.3032787 -0.05741,-0.5946204 -0.172473,-0.8744323 C 47.006935,8.4682499 46.849666,8.2356403 46.650416,8.0503456 46.450712,7.8648928 46.219235,7.7419164 45.955536,7.6813919 45.691608,7.6206213 45.407709,7.6611299 45.103387,7.8025836 44.798838,7.944174 44.55715,8.1429216 44.378097,8.3990191 44.198591,8.6552306 44.034515,8.9246731 43.885872,9.2076853 43.831633,8.9919824 43.752438,8.7916872 43.647588,8.6062572 43.542511,8.4209412 43.414296,8.2592484 43.262022,8.120998 43.109748,7.9830225 42.938864,7.8751802 42.749826,7.7975911 42.560334,7.7202495 42.36063,7.6813964 42.151166,7.6813964 c -0.202882,0 -0.390558,0.038853 -0.56303,0.1161947 -0.172471,0.077585 -0.329739,0.1768285 -0.471801,0.2981494 -0.142061,0.1214348 -0.270508,0.2577546 -0.385565,0.4094623 -0.114828,0.1515695 -0.216499,0.3016216 -0.304096,0.4497204 -0.01382,-0.1751729 -0.02906,-0.3283995 -0.04584,-0.4599774 -0.0168,-0.1313228 -0.04744,-0.2425051 -0.09122,-0.3334164 -0.04402,-0.091042 -0.106429,-0.1600357 -0.187677,-0.2072381 -0.08125,-0.04707 -0.196073,-0.07078 -0.344717,-0.07078 -0.07467,0 -0.149093,0.015189 -0.223306,0.045384 -0.07467,0.030393 -0.140694,0.072603 -0.197888,0.1264471 -0.05764,0.054118 -0.101446,0.1196425 -0.131854,0.197095 -0.03064,0.077448 -0.03881,0.1668433 -0.02541,0.2678993 0.0065,0.074228 0.02541,0.1633712 0.05582,0.267875 0.03041,0.1045296 0.05901,0.2410985 0.08624,0.4093271 0.02701,0.1685233 0.04901,0.3724031 0.06581,0.6115712 0.01703,0.239282 0.02201,0.532439 0.0152,0.879448 -0.0068,0.347146 -0.032,0.753022 -0.07602,1.217993 -0.04402,0.464993 -0.11346,1.004104 -0.207874,1.61722 -0.01367,0.14156 0.0404,0.256212 0.162261,0.343786 0.121632,0.08746 0.260295,0.137975 0.415975,0.151569 0.155452,0.01352 0.302733,-0.01352 0.441164,-0.08079 0.138659,-0.06756 0.218314,-0.18543 0.238511,-0.353794 0.0202,-0.316736 0.05924,-0.653623 0.11665,-1.01089 0.05741,-0.357017 0.128452,-0.710833 0.213094,-1.061293 0.08442,-0.350345 0.180642,-0.683896 0.289118,-1.000769 0.108023,-0.316734 0.228297,-0.5962988 0.360148,-0.8389163 0.131855,-0.2426418 0.26892,-0.4362631 0.410755,-0.5811859 0.142062,-0.1449015 0.290707,-0.2173599 0.446385,-0.2173599 0.189493,0 0.336321,0.085802 0.441393,0.2576422 0.10462,0.1719499 0.179052,0.392782 0.223078,0.6620878 0.04403,0.2696691 0.06422,0.5646181 0.06104,0.8845771 -0.0036,0.320072 -0.01703,0.628366 -0.04062,0.924835 -0.02383,0.296629 -0.05084,0.561033 -0.08124,0.793531 -0.03041,0.232497 -0.05242,0.392668 -0.06581,0.48013 0,0.155043 0.05901,0.277884 0.177238,0.36893 0.118458,0.09094 0.250311,0.144917 0.395778,0.161716 0.145463,0.01694 0.282308,-0.01018 0.410982,-0.08093 0.128452,-0.07078 0.202654,-0.190174 0.223079,-0.358809 0.06762,-0.485123 0.16067,-0.971902 0.278905,-1.460499 0.11823,-0.488571 0.253716,-0.926492 0.40599,-1.31403 0.152048,-0.387541 0.321115,-0.704277 0.507204,-0.9502314 0.185862,-0.2458406 0.383749,-0.3689537 0.593439,-0.3689537 0.108023,0 0.191082,0.074258 0.248497,0.2223753 0.05741,0.1482279 0.08624,0.3503458 0.08624,0.6064206 0,0.1887669 -0.0152,0.3825482 -0.04561,0.5812982 -0.03041,0.198775 -0.06581,0.404333 -0.106656,0.616566 -0.0404,0.212367 -0.07602,0.42959 -0.106428,0.651966 -0.03041,0.222489 -0.04561,0.454849 -0.04561,0.697468 0,0.168523 0.0168,0.363939 0.05061,0.586314 0.03381,0.222238 0.09803,0.433063 0.192669,0.631701 0.09485,0.198887 0.224895,0.367275 0.390786,0.505366 0.165663,0.138112 0.376942,0.207238 0.633834,0.207238 0.385565,0 0.727106,-0.08258 1.024847,-0.247633 0.297513,-0.165028 0.552818,-0.380596 0.765911,-0.646815 0.01094,-0.01397 0.0211,-0.02886 0.03177,-0.04271 0.01634,0.03937 0.03086,0.08103 0.04924,0.118503 0.145464,0.29647 0.343355,0.525495 0.593667,0.687345 0.249856,0.161693 0.544193,0.250948 0.882557,0.267877 0.338135,0.01668 0.706454,-0.04564 1.105863,-0.187087 0.297287,-0.107856 0.555995,-0.24264 0.775896,-0.404333 0.219675,-0.161714 0.417564,-0.358809 0.59344,-0.591306 0.175877,-0.232497 0.336321,-0.500372 0.482014,-0.803539 0.145463,-0.303414 0.292295,-0.650286 0.441166,-1.041275 0.02701,-0.107598 0.0015,-0.203654 -0.07602,-0.288029 -0.07784,-0.08413 -0.172471,-0.14311 -0.284124,-0.176966 z"
     fill="#0d0c23"
     id="path1119"
     style="fill:#ffffff;stroke-width:0.0226937" />
  <path
     fill-rule="evenodd"
     clip-rule="evenodd"
     d="m 58.940629,9.6975665 c -0.03404,0.1988872 -0.07965,0.4180405 -0.137064,0.6570725 -0.05764,0.239305 -0.130259,0.486916 -0.218086,0.743014 -0.08805,0.256099 -0.196072,0.486916 -0.32452,0.692362 -0.12868,0.205672 -0.275728,0.368931 -0.441391,0.490252 -0.165891,0.121298 -0.356745,0.171836 -0.573243,0.151569 -0.108251,-0.01337 -0.191081,-0.08746 -0.248496,-0.222375 -0.05764,-0.134634 -0.08805,-0.306614 -0.09145,-0.515509 -0.0033,-0.20876 0.0152,-0.437921 0.05582,-0.687347 0.04062,-0.249176 0.103254,-0.493588 0.187903,-0.73287 0.08442,-0.239032 0.187678,-0.4598645 0.309088,-0.6620888 0.12186,-0.2021088 0.262112,-0.358809 0.421194,-0.4699853 0.158857,-0.1111975 0.333145,-0.1632588 0.52241,-0.156723 0.189265,0.00683 0.392147,0.1010513 0.608871,0.2830365 -0.01382,0.087715 -0.03721,0.2309524 -0.07104,0.4295906 z m 3.606252,0.7732635 c -0.104848,-0.05386 -0.213093,-0.06554 -0.324518,-0.03527 -0.111653,0.03027 -0.191308,0.133115 -0.238511,0.308271 -0.027,0.188766 -0.08782,0.411006 -0.182457,0.667103 -0.09486,0.256099 -0.211505,0.498831 -0.349937,0.727742 -0.138887,0.22916 -0.297741,0.419583 -0.477021,0.571176 -0.17928,0.151706 -0.370134,0.22081 -0.573016,0.207103 -0.169295,-0.01337 -0.287756,-0.09926 -0.355156,-0.257641 -0.06785,-0.158357 -0.103254,-0.356995 -0.106428,-0.596435 -0.0036,-0.239033 0.0202,-0.508588 0.07081,-0.808531 0.05084,-0.299807 0.111653,-0.597956 0.182684,-0.894699 0.07104,-0.296355 0.143656,-0.5811842 0.218314,-0.8540761 0.07421,-0.272869 0.135028,-0.5037091 0.182457,-0.6923393 0.05424,-0.1685005 0.03721,-0.3116295 -0.05084,-0.4297273 -0.08782,-0.1177116 -0.19766,-0.2021068 -0.32951,-0.2526234 -0.132082,-0.050518 -0.265516,-0.063991 -0.400997,-0.040402 -0.135257,0.023603 -0.222853,0.096039 -0.2637,0.2172232 C 59.1501,7.9640304 58.76635,7.7787372 58.397804,7.7517997 58.029031,7.7248851 57.689081,7.8057809 57.378177,7.99444 c -0.311131,0.1886302 -0.586632,0.4615221 -0.826731,0.818788 -0.2401,0.3572674 -0.434584,0.7463281 -0.583454,1.1674767 -0.148638,0.4211273 -0.241688,0.8508543 -0.278905,1.2887753 -0.03721,0.438055 -0.0087,0.837395 0.08624,1.197863 0.09486,0.360466 0.261886,0.655415 0.502212,0.884326 0.239873,0.229162 0.566434,0.343811 0.979006,0.343811 0.182457,0 0.358333,-0.03706 0.5274,-0.111198 0.169069,-0.07423 0.324747,-0.161829 0.46681,-0.262884 0.141833,-0.101036 0.267105,-0.207217 0.375352,-0.318416 0.108024,-0.111182 0.192671,-0.203766 0.25349,-0.277997 0.04721,0.242618 0.125262,0.448314 0.23329,0.616678 0.108251,0.168388 0.231703,0.306751 0.370362,0.414341 0.138431,0.107735 0.284124,0.186973 0.436172,0.237626 0.152274,0.05052 0.299329,0.07578 0.441392,0.07578 0.317939,0 0.615226,-0.107841 0.89277,-0.323544 0.27709,-0.215431 0.525812,-0.480109 0.745714,-0.793394 0.219675,-0.313423 0.400544,-0.643502 0.542605,-0.990625 0.142061,-0.347009 0.236695,-0.655303 0.283899,-0.924972 0.04744,-0.101051 0.03904,-0.207101 -0.0252,-0.3183 -0.06445,-0.111183 -0.148866,-0.193623 -0.253716,-0.247749 z"
     fill="#0d0c23"
     id="path1121"
     style="fill:#ffffff;stroke-width:0.0226937" />
  <path
     fill-rule="evenodd"
     clip-rule="evenodd"
     d="m 80.80758,16.051161 c -0.05741,0.229048 -0.147059,0.422943 -0.268694,0.581186 -0.121632,0.158379 -0.273912,0.240962 -0.456596,0.247747 -0.114828,0.0067 -0.202882,-0.05398 -0.263701,-0.181958 -0.06082,-0.128103 -0.103026,-0.293157 -0.126857,-0.495267 -0.02383,-0.202223 -0.03381,-0.428047 -0.03041,-0.677339 0.0033,-0.24929 0.01367,-0.495243 0.03041,-0.737885 0.0168,-0.242482 0.03721,-0.468442 0.06104,-0.677224 0.02338,-0.20901 0.04198,-0.370475 0.05559,-0.4851 0.229887,0.02691 0.421195,0.126173 0.573243,0.298149 0.152274,0.171838 0.268692,0.375604 0.349936,0.61155 0.08125,0.235833 0.128452,0.490252 0.142061,0.763142 0.01337,0.272892 -0.0087,0.523862 -0.06604,0.752999 z m -3.672292,0 c -0.05741,0.229048 -0.147058,0.422943 -0.26892,0.581186 -0.121632,0.158379 -0.273686,0.240962 -0.45637,0.247747 -0.115055,0.0067 -0.202882,-0.05398 -0.263701,-0.181958 -0.06104,-0.128103 -0.103254,-0.293157 -0.126857,-0.495267 -0.02383,-0.202223 -0.03404,-0.428047 -0.03041,-0.677339 0.0032,-0.24929 0.01337,-0.495243 0.03041,-0.737885 0.0168,-0.242482 0.03699,-0.468442 0.06082,-0.677224 0.0236,-0.20901 0.04221,-0.370475 0.05582,-0.4851 0.229886,0.02691 0.421194,0.126173 0.573014,0.298149 0.152276,0.171838 0.26892,0.375604 0.350164,0.61155 0.08124,0.235833 0.128452,0.490252 0.142061,0.763142 0.01337,0.272892 -0.0087,0.523862 -0.06604,0.752999 z m -3.768513,-5.741296 c -0.007,0.161579 -0.02224,0.304822 -0.04584,0.429478 -0.02383,0.124883 -0.05582,0.20388 -0.09645,0.237603 -0.07444,-0.04051 -0.165891,-0.144765 -0.273912,-0.313399 -0.108251,-0.168389 -0.192671,-0.358948 -0.253716,-0.571178 -0.06059,-0.2122311 -0.07942,-0.4209911 -0.05561,-0.626686 0.02338,-0.2054458 0.13026,-0.3653464 0.319528,-0.48013 0.07421,-0.040387 0.138431,-0.025259 0.192669,0.045521 0.05424,0.07081 0.09804,0.1735158 0.132082,0.308294 0.03358,0.1348921 0.05719,0.2898213 0.07081,0.4649943 0.01367,0.1752853 0.0168,0.3436717 0.01048,0.5055017 z m -0.897988,2.016538 c -0.104849,0.111045 -0.221718,0.207103 -0.349938,0.288005 -0.12868,0.08093 -0.260523,0.14159 -0.395777,0.18198 -0.135257,0.04051 -0.25712,0.05052 -0.365141,0.03026 -0.304322,-0.06053 -0.53784,-0.192079 -0.699873,-0.39419 -0.162487,-0.202108 -0.265744,-0.439598 -0.309543,-0.71249 -0.04403,-0.273006 -0.03904,-0.564506 0.0152,-0.874455 0.05401,-0.309951 0.145236,-0.597956 0.273913,-0.8641754 0.128452,-0.266221 0.284124,-0.4953811 0.466581,-0.6873696 0.182684,-0.1920796 0.381936,-0.3116067 0.598659,-0.358923 -0.08124,0.3436734 -0.10825,0.6992822 -0.08124,1.066421 0.02701,0.367275 0.115056,0.712604 0.263929,1.036035 0.0944,0.195687 0.207873,0.374061 0.339725,0.535775 0.131854,0.161829 0.29252,0.299943 0.482013,0.414455 -0.05424,0.114645 -0.13389,0.227481 -0.23851,0.33868 z M 83.693989,10.41092 c 0.0202,-0.154907 0.05061,-0.318551 0.09122,-0.4903874 0.0404,-0.1717007 0.09122,-0.3385456 0.152048,-0.5002597 0.06082,-0.1618295 0.131854,-0.3015988 0.213093,-0.4194475 0.08125,-0.1178502 0.16748,-0.2022455 0.258707,-0.2527621 0.09122,-0.050518 0.184273,-0.045521 0.278907,0.015189 0.101446,0.060771 0.164074,0.188767 0.187676,0.3840682 0.0236,0.1955518 0,0.404333 -0.07104,0.6268222 -0.07104,0.2223526 -0.197662,0.4312703 -0.380345,0.6265733 -0.182458,0.195687 -0.429365,0.323543 -0.740496,0.384203 -0.01367,-0.09426 -0.01018,-0.218903 0.01018,-0.373946 z m 4.088267,0 c 0.0202,-0.154907 0.05061,-0.318551 0.09122,-0.4903874 0.04062,-0.1717007 0.09145,-0.3385456 0.152274,-0.5002597 0.06082,-0.1618295 0.131854,-0.3015988 0.212867,-0.4194475 0.08125,-0.1178502 0.167478,-0.2022455 0.258707,-0.2527621 0.09145,-0.050518 0.1845,-0.045521 0.279133,0.015189 0.101446,0.060771 0.163848,0.188767 0.187676,0.3840682 0.0236,0.1955518 0,0.404333 -0.07104,0.6268222 -0.07104,0.2223526 -0.197889,0.4312703 -0.380573,0.6265733 -0.182457,0.195687 -0.429364,0.323543 -0.740496,0.384203 -0.01337,-0.09426 -0.01018,-0.218903 0.01018,-0.373946 z m 3.799148,0.591306 c -0.07784,-0.08413 -0.172472,-0.143125 -0.283897,-0.176965 -0.111653,-0.03361 -0.218088,-0.03694 -0.319754,-0.01002 -0.101447,0.02691 -0.165665,0.09772 -0.192671,0.212232 -0.05424,0.21568 -0.140466,0.436377 -0.258707,0.661951 -0.118458,0.225962 -0.263701,0.439849 -0.436173,0.64196 -0.172471,0.20211 -0.366957,0.380868 -0.583228,0.535774 -0.216725,0.155043 -0.443207,0.266221 -0.679674,0.333416 -0.236924,0.0744 -0.432996,0.08272 -0.588674,0.0254 -0.155452,-0.05719 -0.278907,-0.154908 -0.370134,-0.293022 -0.09122,-0.138248 -0.157269,-0.304957 -0.19789,-0.500508 -0.0404,-0.195302 -0.06422,-0.397412 -0.07104,-0.606444 0.385566,0.02707 0.728922,-0.04194 1.02984,-0.207215 0.300691,-0.165051 0.556222,-0.384205 0.765911,-0.657095 0.209463,-0.272755 0.368545,-0.579371 0.476795,-0.919708 0.108023,-0.3403587 0.16884,-0.6789043 0.182684,-1.0159053 0.0064,-0.316736 -0.04084,-0.5846337 -0.14229,-0.8036736 C 89.811286,8.0035138 89.67422,7.8331968 89.50175,7.7120126 89.329277,7.5905778 89.131616,7.5199117 88.908309,7.499668 88.685231,7.479406 88.458521,7.509996 88.228633,7.590573 87.951316,7.685093 87.716438,7.8383198 87.523767,8.0505519 87.330872,8.2629193 87.1702,8.5090089 87.041754,8.7884366 86.913074,9.06825 86.81164,9.3695981 86.737205,9.6931433 c -0.07444,0.3234297 -0.128452,0.6419577 -0.162033,0.9552447 -0.0329,0.30405 -0.05084,0.595028 -0.05492,0.873548 -0.02564,0.05553 -0.05287,0.111319 -0.08239,0.167479 -0.11823,0.225961 -0.263701,0.439849 -0.436173,0.641959 -0.172245,0.20211 -0.366957,0.380868 -0.583227,0.535774 -0.216498,0.155044 -0.442982,0.266221 -0.679677,0.333417 -0.236922,0.0744 -0.432994,0.08272 -0.588446,0.0254 -0.155452,-0.05719 -0.278905,-0.154908 -0.370134,-0.293022 -0.09122,-0.138249 -0.157268,-0.304957 -0.197889,-0.500509 -0.04062,-0.195301 -0.06445,-0.397411 -0.07104,-0.606443 0.385338,0.02707 0.728694,-0.04194 1.029613,-0.207216 0.300918,-0.165051 0.556221,-0.384204 0.765911,-0.657095 0.209689,-0.272755 0.368545,-0.579371 0.476794,-0.919707 0.108023,-0.3403595 0.169069,-0.6789051 0.182684,-1.015906 0.0065,-0.316736 -0.04062,-0.5846338 -0.142061,-0.8036736 C 85.722775,8.0035093 85.58571,7.8331922 85.41324,7.712008 85.240767,7.5905732 85.043106,7.5199071 84.819799,7.4996634 c -0.223078,-0.020262 -0.449788,0.010328 -0.679676,0.090905 -0.277316,0.09452 -0.512195,0.2477467 -0.704866,0.4599789 -0.192895,0.2123673 -0.353567,0.458457 -0.482013,0.7378846 -0.128452,0.2798134 -0.229888,0.5811616 -0.304322,0.9047067 -0.07444,0.3234304 -0.128452,0.6419584 -0.16226,0.9552444 -0.01906,0.176717 -0.032,0.34803 -0.04153,0.516281 -0.06536,0.05539 -0.128908,0.111183 -0.196982,0.165937 -0.233064,0.188765 -0.478382,0.358809 -0.735276,0.510517 -0.257346,0.151706 -0.524451,0.276364 -0.801539,0.37406 -0.277544,0.09773 -0.561442,0.156723 -0.852149,0.176851 l 0.629069,-6.7118146 c 0.0404,-0.14156 0.0202,-0.2660827 -0.06082,-0.3739235 -0.08125,-0.1078711 -0.186314,-0.1819805 -0.31476,-0.2223753 -0.128452,-0.040539 -0.265516,-0.037061 -0.410757,0.010025 -0.145463,0.047313 -0.265516,0.1551555 -0.360148,0.3234069 -0.04744,0.2562115 -0.09645,0.6065573 -0.147059,1.0512851 -0.05084,0.4447278 -0.101446,0.9299871 -0.152274,1.4556182 -0.05061,0.525654 -0.101446,1.0681007 -0.152048,1.6273403 -0.05084,0.5594899 -0.09485,1.0816719 -0.131854,1.5667949 -0.0018,0.02155 -0.0032,0.04103 -0.0047,0.06234 -0.05924,0.05 -0.11665,0.100398 -0.177917,0.149898 -0.233292,0.188766 -0.47861,0.358809 -0.735503,0.510517 -0.25712,0.151706 -0.524224,0.276364 -0.801314,0.37406 -0.277544,0.09772 -0.561668,0.156723 -0.852375,0.176851 l 0.629069,-6.7118141 c 0.04063,-0.14156 0.02043,-0.2660827 -0.06082,-0.3739235 -0.08124,-0.1078711 -0.186088,-0.1819805 -0.314534,-0.2223752 -0.128452,-0.040539 -0.265516,-0.037061 -0.410983,0.010025 -0.145463,0.047313 -0.265289,0.1551555 -0.359922,0.3234069 -0.04744,0.2562115 -0.09645,0.6065573 -0.147058,1.0512851 -0.05084,0.4447278 -0.101674,0.9299871 -0.152275,1.4556183 -0.05084,0.5256539 -0.101446,1.0681007 -0.152274,1.6273402 -0.05061,0.5594893 -0.09463,1.0816713 -0.131854,1.5667943 -6.82e-4,0.0097 -0.0014,0.01861 -0.002,0.02834 -0.106428,0.04911 -0.222171,0.0922 -0.347894,0.128376 -0.12868,0.03717 -0.273913,0.05912 -0.436172,0.06577 0.02701,-0.121435 0.04879,-0.256212 0.06581,-0.404447 0.0168,-0.148122 0.03064,-0.303165 0.04062,-0.464993 0.01018,-0.161579 0.01337,-0.323408 0.01018,-0.485122 -0.0036,-0.1618295 -0.012,-0.3099511 -0.02541,-0.4448645 C 74.35742,9.2519137 74.29501,8.9772295 74.203781,8.7176826 74.112329,8.4583847 73.988871,8.2411372 73.833419,8.0657152 73.677741,7.8905422 73.483255,7.7725811 73.249965,7.7120338 73.016674,7.6514 72.74435,7.6715252 72.433447,7.7725766 71.973219,7.7120338 71.559058,7.7542133 71.190513,7.8990085 70.821968,8.0440468 70.50244,8.2544836 70.231932,8.530711 c -0.270509,0.2764764 -0.491999,0.601428 -0.664471,0.9755095 -0.172471,0.373925 -0.287528,0.7581285 -0.344943,1.1522045 -0.02451,0.167094 -0.03632,0.333415 -0.03995,0.499351 -0.104621,0.213639 -0.219222,0.400363 -0.345625,0.557062 -0.179054,0.222375 -0.365141,0.404333 -0.55781,0.545783 -0.192897,0.14156 -0.383977,0.249427 -0.573244,0.323544 -0.189491,0.07426 -0.35856,0.124776 -0.507203,0.15157 -0.175876,0.03372 -0.344944,0.0372 -0.507204,0.01018 -0.162259,-0.02681 -0.311357,-0.104362 -0.446385,-0.232474 -0.10825,-0.09428 -0.19108,-0.245978 -0.248495,-0.454873 -0.05764,-0.208895 -0.09122,-0.446271 -0.101446,-0.712604 -0.01018,-0.266219 0,-0.544239 0.03041,-0.833925 0.03041,-0.289685 0.08261,-0.564369 0.157268,-0.8238021 0.07421,-0.2594345 0.168841,-0.4919089 0.283898,-0.6976038 0.114827,-0.2053106 0.250084,-0.3520257 0.405762,-0.4396 0.08782,0.013518 0.142289,0.065646 0.162487,0.1565635 0.0202,0.091042 0.02518,0.1989101 0.0152,0.3235436 -0.01018,0.1247916 -0.02541,0.2527621 -0.04561,0.3840682 -0.02043,0.1314594 -0.03064,0.241097 -0.03064,0.3285589 0.03404,0.1819578 0.09985,0.3235437 0.197888,0.4245997 0.09804,0.101036 0.208102,0.160148 0.329739,0.176828 0.121633,0.01694 0.241688,-0.01169 0.360149,-0.08592 0.11823,-0.074 0.214682,-0.191966 0.289118,-0.3538164 0.0068,0.00684 0.0168,0.010177 0.03041,0.010177 L 68.223301,8.6319598 C 68.263916,8.4566729 68.236668,8.3017665 68.142056,8.1669883 68.04743,8.0322177 67.922382,7.9546209 67.766702,7.9344911 67.570629,7.651479 67.305113,7.5015651 66.970381,7.4846356 66.63565,7.4678367 66.292294,7.5773331 65.940769,7.8131718 65.724272,7.9683501 65.53319,8.1821027 65.367527,8.4549946 c -0.165891,0.273027 -0.300918,0.576169 -0.405764,0.9097205 -0.105076,0.3335516 -0.17928,0.6858039 -0.223078,1.0564149 -0.04403,0.37061 -0.05264,0.731212 -0.02564,1.081421 0.02701,0.350618 0.08987,0.680811 0.187903,0.990648 0.09782,0.310064 0.23488,0.569497 0.410982,0.778257 0.148638,0.18198 0.317485,0.315215 0.506978,0.399477 0.189265,0.08424 0.387153,0.136305 0.593439,0.156563 0.206286,0.02013 0.410983,0.0117 0.613865,-0.02526 0.202881,-0.03692 0.395777,-0.08911 0.578234,-0.156698 0.236696,-0.08746 0.480199,-0.198775 0.730511,-0.333552 0.250084,-0.134634 0.490183,-0.296494 0.720297,-0.485259 0.120736,-0.09924 0.237376,-0.207489 0.349936,-0.323544 0.05129,0.12669 0.108479,0.249313 0.177465,0.364074 0.182684,0.303165 0.429364,0.549233 0.740494,0.737886 0.310903,0.188629 0.693292,0.279426 1.146486,0.27289 0.487006,-0.0068 0.936568,-0.129652 1.349138,-0.368953 0.412571,-0.239032 0.750707,-0.591421 1.014634,-1.056277 0.395097,0 0.783614,-0.0649 1.165775,-0.193782 -0.0032,0.04078 -0.0064,0.08374 -0.0093,0.123106 -0.02701,0.357153 -0.04084,0.599635 -0.04084,0.727741 -0.0065,0.222375 -0.02155,0.496923 -0.04538,0.823667 -0.02383,0.32688 -0.03903,0.670552 -0.04561,1.031043 -0.0068,0.360466 0.0065,0.724404 0.0404,1.091815 0.03404,0.367138 0.104849,0.700804 0.213095,1.000746 0.108023,0.299692 0.261885,0.554111 0.461589,0.763143 0.199477,0.208782 0.461589,0.333552 0.786336,0.373947 0.344717,0.04707 0.642231,-0.01352 0.892543,-0.181981 0.250085,-0.1685 0.453193,-0.399205 0.608871,-0.692339 0.155452,-0.293294 0.26529,-0.631838 0.329513,-1.015906 0.06422,-0.384067 0.08282,-0.769929 0.05582,-1.157467 -0.02701,-0.387518 -0.09804,-0.752999 -0.213095,-1.096559 -0.115056,-0.343787 -0.273913,-0.626822 -0.476793,-0.849311 0.12186,-0.03348 0.267103,-0.09745 0.436398,-0.191966 0.168842,-0.09425 0.34313,-0.200431 0.52241,-0.318416 0.04402,-0.02898 0.08737,-0.05951 0.131398,-0.08925 -0.01657,0.238784 -0.02497,0.409077 -0.02497,0.508839 -0.0065,0.222375 -0.02178,0.496922 -0.04561,0.823666 -0.0236,0.326881 -0.03881,0.670553 -0.04561,1.031043 -0.0065,0.360467 0.0068,0.724405 0.04063,1.091815 0.03381,0.367139 0.104849,0.700804 0.212865,1.000746 0.108251,0.299693 0.262113,0.554112 0.461591,0.763144 0.199477,0.208781 0.461589,0.333551 0.786335,0.373946 0.344717,0.04707 0.642458,-0.01352 0.89277,-0.18198 0.250085,-0.168501 0.452967,-0.399206 0.608645,-0.69234 0.155451,-0.293293 0.265288,-0.631837 0.329739,-1.015906 0.06422,-0.384066 0.0826,-0.769928 0.05582,-1.157467 -0.02723,-0.387517 -0.09827,-0.752999 -0.213094,-1.096558 -0.115055,-0.343788 -0.273912,-0.626823 -0.477022,-0.849312 0.12186,-0.03348 0.267333,-0.09745 0.4364,-0.191966 0.169068,-0.09425 0.343129,-0.20043 0.522409,-0.318415 0.09328,-0.0613 0.185862,-0.124519 0.277997,-0.189537 0.03495,0.329579 0.109846,0.618629 0.229206,0.861746 0.145463,0.296629 0.34313,0.525654 0.59344,0.687484 0.250084,0.161579 0.544421,0.250968 0.882785,0.267762 0.338135,0.01668 0.706454,-0.04552 1.105863,-0.187087 0.297287,-0.107734 0.555995,-0.242505 0.775896,-0.404221 0.219675,-0.161828 0.417564,-0.358923 0.593441,-0.591283 0.01018,-0.01352 0.01975,-0.0281 0.02972,-0.04169 0.03132,0.09438 0.06604,0.185045 0.10734,0.269034 0.145463,0.296629 0.343128,0.525654 0.593438,0.687483 0.250085,0.161579 0.544422,0.250968 0.882557,0.267763 0.338137,0.01668 0.706682,-0.04552 1.105863,-0.187087 0.297515,-0.107735 0.556223,-0.242505 0.776124,-0.404221 0.219675,-0.161828 0.417338,-0.358923 0.593441,-0.591284 0.175648,-0.232632 0.336092,-0.500508 0.481787,-0.803673 0.145463,-0.303279 0.292294,-0.650151 0.441392,-1.041163 0.02701,-0.107704 0.0014,-0.203768 -0.07625,-0.288007 z"
     fill="#0d0c23"
     id="path1123"
     style="fill:#ffffff;stroke-width:0.0226937" />
</svg>
