<svg xmlns="http://www.w3.org/2000/svg" version="1.1" xmlns:xlink="http://www.w3.org/1999/xlink" xmlns:svgjs="http://svgjs.dev/svgjs" width="43.929581mm" height="50.831631mm"><svg width="43.929581mm" height="50.831631mm" viewBox="0 0 43.929581 50.831631" version="1.1" id="SvgjsSvg1251" inkscape:version="1.1.2 (0a00cf5339, 2022-02-04)" sodipodi:docname="logo.svg" xmlns:inkscape="http://www.inkscape.org/namespaces/inkscape" xmlns:sodipodi="http://sodipodi.sourceforge.net/DTD/sodipodi-0.dtd" xmlns="http://www.w3.org/2000/svg" xmlns:svg="http://www.w3.org/2000/svg">
  <sodipodi:namedview id="SvgjsSodipodi:namedview1250" pagecolor="#ffffff" bordercolor="#000000" borderopacity="0.25" inkscape:pageshadow="2" inkscape:pageopacity="0.0" inkscape:pagecheckerboard="0" inkscape:document-units="mm" showgrid="false" inkscape:zoom="5.0336924" inkscape:cx="84.331732" inkscape:cy="72.312722" inkscape:window-width="1920" inkscape:window-height="1043" inkscape:window-x="0" inkscape:window-y="0" inkscape:window-maximized="1" inkscape:current-layer="g57911" showguides="true" inkscape:guide-bbox="true" fit-margin-top="0" fit-margin-left="0" fit-margin-right="0" fit-margin-bottom="0"></sodipodi:namedview>
  <defs id="SvgjsDefs1249">
    <inkscape:perspective sodipodi:type="inkscape:persp3d" inkscape:vp_x="0 : 635.96801 : 1" inkscape:vp_y="0 : 999.99996 : 0" inkscape:vp_z="1500 : 635.96801 : 1" inkscape:persp3d-origin="750 : 341.92255 : 1" id="SvgjsInkscape:perspective1248"></inkscape:perspective>
    <clipPath id="SvgjsClipPath1247">
      <path d="m 45.315,71.927 h 12.92 v 15.867 h -12.92 z" id="SvgjsPath1246" inkscape:connector-curvature="0"></path>
    </clipPath>
    <clipPath id="SvgjsClipPath1245">
      <path d="m 123.91,72.178 h 26.23 v 15.294 h -26.23 z" id="SvgjsPath1244" inkscape:connector-curvature="0"></path>
    </clipPath>
    <clipPath id="SvgjsClipPath1243">
      <path d="m 413.96,49.857 h 31.76 v 8.719 h -31.76 z" id="SvgjsPath1242" inkscape:connector-curvature="0"></path>
    </clipPath>
    <inkscape:perspective sodipodi:type="inkscape:persp3d" inkscape:vp_x="0 : 389.7996 : 1" inkscape:vp_y="0 : 999.99992 : 0" inkscape:vp_z="1500 : 389.7996 : 1" inkscape:persp3d-origin="749.99998 : 95.754155 : 1" id="SvgjsInkscape:perspective1241"></inkscape:perspective>
    <clipPath id="SvgjsClipPath1240">
      <path d="m 45.315,71.927 h 12.92 v 15.867 h -12.92 z" id="SvgjsPath1239" inkscape:connector-curvature="0"></path>
    </clipPath>
    <clipPath id="SvgjsClipPath1238">
      <path d="m 123.91,72.178 h 26.23 v 15.294 h -26.23 z" id="SvgjsPath1237" inkscape:connector-curvature="0"></path>
    </clipPath>
    <clipPath id="SvgjsClipPath1236">
      <path d="m 413.96,49.857 h 31.76 v 8.719 h -31.76 z" id="SvgjsPath1235" inkscape:connector-curvature="0"></path>
    </clipPath>
    <inkscape:perspective sodipodi:type="inkscape:persp3d" inkscape:vp_x="0 : 389.7996 : 1" inkscape:vp_y="0 : 999.99992 : 0" inkscape:vp_z="1500 : 389.7996 : 1" inkscape:persp3d-origin="749.99998 : 95.754155 : 1" id="SvgjsInkscape:perspective1234"></inkscape:perspective>
    <clipPath id="SvgjsClipPath1233">
      <path d="m 45.315,71.927 h 12.92 v 15.867 h -12.92 z" id="SvgjsPath1232" inkscape:connector-curvature="0"></path>
    </clipPath>
    <clipPath id="SvgjsClipPath1231">
      <path d="m 123.91,72.178 h 26.23 v 15.294 h -26.23 z" id="SvgjsPath1230" inkscape:connector-curvature="0"></path>
    </clipPath>
    <clipPath id="SvgjsClipPath1229">
      <path d="m 413.96,49.857 h 31.76 v 8.719 h -31.76 z" id="SvgjsPath1228" inkscape:connector-curvature="0"></path>
    </clipPath>
    <inkscape:perspective sodipodi:type="inkscape:persp3d" inkscape:vp_x="0 : 635.96801 : 1" inkscape:vp_y="0 : 999.99996 : 0" inkscape:vp_z="1500 : 635.96801 : 1" inkscape:persp3d-origin="750 : 341.92255 : 1" id="SvgjsInkscape:perspective1227"></inkscape:perspective>
    <clipPath id="SvgjsClipPath1226">
      <path d="m 45.315,71.927 h 12.92 v 15.867 h -12.92 z" id="SvgjsPath1225" inkscape:connector-curvature="0"></path>
    </clipPath>
    <clipPath id="SvgjsClipPath1224">
      <path d="m 123.91,72.178 h 26.23 v 15.294 h -26.23 z" id="SvgjsPath1223" inkscape:connector-curvature="0"></path>
    </clipPath>
    <clipPath id="SvgjsClipPath1222">
      <path d="m 413.96,49.857 h 31.76 v 8.719 h -31.76 z" id="SvgjsPath1221" inkscape:connector-curvature="0"></path>
    </clipPath>
    <inkscape:perspective sodipodi:type="inkscape:persp3d" inkscape:vp_x="0 : 635.96801 : 1" inkscape:vp_y="0 : 999.99996 : 0" inkscape:vp_z="1500 : 635.96801 : 1" inkscape:persp3d-origin="750 : 341.92255 : 1" id="SvgjsInkscape:perspective1220"></inkscape:perspective>
    <clipPath id="SvgjsClipPath1219">
      <path d="m 45.315,71.927 h 12.92 v 15.867 h -12.92 z" id="SvgjsPath1218" inkscape:connector-curvature="0"></path>
    </clipPath>
    <clipPath id="SvgjsClipPath1217">
      <path d="m 123.91,72.178 h 26.23 v 15.294 h -26.23 z" id="SvgjsPath1216" inkscape:connector-curvature="0"></path>
    </clipPath>
    <clipPath id="SvgjsClipPath1215">
      <path d="m 413.96,49.857 h 31.76 v 8.719 h -31.76 z" id="SvgjsPath1214" inkscape:connector-curvature="0"></path>
    </clipPath>
    <inkscape:perspective sodipodi:type="inkscape:persp3d" inkscape:vp_x="0 : 635.96801 : 1" inkscape:vp_y="0 : 999.99996 : 0" inkscape:vp_z="1500 : 635.96801 : 1" inkscape:persp3d-origin="750 : 341.92255 : 1" id="SvgjsInkscape:perspective1213"></inkscape:perspective>
    <clipPath id="SvgjsClipPath1212">
      <path d="m 45.315,71.927 h 12.92 v 15.867 h -12.92 z" id="SvgjsPath1211" inkscape:connector-curvature="0"></path>
    </clipPath>
    <clipPath id="SvgjsClipPath1210">
      <path d="m 123.91,72.178 h 26.23 v 15.294 h -26.23 z" id="SvgjsPath1209" inkscape:connector-curvature="0"></path>
    </clipPath>
    <clipPath id="SvgjsClipPath1208">
      <path d="m 413.96,49.857 h 31.76 v 8.719 h -31.76 z" id="SvgjsPath1207" inkscape:connector-curvature="0"></path>
    </clipPath>
  </defs>
  <g inkscape:label="Layer 1" inkscape:groupmode="layer" id="SvgjsG1206" transform="translate(134.31887,576.54601)">
    <text xml:space="preserve" style="font-size:4.23333px;font-family:sans-serif;-inkscape-font-specification:sans-serif;fill:#fdf0e3;fill-opacity:1;stroke:#4a280d;stroke-width:15;stroke-linecap:round;stroke-linejoin:round;stroke-miterlimit:4;stroke-dasharray:none" x="-105.7908" y="-558.50726" id="SvgjsText1205" svgjs:data="{&quot;leading&quot;:&quot;1.3&quot;}"><tspan sodipodi:role="line" id="SvgjsTspan1204" style="stroke-width:15;stroke-miterlimit:4;stroke-dasharray:none" x="-105.7908" y="-558.50726"></tspan></text>
    <text xml:space="preserve" style="font-size:4.23333px;font-family:sans-serif;-inkscape-font-specification:sans-serif;fill:#fdf0e3;fill-opacity:1;stroke:#4a280d;stroke-width:15;stroke-linecap:round;stroke-linejoin:round;stroke-miterlimit:4;stroke-dasharray:none" x="-106.25206" y="-560.1264" id="SvgjsText1203" svgjs:data="{&quot;leading&quot;:&quot;1.3&quot;}"><tspan sodipodi:role="line" id="SvgjsTspan1202" style="stroke-width:15" x="-106.25206" y="-560.1264"></tspan></text>
    <text xml:space="preserve" style="font-size:4.23333px;font-family:sans-serif;-inkscape-font-specification:sans-serif;fill:#fdf0e3;fill-opacity:1;stroke:#4a280d;stroke-width:5;stroke-linecap:round;stroke-linejoin:round;stroke-miterlimit:4;stroke-dasharray:none" x="-78.450752" y="-551.28766" id="SvgjsText1201" svgjs:data="{&quot;leading&quot;:&quot;1.3&quot;}"><tspan sodipodi:role="line" id="SvgjsTspan1200" style="stroke-width:5;stroke-miterlimit:4;stroke-dasharray:none" x="-78.450752" y="-551.28766"></tspan></text>
    <text xml:space="preserve" style="font-size:4.23333px;font-family:sans-serif;-inkscape-font-specification:sans-serif;fill:#fdf0e3;fill-opacity:1;stroke:#4a280d;stroke-width:4.99999;stroke-linecap:round;stroke-linejoin:round;stroke-miterlimit:4;stroke-dasharray:none" x="-75.665482" y="-548.79803" id="SvgjsText1199" svgjs:data="{&quot;leading&quot;:&quot;1.3&quot;}"><tspan sodipodi:role="line" id="SvgjsTspan1198" style="stroke-width:5" x="-75.665482" y="-548.79803"></tspan></text>
    <g id="SvgjsG1197">
      <g id="SvgjsG1196" transform="rotate(-30,-112.35409,-551.13016)">
        <g id="SvgjsG1195">
          <path sodipodi:type="star" style="fill:#ffaf8c;fill-opacity:1;stroke:#000000;stroke-width:21.7043;stroke-miterlimit:4;stroke-dasharray:none;stroke-opacity:1" id="SvgjsPath1194" sodipodi:sides="6" sodipodi:cx="-5551.2134" sodipodi:cy="-204.52565" sodipodi:r1="1701.6108" sodipodi:r2="1473.6381" sodipodi:arg1="1.0471976" sodipodi:arg2="1.5707963" inkscape:flatsided="true" inkscape:rounded="0" inkscape:randomized="0" inkscape:transform-center-x="1.5731476e-05" inkscape:transform-center-y="7.9344316e-05" transform="matrix(-0.00728526,0.01261844,-0.0125921,-0.00727005,-155.37153,-482.56942)" d="m -4700.408,1269.1126 -1701.6109,-10e-5 -850.8053,-1473.63823 850.8055,-1473.63817 1701.6108,10e-5 850.8054,1473.63823 z"></path>
          <g id="SvgjsG1193">
            <path d="m -123.36993,-546.38269 c -0.34029,-0.19647 -0.53473,-0.40896 -0.57844,-0.63125 -0.187,-0.95551 0.68491,-8.62816 0.7221,-8.95431 l 0.0204,-0.1771 6.86458,1.64432 -0.044,0.15779 c -0.22271,0.80088 -2.18812,7.84269 -2.60728,8.46142 -0.43388,0.6405 -3.28508,0.12975 -4.37728,-0.50083" style="fill:#7cfbff;fill-opacity:1;fill-rule:nonzero;stroke:none;stroke-width:0.0104782" id="SvgjsPath1192"></path>
            <path d="m -116.14548,-554.61651 -0.31846,-0.0763 -6.53173,-1.56468 -0.34691,-0.0832 -0.0405,0.35449 c -0.0936,0.82013 -0.90868,8.03981 -0.72025,9.00268 0.0534,0.27281 0.26743,0.51399 0.65436,0.73738 0.67841,0.39168 1.73702,0.64243 2.50165,0.74646 1.14613,0.15597 1.84774,0.0571 2.08549,-0.29372 0.42438,-0.62624 2.26412,-7.19687 2.62865,-8.50765 z m -0.39207,0.23086 c 0,0 -2.16889,7.79996 -2.58578,8.41516 -0.33484,0.49416 -3.02621,0.10993 -4.16769,-0.5491 -0.27949,-0.16136 -0.46602,-0.33915 -0.50222,-0.52457 -0.18457,-0.94273 0.7241,-8.90621 0.7241,-8.90621" style="fill:#000000;fill-opacity:1;fill-rule:nonzero;stroke:none;stroke-width:0.0104782" id="SvgjsPath1191"></path>
            <path d="m -122.78499,-546.98195 c -0.25971,-0.14994 -0.40273,-0.30815 -0.43705,-0.48342 -0.1337,-0.6836 0.72729,-6.9651 0.82601,-7.67908 l 0.0227,-0.1646 5.99019,1.1384 -0.0729,0.17871 c -0.11487,0.28177 -2.81877,6.90581 -3.12419,7.35645 -0.19293,0.28475 -0.88532,0.25571 -1.43222,0.18134 -0.54293,-0.0739 -1.29381,-0.2514 -1.77259,-0.52782" style="fill:#92d2ff;fill-opacity:1;fill-rule:nonzero;stroke:none;stroke-width:0.0104782" id="SvgjsPath1190"></path>
            <path d="m -116.16386,-554.2898 -0.3793,-0.0721 -5.63739,-1.07132 -0.32643,-0.062 -0.0454,0.32912 c -0.16159,1.16926 -0.96037,7.03707 -0.82458,7.73108 0.0436,0.22274 0.21141,0.41571 0.51304,0.58985 0.49864,0.28789 1.27244,0.4716 1.83027,0.54758 1.29593,0.17627 1.51294,-0.14405 1.58428,-0.2494 0.30273,-0.44674 2.66846,-6.23032 3.13963,-7.38528 z m -0.43835,0.23826 c 0,0 -2.80908,6.88528 -3.10875,7.32739 -0.24064,0.35519 -2.17479,0.0789 -2.99503,-0.39464 -0.2009,-0.11599 -0.33491,-0.24371 -0.36096,-0.37694 -0.13265,-0.67744 0.82741,-7.62721 0.82741,-7.62721" style="fill:#000000;fill-opacity:1;fill-rule:nonzero;stroke:none;stroke-width:0.0104782" id="SvgjsPath1189"></path>
            <path d="m -121.16964,-546.78984 c -0.1765,-0.1019 -0.23715,-0.32839 -0.13527,-0.50484 0.10187,-0.17645 0.32831,-0.23712 0.50481,-0.13522 0.17645,0.10188 0.23712,0.32831 0.13525,0.50476 -0.10188,0.17645 -0.32834,0.23718 -0.50479,0.1353" style="fill:#bda3d3;fill-opacity:1;fill-rule:nonzero;stroke:none;stroke-width:0.00523912" id="SvgjsPath1188"></path>
            <path d="m -122.42911,-547.11468 c -0.17645,-0.10188 -0.23717,-0.32834 -0.13532,-0.50475 0.10187,-0.17645 0.32835,-0.23709 0.50481,-0.13522 0.1764,0.10185 0.23708,0.32829 0.1352,0.50474 -0.10185,0.17641 -0.32829,0.23707 -0.50469,0.13523" style="fill:#bda3d3;fill-opacity:1;fill-rule:nonzero;stroke:none;stroke-width:0.00523912" id="SvgjsPath1187"></path>
            <path d="m -121.50627,-548.10344 c -0.17645,-0.10188 -0.23708,-0.32841 -0.13523,-0.50482 0.10188,-0.17645 0.32832,-0.23713 0.50477,-0.13525 0.17646,0.10187 0.23712,0.32831 0.13525,0.50477 -0.10185,0.17641 -0.32834,0.23717 -0.50479,0.1353" style="fill:#bda3d3;fill-opacity:1;fill-rule:nonzero;stroke:none;stroke-width:0.00523912" id="SvgjsPath1186"></path>
            <path d="m -122.51728,-548.44888 c -0.17645,-0.10188 -0.23714,-0.32839 -0.13527,-0.50485 0.10188,-0.17645 0.32836,-0.2371 0.50482,-0.13523 0.1764,0.10185 0.23707,0.3283 0.1352,0.50475 -0.10188,0.17645 -0.32835,0.23717 -0.50475,0.13533" style="fill:#bda3d3;fill-opacity:1;fill-rule:nonzero;stroke:none;stroke-width:0.00523912" id="SvgjsPath1185"></path>
            <path d="m -121.62705,-550.00774 c -0.1765,-0.1019 -0.23717,-0.32835 -0.1353,-0.50479 0.10187,-0.17645 0.32834,-0.23717 0.50484,-0.13527 0.17645,0.10187 0.2371,0.32836 0.13523,0.50482 -0.10187,0.17644 -0.32832,0.23712 -0.50477,0.13524" style="fill:#bda3d3;fill-opacity:1;fill-rule:nonzero;stroke:none;stroke-width:0.00523912" id="SvgjsPath1184"></path>
            <path d="m -121.06215,-551.64246 c -0.17645,-0.10187 -0.23713,-0.32831 -0.13523,-0.50482 0.10187,-0.17644 0.32829,-0.23707 0.50474,-0.1352 0.17646,0.10188 0.23715,0.32827 0.13528,0.50472 -0.10191,0.1765 -0.32834,0.23718 -0.50479,0.1353" style="fill:#bda3d3;fill-opacity:1;fill-rule:nonzero;stroke:none;stroke-width:0.00523912" id="SvgjsPath1183"></path>
          </g>
          <g id="SvgjsG1182">
            <path d="m -116.46003,-553.81203 c -0.12464,0.52017 -1.80384,0.52093 -3.83762,0.0337 -1.92105,-0.4601 -3.02658,-1.03572 -3.38313,-1.46347 -0.0371,-0.0445 -0.0523,-0.10296 -0.05,-0.16097 0.009,-0.20169 0.0822,-1.00165 0.0941,-1.02093 0.27312,-0.44546 1.86075,0.29946 3.79025,0.76168 1.85477,0.44436 3.3751,0.76301 3.52158,1.28049 0.0142,0.05 -0.12424,0.52367 -0.13521,0.56949" style="fill:#d4f9fa;fill-opacity:1;fill-rule:nonzero;stroke:none;stroke-width:0.0104782" id="SvgjsPath1181"></path>
            <path d="m -116.46003,-553.81203 c -0.12464,0.52017 -1.80384,0.52093 -3.83762,0.0337 -1.92105,-0.4601 -3.02658,-1.03572 -3.38313,-1.46347 -0.0371,-0.0445 -0.0523,-0.10296 -0.05,-0.16097 0.009,-0.20169 0.0822,-1.00165 0.0941,-1.02093 0.27312,-0.44546 1.86075,0.29946 3.79025,0.76168 1.85477,0.44436 3.3751,0.76301 3.52158,1.28049 0.0142,0.05 -0.12424,0.52367 -0.13521,0.56949 z" style="fill:none;stroke:#000000;stroke-width:0.315919;stroke-linecap:butt;stroke-linejoin:miter;stroke-miterlimit:10;stroke-dasharray:none;stroke-opacity:1" id="SvgjsPath1180"></path>
            <path d="m -116.27153,-554.65928 c -0.12464,0.52017 -1.87436,0.54687 -3.90814,0.0597 -2.03382,-0.48735 -3.58162,-1.30391 -3.45698,-1.82408 0.12465,-0.52018 1.87436,-0.54688 3.9082,-0.0598 2.03381,0.48735 3.58156,1.30399 3.45692,1.82417" style="fill:#eafcfc;fill-opacity:1;fill-rule:nonzero;stroke:none;stroke-width:0.0104782" id="SvgjsPath1179"></path>
            <path d="m -116.27153,-554.65928 c -0.12464,0.52017 -1.87436,0.54687 -3.90814,0.0597 -2.03382,-0.48735 -3.58162,-1.30391 -3.45698,-1.82408 0.12465,-0.52018 1.87436,-0.54688 3.9082,-0.0598 2.03381,0.48735 3.58156,1.30399 3.45692,1.82417 z" style="fill:none;stroke:#000000;stroke-width:0.315919;stroke-linecap:butt;stroke-linejoin:miter;stroke-miterlimit:10;stroke-dasharray:none;stroke-opacity:1" id="SvgjsPath1178"></path>
          </g>
          <path d="m -115.219,-541.83731 c -1.7647,-1.01885 -2.95334,-2.00336 -3.74037,-3.09817 -1.00727,-1.40115 -1.34232,-2.96446 -1.02448,-4.77927 l 0.0135,-0.077 0.0694,-0.0359 c 3.66932,-1.9039 5.00592,-4.11939 5.03559,-5.43802 0.008,-0.35939 -0.0918,-0.64306 -0.26065,-0.74056 -0.009,-0.005 -0.0178,-0.01 -0.0272,-0.0134 -0.47259,-0.20853 -0.92023,-0.4343 -1.33012,-0.67095 -1.65055,-0.95294 -2.64008,-2.03483 -2.94125,-3.21548 -0.22949,-0.89972 -0.0478,-1.84478 0.54021,-2.80875 1.10078,-1.80501 3.1449,-2.89234 5.75585,-3.06174 2.38275,-0.15476 4.97704,0.46538 7.1177,1.70129 1.0079,0.58191 1.86299,1.27088 2.54173,2.048 1.7583,2.01321 2.95076,5.11064 3.27135,8.49791 0.319424,3.37232 -0.25871,6.63383 -1.58593,8.94815 -1.62825,2.83961 -3.95138,3.91637 -5.61344,4.31976 -2.0816,0.50515 -4.35085,0.24472 -6.22583,-0.71451 -0.62675,-0.32063 -1.13401,-0.59421 -1.59627,-0.8611" style="fill:#edcd9d;fill-opacity:1;fill-rule:nonzero;stroke:none;stroke-width:0.0104782" id="SvgjsPath1177"></path>
          <path d="m -105.93167,-564.21226 c -2.16697,-1.2511 -4.79381,-1.87879 -7.20691,-1.7222 -2.66368,0.17295 -4.75203,1.28704 -5.88041,3.13708 -0.61094,1.00178 -0.79881,1.98756 -0.55842,2.92999 0.31216,1.22366 1.32667,2.33837 3.01532,3.31331 0.41489,0.23954 0.86743,0.4679 1.34536,0.67871 0.004,0.002 0.008,0.004 0.0118,0.006 0.0959,0.0554 0.18921,0.26242 0.18161,0.60019 -0.0286,1.27555 -1.34241,3.42933 -4.9504,5.30137 l -0.13869,0.072 -0.0269,0.15399 c -0.73981,4.22285 2.19875,6.51566 4.84149,8.04145 0.46452,0.26819 0.97396,0.54303 1.60326,0.8649 1.90819,0.97611 4.2172,1.24122 6.33496,0.72731 1.69226,-0.41064 4.05714,-1.50638 5.71328,-4.39461 1.34298,-2.34211 1.928439,-5.63762 1.60614,-9.04162 -0.32377,-3.41948 -1.53007,-6.54933 -3.30971,-8.58697 -0.69021,-0.79014 -1.55873,-1.49025 -2.58169,-2.08085 m -0.15795,0.27358 c 0.96107,0.55488 1.81874,1.23312 2.50169,2.01508 3.656861,4.18692 4.409315,12.48233 1.66755,17.26369 -2.74189,4.78128 -8.08474,5.35696 -11.63046,3.54324 -0.53522,-0.27379 -1.06971,-0.55743 -1.58912,-0.85732 -2.92143,-1.68668 -5.35891,-3.88525 -4.68833,-7.71346 5.28667,-2.74303 5.59567,-5.9852 4.78124,-6.45541 -0.0138,-0.008 -0.0278,-0.0151 -0.0425,-0.0211 -0.40626,-0.17924 -0.85934,-0.40018 -1.31496,-0.66324 -1.98285,-1.1448 -4.0055,-3.08282 -2.34512,-5.80527 2.32158,-3.80652 8.47501,-3.72185 12.65967,-1.30583" style="fill:#000000;fill-opacity:1;fill-rule:nonzero;stroke:none;stroke-width:0.0104782" id="SvgjsPath1176"></path>
          <path d="m -114.70092,-565.38651 c -1.53831,0.33388 -3.13682,1.25902 -4.04848,2.75361 -1.76123,2.88793 0.62116,4.89148 2.70492,6.00379 1.51665,-0.39442 4.4196,-4.40588 1.34356,-8.7574" style="fill:#d8a672;fill-opacity:1;fill-rule:nonzero;stroke:none;stroke-width:0.0104782" id="SvgjsPath1175"></path>
          <path d="m -105.67492,-563.11038 c 0,0 1.52848,-0.90192 3.06537,-0.70376 1.53694,0.19829 2.06497,2.56341 -0.30188,3.7294" style="fill:#edcd9d;fill-opacity:1;fill-rule:nonzero;stroke:#000000;stroke-width:0.315912;stroke-linecap:round;stroke-linejoin:round;stroke-miterlimit:10;stroke-dasharray:none;stroke-opacity:1" id="SvgjsPath1174"></path>
          <path d="m -104.29582,-562.21433 c 0.25582,-0.3785 1.45074,-0.9295 1.83262,-0.16421 0.38192,0.76521 -0.67713,1.74809 -1.14274,1.51908 -0.46576,-0.22895 -0.94559,-0.97631 -0.68988,-1.35487" style="fill:#d8a672;fill-opacity:1;fill-rule:nonzero;stroke:none;stroke-width:0.0104782" id="SvgjsPath1173"></path>
          <path d="m -114.57417,-556.1092 c -1.17691,0.0612 -3.03408,-0.0998 -3.51026,1.05732 -0.47619,1.15714 0.74328,2.18425 3.0449,2.49107" style="fill:#edcd9d;fill-opacity:1;fill-rule:nonzero;stroke:#000000;stroke-width:0.315919;stroke-linecap:round;stroke-linejoin:miter;stroke-miterlimit:10;stroke-dasharray:none;stroke-opacity:1" id="SvgjsPath1172"></path>
          <path d="m -112.85102,-555.75814 -0.0393,0.0581 c 0.0365,-0.0325 0.0393,-0.0581 0.0393,-0.0581" style="fill:#d8a672;fill-opacity:1;fill-rule:nonzero;stroke:none;stroke-width:0.0104782" id="SvgjsPath1171"></path>
          <path d="m -116.31282,-555.87114 c -0.8946,0.0817 -1.44335,0.35107 -1.64988,0.99819 -0.20643,0.64718 0.16915,1.2293 1.11978,1.66164 0.6516,-0.7212 0.87565,-1.70606 0.5301,-2.65983" style="fill:#d8a672;fill-opacity:1;fill-rule:nonzero;stroke:none;stroke-width:0.0104782" id="SvgjsPath1170"></path>
          <path d="m -115.65624,-543.09955 c -0.87201,1.34857 -6.42683,-0.33014 -6.80837,-1.97388 -0.38126,-1.6436 2.07226,-1.08538 2.07226,-1.08538 -1.27661,-9.8537 8.75076,-7.87166 10.17073,-5.77392" style="fill:#edcd9d;fill-opacity:1;fill-rule:nonzero;stroke:#000000;stroke-width:0.315919;stroke-linecap:round;stroke-linejoin:miter;stroke-miterlimit:10;stroke-dasharray:none;stroke-opacity:1" id="SvgjsPath1169"></path>
          <g id="SvgjsG1168" transform="matrix(1.0746399,-0.12928014,-0.12928014,1.2239197,-62.61335,108.94968)">
            <path d="m -120.28716,-558.96791 -0.21466,3.26276 c 0.13745,0.0541 0.45283,0.10633 0.60134,0.11126 l 0.22143,-3.16655" style="fill:#ffa0a0;fill-opacity:1;fill-rule:nonzero;stroke:none;stroke-width:0.0104782" id="SvgjsPath1167" sodipodi:nodetypes="cccc"></path>
            <path d="m -120.21945,-559.08517 -0.28237,3.38002 c 0.13745,0.0541 0.45283,0.10633 0.60134,0.11126 l 0.22143,-3.16655 c -0.27035,-0.48597 -0.1184,-1.24497 -0.5404,-0.32473 z" style="fill:none;stroke:#000000;stroke-width:0.315919;stroke-linecap:butt;stroke-linejoin:miter;stroke-miterlimit:10;stroke-dasharray:none;stroke-opacity:1" id="SvgjsPath1166" sodipodi:nodetypes="ccccc"></path>
          </g>
          <path d="m -120.21191,-545.94029 c 0,0 -2.31305,-0.632 -2.17536,0.65935 0.0417,1.47041 5.14405,3.29068 6.47999,2.21237 0,0 -3.64419,-0.32018 -4.30463,-2.87172" style="fill:#d8a672;fill-opacity:1;fill-rule:nonzero;stroke:none;stroke-width:0.0104782" id="SvgjsPath1165"></path>
          <path d="m -117.1862,-562.47086 c -0.0448,0.16081 -0.17118,0.26609 -0.28235,0.23505 -0.11114,-0.0309 -0.165,-0.18637 -0.12018,-0.34718 0.0448,-0.16074 0.17112,-0.266 0.28234,-0.23506 0.11114,0.0309 0.165,0.18637 0.12019,0.34719" style="fill:#000000;fill-opacity:1;fill-rule:nonzero;stroke:none;stroke-width:0.0104782" id="SvgjsPath1164"></path>
          <path d="m -118.37808,-563.43196 c -0.11687,0.11922 -0.14486,0.28129 -0.0624,0.36205 0.0823,0.0808 0.24389,0.0497 0.36076,-0.0695 0.11682,-0.11913 0.1448,-0.28119 0.0624,-0.36205 -0.0823,-0.0808 -0.2439,-0.0497 -0.36076,0.0695" style="fill:#000000;fill-opacity:1;fill-rule:nonzero;stroke:none;stroke-width:0.0104782" id="SvgjsPath1163"></path>
          <path d="m -109.91348,-562.39416 c 0.70139,-0.48871 1.80954,0.0749 1.6691,0.97174 -0.0378,0.26602 -0.16654,0.48921 -0.35545,0.64125 -0.0388,0.0312 -0.0956,0.025 -0.12699,-0.0137 -0.0596,-0.19435 -0.0461,-0.45831 -0.10618,-0.61556 -0.0948,-0.30882 -0.23608,-0.43249 -0.52148,-0.58929 -0.15024,-0.0787 -0.33387,-0.14472 -0.54511,-0.23632 -0.0649,-0.0256 -0.0728,-0.12145 -0.0141,-0.15779" style="fill:#000000;fill-opacity:1;fill-rule:nonzero;stroke:none;stroke-width:0.0104782" id="SvgjsPath1162"></path>
          <path d="m -117.72263,-559.71559 c -0.79692,-0.1598 -1.37403,-0.95954 -1.23997,-1.54651" style="fill:#d8a672;fill-opacity:1;fill-rule:nonzero;stroke:#000000;stroke-width:0.315919;stroke-linecap:round;stroke-linejoin:round;stroke-miterlimit:10;stroke-dasharray:none;stroke-opacity:1" id="SvgjsPath1161"></path>
          <path d="m -118.48706,-560.06389 c -0.0993,0.21841 -0.35207,0.7124 -0.64594,0.65126 -0.29406,-0.0611 -0.61606,-0.66796 -0.52188,-0.95261 0.0943,-0.28471 0.67522,-0.78161 0.67522,-0.78161 0,0 -0.0885,0.58483 0.4926,1.08296" style="fill:#eafcfc;fill-opacity:1;fill-rule:nonzero;stroke:none;stroke-width:0.0104782" id="SvgjsPath1160"></path>
          <path d="m -118.48706,-560.06389 c -0.0993,0.21841 -0.35207,0.7124 -0.64594,0.65126 -0.29406,-0.0611 -0.61606,-0.66796 -0.52188,-0.95261 0.0943,-0.28471 0.67522,-0.78161 0.67522,-0.78161 0,0 -0.0885,0.58483 0.4926,1.08296 z" style="fill:none;stroke:#000000;stroke-width:0.315919;stroke-linecap:butt;stroke-linejoin:round;stroke-miterlimit:10;stroke-dasharray:none;stroke-opacity:1" id="SvgjsPath1159"></path>
          <path d="m -119.16653,-560.18214 -0.36083,0.39845" style="fill:#eafcfc;fill-opacity:1;fill-rule:nonzero;stroke:#000000;stroke-width:0.315919;stroke-linecap:round;stroke-linejoin:miter;stroke-miterlimit:10;stroke-dasharray:none;stroke-opacity:1" id="SvgjsPath1158"></path>
          <path d="m -126.41043,-544.91449 q 0.12403,0.0716 0.23573,0.16461 0.11596,0.0955 0.19641,0.1932 0.0804,0.0978 0.11249,0.1904 0.0321,0.0926 -0.01,0.16537 -0.10865,0.1882 -0.32251,0.0647 -0.0514,-0.0297 -0.091,-0.0696 -0.0329,-0.0419 -0.0854,-0.0892 -0.0499,-0.0517 -0.1324,-0.1164 -0.0799,-0.069 -0.21252,-0.14555 -0.28229,-0.16299 -0.5474,-0.0594 -0.2651,0.10357 -0.4429,0.41153 -0.19509,0.33791 -0.15964,0.63211 0.0397,0.29667 0.32629,0.46212 0.17965,0.10372 0.30815,0.13796 0.12851,0.0342 0.21914,0.0353 0.0949,0.004 0.15499,-0.002 0.0643,-0.003 0.11995,0.0293 0.077,0.0444 0.10001,0.10335 0.0297,0.0571 -0.0271,0.15546 -0.0593,0.10265 -0.18495,0.13274 -0.12144,0.0325 -0.27084,0.0147 -0.1494,-0.0178 -0.30535,-0.0737 -0.15167,-0.0534 -0.26716,-0.12006 -0.51754,-0.2988 -0.64721,-0.75576 -0.12967,-0.45697 0.17407,-0.98306 0.13088,-0.22669 0.31536,-0.38822 0.19128,-0.16331 0.42129,-0.23582 0.23005,-0.0725 0.48721,-0.0438 0.26144,0.0312 0.53519,0.18923 z" style="font-weight:normal;font-size:4.93889px;font-family:Sniglet;-inkscape-font-specification:Sniglet;stroke-width:0.315912;stroke-linecap:round;stroke-linejoin:round" id="SvgjsPath1157"></path>
          <path d="m -124.77551,-541.03926 q -0.0684,-0.0395 -0.0988,-0.0856 -0.0237,-0.0478 -0.0228,-0.0987 8.1e-4,-0.0508 0.0219,-0.10712 0.0234,-0.0606 0.0539,-0.12288 -0.18349,0.0708 -0.40644,0.0619 -0.21867,-0.006 -0.47957,-0.15713 -0.16682,-0.0963 -0.31503,-0.24458 -0.14144,-0.15013 -0.21346,-0.35135 -0.0695,-0.20553 -0.0408,-0.4627 0.0287,-0.25716 0.20898,-0.5694 0.14076,-0.2438 0.32407,-0.42311 0.18332,-0.17931 0.39448,-0.2684 0.21788,-0.0909 0.45613,-0.0788 0.23824,0.0121 0.48632,0.15532 0.21814,0.12594 0.34233,0.30595 0.12663,0.17577 0.15979,0.43444 0.0296,-0.0514 0.0636,-0.10016 0.0364,-0.0531 0.0782,-0.086 0.0485,-0.0347 0.10617,-0.0357 0.0601,-0.005 0.13279,0.0367 0.0642,0.0371 0.0901,0.1205 0.0259,0.0835 -0.0642,0.25947 -0.11806,0.23409 -0.21745,0.41623 -0.0951,0.18464 -0.20618,0.37712 -0.13582,0.23525 -0.25374,0.4295 -0.11793,0.19425 -0.2634,0.40681 -0.0655,0.0934 -0.117,0.14346 -0.0449,0.0482 -0.0836,0.0658 -0.0362,0.0133 -0.0711,0.005 -0.035,-0.009 -0.0649,-0.0259 z m 0.39627,-1.21976 q 0.12841,-0.22241 0.14149,-0.40307 0.0173,-0.17819 -0.0409,-0.31444 -0.0515,-0.13803 -0.14965,-0.23468 -0.0982,-0.0966 -0.19657,-0.15344 -0.15398,-0.0889 -0.29728,-0.0975 -0.13903,-0.006 -0.26426,0.0527 -0.12275,0.0546 -0.23354,0.16742 -0.10405,0.11102 -0.19295,0.265 -0.21731,0.37639 -0.1585,0.64988 0.0631,0.27595 0.34539,0.43893 0.16682,0.0963 0.3144,0.10739 0.15431,0.009 0.28384,-0.0471 0.13379,-0.0539 0.24456,-0.16676 0.11747,-0.11468 0.2039,-0.26438 z" style="font-weight:normal;font-size:4.93889px;font-family:Sniglet;-inkscape-font-specification:Sniglet;stroke-width:0.315912;stroke-linecap:round;stroke-linejoin:round" id="SvgjsPath1156"></path>
          <path d="m -123.95783,-539.76876 q -0.0469,0.0812 -0.0932,0.15148 -0.0488,0.0745 -0.10899,0.11957 -0.0559,0.0475 -0.12274,0.0546 -0.065,0.0138 -0.14629,-0.0331 -0.0941,-0.0543 -0.11875,-0.15979 -0.0229,-0.0988 0.0649,-0.27047 0.0574,-0.10942 0.13782,-0.2683 0.0802,-0.15898 0.17053,-0.33498 0.0944,-0.17358 0.18474,-0.34957 0.0944,-0.17358 0.17841,-0.31902 0.28892,-0.50043 0.54501,-0.78599 0.26043,-0.28307 0.51267,-0.39407 0.25227,-0.11099 0.50203,-0.0694 0.25403,0.044 0.52777,0.20206 0.21814,0.12594 0.37111,0.30548 0.15543,0.17529 0.21509,0.39792 0.0664,0.22084 0.0235,0.49264 -0.0404,0.26754 -0.21818,0.5755 -0.14816,0.25663 -0.35158,0.40152 -0.19916,0.14735 -0.43215,0.19534 -0.23053,0.0437 -0.48209,-0.005 -0.2448,-0.0501 -0.48005,-0.18594 -0.20103,-0.11607 -0.31667,-0.29114 -0.10885,-0.17693 -0.1205,-0.31481 -0.1169,0.25188 -0.22262,0.46459 -0.10138,0.2152 -0.21991,0.4205 z m 1.96574,-2.04162 q -0.1497,-0.0864 -0.29056,-0.0993 -0.13658,-0.0104 -0.25686,0.0399 -0.12027,0.0503 -0.22612,0.1546 -0.10158,0.10673 -0.18554,0.25216 -0.0815,0.14114 -0.12994,0.28426 -0.0417,0.14134 -0.0319,0.27246 0.01,0.13115 0.0847,0.24848 0.0748,0.11734 0.22881,0.20624 0.11976,0.0691 0.24827,0.10338 0.13096,0.03 0.26096,0.002 0.13427,-0.0251 0.25967,-0.12381 0.12969,-0.0962 0.24081,-0.28869 0.1136,-0.19675 0.13455,-0.36145 0.0277,-0.16652 -0.0152,-0.29962 -0.0362,-0.13497 -0.12761,-0.23336 -0.0872,-0.0959 -0.19411,-0.15768 z" style="font-weight:normal;font-size:4.93889px;font-family:Sniglet;-inkscape-font-specification:Sniglet;stroke-width:0.315912;stroke-linecap:round;stroke-linejoin:round" id="SvgjsPath1155"></path>
          <path d="m -121.52204,-538.14004 q -0.1124,0.0663 -0.19089,0.0837 -0.0742,0.0199 -0.13836,-0.0172 -0.0598,-0.0345 -0.0976,-0.10759 -0.0377,-0.073 0.002,-0.14153 0.0371,-0.0642 0.14896,-0.15922 0.11617,-0.0926 0.26185,-0.19671 0.14991,-0.10164 0.30907,-0.20935 0.15918,-0.1077 0.29064,-0.19719 l 0.067,-0.0469 q 0.0174,-0.32644 0.046,-0.69203 0.0329,-0.36313 0.0698,-0.68396 0.037,-0.32085 0.0729,-0.55102 0.0427,-0.23198 0.0773,-0.29185 0.0321,-0.0556 0.0971,-0.0694 0.0717,-0.0156 0.14018,0.0239 0.0599,0.0346 0.10069,0.0923 0.0433,0.0535 0.0434,0.16192 -0.006,0.16782 -0.0292,0.37661 -0.0168,0.20699 -0.0479,0.42861 -0.0267,0.22409 -0.0559,0.45246 -0.025,0.23082 -0.0424,0.44885 0.19534,-0.12104 0.4134,-0.25178 0.21806,-0.13074 0.42014,-0.25358 0.20638,-0.12037 0.37835,-0.22069 0.17446,-0.10458 0.2936,-0.17267 0.11663,-0.0638 0.20124,-0.072 0.0846,-0.008 0.14874,0.0288 0.0428,0.0247 0.0634,0.0879 0.023,0.0589 -0.0115,0.1188 -0.0519,0.0898 -0.24916,0.24395 -0.19058,0.1523 -0.46526,0.34159 -0.27467,0.1893 -0.60579,0.39734 -0.32437,0.20623 -0.6438,0.40389 -0.31696,0.1934 -0.60134,0.35999 -0.28009,0.16905 -0.46623,0.28401 z" style="font-weight:normal;font-size:4.93889px;font-family:Sniglet;-inkscape-font-specification:Sniglet;stroke-width:0.315912;stroke-linecap:round;stroke-linejoin:round" id="SvgjsPath1154"></path>
          <path d="m -117.26947,-540.45818 q -0.14816,0.25663 -0.3283,0.52903 -0.17333,0.27062 -0.34782,0.52346 0.12227,-0.0834 0.25901,-0.1128 0.13922,-0.0337 0.27578,-0.0233 0.14086,0.0129 0.27542,0.0564 0.13456,0.0435 0.24577,0.10772 0.19247,0.11112 0.31728,0.28017 0.13159,0.1672 0.1766,0.37571 0.0518,0.20667 0.004,0.44721 -0.0408,0.23875 -0.18901,0.49538 -0.14323,0.24809 -0.33451,0.41139 -0.19128,0.1633 -0.4231,0.22906 -0.22511,0.0639 -0.4859,0.0217 -0.25648,-0.0398 -0.53022,-0.19781 -0.37211,-0.21484 -0.49955,-0.48801 -0.12315,-0.2707 -0.0826,-0.57805 0.043,-0.31162 0.20507,-0.6515 0.16628,-0.33742 0.37125,-0.69243 0.20743,-0.35928 0.38817,-0.64273 0.18074,-0.28345 0.31009,-0.4483 0.11947,-0.14773 0.21892,-0.18157 0.0993,-0.0339 0.19775,0.023 0.0727,0.042 0.0957,0.10088 0.0255,0.0547 0.0104,0.12011 -0.0107,0.068 -0.0485,0.14312 -0.0352,0.0709 -0.0821,0.1522 z m 0.0157,1.43478 q -0.12404,-0.0716 -0.26422,-0.0955 -0.13341,-0.0258 -0.27265,0.008 -0.13496,0.0362 -0.26281,0.13911 -0.12544,0.0987 -0.23162,0.28259 -0.18768,0.32507 -0.1282,0.58752 0.0662,0.26066 0.33569,0.41623 0.11121,0.0642 0.24399,0.10092 0.13524,0.0325 0.27379,0.01 0.141,-0.0269 0.27746,-0.12495 0.1364,-0.098 0.24999,-0.29479 0.10125,-0.17537 0.12398,-0.33334 0.0271,-0.15546 -0.0116,-0.28613 -0.0362,-0.13496 -0.12514,-0.23763 -0.089,-0.10266 -0.20877,-0.1718 z" style="font-weight:normal;font-size:4.93889px;font-family:Sniglet;-inkscape-font-specification:Sniglet;stroke-width:0.315912;stroke-linecap:round;stroke-linejoin:round" id="SvgjsPath1153"></path>
          <path d="m -115.08337,-535.4435 q -0.0684,-0.0395 -0.0989,-0.0856 -0.0237,-0.0479 -0.0228,-0.0987 8.1e-4,-0.0508 0.0219,-0.10713 0.0234,-0.0606 0.0539,-0.12288 -0.18349,0.0709 -0.40644,0.0619 -0.21866,-0.006 -0.47957,-0.15713 -0.16682,-0.0963 -0.31503,-0.24458 -0.14144,-0.15014 -0.21346,-0.35136 -0.0695,-0.20553 -0.0408,-0.4627 0.0287,-0.25716 0.20898,-0.56939 0.14076,-0.24381 0.32416,-0.42306 0.18331,-0.17932 0.39448,-0.26841 0.21788,-0.0909 0.45613,-0.0788 0.23824,0.0121 0.48632,0.15532 0.21813,0.12594 0.34233,0.30596 0.12663,0.17576 0.15979,0.43443 0.0297,-0.0513 0.0636,-0.10016 0.0364,-0.0531 0.0782,-0.086 0.0485,-0.0347 0.10617,-0.0357 0.0601,-0.005 0.13279,0.0367 0.0642,0.0371 0.0901,0.1205 0.026,0.0834 -0.0642,0.25947 -0.11806,0.23409 -0.21745,0.41623 -0.0951,0.18464 -0.20618,0.37711 -0.13582,0.23525 -0.25374,0.4295 -0.11793,0.19426 -0.2634,0.40682 -0.0655,0.0934 -0.117,0.14346 -0.0449,0.0482 -0.0836,0.0658 -0.0362,0.0133 -0.0711,0.005 -0.035,-0.009 -0.0649,-0.0259 z m 0.39627,-1.21976 q 0.12841,-0.22242 0.14149,-0.40307 0.0173,-0.1782 -0.0409,-0.31444 -0.0515,-0.13803 -0.14965,-0.23468 -0.0982,-0.0966 -0.19656,-0.15344 -0.15398,-0.0889 -0.29729,-0.0975 -0.13903,-0.006 -0.26426,0.0527 -0.12275,0.0546 -0.23354,0.16742 -0.10405,0.11102 -0.19295,0.265 -0.21731,0.37639 -0.15849,0.64988 0.0631,0.27595 0.34538,0.43893 0.16682,0.0963 0.3144,0.10738 0.15431,0.009 0.28384,-0.0471 0.13379,-0.0539 0.24456,-0.16676 0.11747,-0.11468 0.2039,-0.26438 z" style="font-weight:normal;font-size:4.93889px;font-family:Sniglet;-inkscape-font-specification:Sniglet;stroke-width:0.315912;stroke-linecap:round;stroke-linejoin:round" id="SvgjsPath1152"></path>
          <path d="m -114.20429,-535.30666 q 0.0693,-0.1596 0.18851,-0.37591 0.11914,-0.21636 0.29447,-0.52004 0.17286,-0.2994 0.27905,-0.48333 0.11052,-0.18142 0.21331,-0.31026 0.12264,-0.16302 0.19505,-0.18964 0.0767,-0.0242 0.14942,0.0178 0.0513,0.0296 0.0848,0.0605 0.0378,0.0334 0.0506,0.0804 0.0194,0.0454 0.007,0.10664 -0.0125,0.0613 -0.0643,0.15105 -0.01,0.0172 -0.0154,0.0367 -0.01,0.0171 -0.0222,0.0385 -0.006,0.0196 -0.0204,0.0453 0.19945,-0.0788 0.40414,-0.0974 0.20897,-0.0162 0.39717,0.0924 0.25235,0.1457 0.13134,0.35528 -0.0444,0.077 -0.10829,0.10857 -0.0596,0.0341 -0.13921,0.0337 -0.0729,-0.002 -0.15975,-0.0295 -0.0827,-0.0249 -0.18229,-0.0596 -0.15166,-0.0534 -0.31343,-0.0498 -0.15926,-7.3e-4 -0.26378,0.0815 -0.0469,0.0812 -0.0691,0.11976 -0.0179,0.0409 -0.0327,0.0667 -0.0105,0.0281 -0.0278,0.0581 -0.0173,0.03 -0.0543,0.0941 -0.12594,0.21815 -0.24573,0.40562 -0.11731,0.1832 -0.25412,0.40076 -0.0636,0.10015 -0.11701,0.14346 -0.0492,0.0457 -0.0964,0.0584 -0.0429,0.0152 -0.0796,-3.4e-4 -0.0392,-0.0111 -0.0734,-0.0308 -0.11976,-0.0692 -0.13289,-0.1452 -0.006,-0.0778 0.0778,-0.26306 z" style="font-weight:normal;font-size:4.93889px;font-family:Sniglet;-inkscape-font-specification:Sniglet;stroke-width:0.315912;stroke-linecap:round;stroke-linejoin:round" id="SvgjsPath1151"></path>
          <path d="m -111.06281,-533.12223 q -0.0684,-0.0395 -0.0988,-0.0856 -0.0237,-0.0479 -0.0228,-0.0987 8.1e-4,-0.0508 0.0219,-0.10712 0.0234,-0.0606 0.0539,-0.12288 -0.1835,0.0709 -0.40644,0.0619 -0.21867,-0.006 -0.47958,-0.15713 -0.16681,-0.0963 -0.31502,-0.24458 -0.14144,-0.15013 -0.21346,-0.35135 -0.0695,-0.20553 -0.0408,-0.4627 0.0287,-0.25716 0.20897,-0.5694 0.14076,-0.2438 0.32416,-0.42306 0.18332,-0.17931 0.39449,-0.2684 0.21787,-0.0909 0.45612,-0.0788 0.23824,0.0121 0.48633,0.15532 0.21813,0.12594 0.34232,0.30595 0.12664,0.17577 0.15979,0.43444 0.0297,-0.0514 0.0636,-0.10016 0.0364,-0.0531 0.0782,-0.086 0.0485,-0.0347 0.10617,-0.0357 0.0601,-0.005 0.13278,0.0367 0.0642,0.0371 0.0901,0.1205 0.0259,0.0835 -0.0643,0.25947 -0.11806,0.23409 -0.21744,0.41623 -0.0951,0.18464 -0.20618,0.37712 -0.13582,0.23525 -0.25375,0.4295 -0.11792,0.19425 -0.26339,0.40681 -0.0655,0.0934 -0.11701,0.14346 -0.0449,0.0482 -0.0836,0.0658 -0.0362,0.0133 -0.0711,0.005 -0.035,-0.009 -0.0649,-0.0259 z m 0.39627,-1.21976 q 0.12841,-0.22241 0.14149,-0.40307 0.0173,-0.17819 -0.0409,-0.31444 -0.0515,-0.13803 -0.14965,-0.23468 -0.0982,-0.0966 -0.19657,-0.15344 -0.15398,-0.0889 -0.29728,-0.0975 -0.13903,-0.006 -0.26427,0.0527 -0.12274,0.0546 -0.23353,0.16742 -0.10405,0.11102 -0.19295,0.265 -0.21731,0.37639 -0.1585,0.64988 0.0631,0.27595 0.34539,0.43893 0.16681,0.0963 0.3144,0.10739 0.15431,0.009 0.28384,-0.0471 0.13379,-0.0539 0.24455,-0.16676 0.11748,-0.11468 0.20391,-0.26438 z" style="font-weight:normal;font-size:4.93889px;font-family:Sniglet;-inkscape-font-specification:Sniglet;stroke-width:0.315912;stroke-linecap:round;stroke-linejoin:round" id="SvgjsPath1150"></path>
          <g aria-label="Design by ms_potato" id="SvgjsG1149" style="font-weight:bold;font-size:2.11667px;font-family:Georgia;-inkscape-font-specification:'Georgia Bold';fill:#ffaf8c;stroke-width:0.315912;stroke-linecap:round;stroke-linejoin:round">
            <path d="m -122.16589,-532.03341 q 0.21802,0 0.34925,0.0656 0.13123,0.0656 0.20109,0.17357 0.0699,0.10795 0.091,0.24554 0.0233,0.13758 0.0233,0.2794 0,0.15451 -0.0402,0.2921 -0.0381,0.13758 -0.12065,0.2413 -0.0804,0.1016 -0.20744,0.16298 -0.127,0.0593 -0.30268,0.0593 -0.1397,0 -0.22437,-0.0212 -0.0825,-0.019 -0.12911,-0.0593 -0.0444,-0.0402 -0.0593,-0.1016 -0.0148,-0.0614 -0.0148,-0.14393 v -0.79587 q 0,-0.091 0.0148,-0.1651 0.0169,-0.0741 0.0635,-0.12488 0.0466,-0.0529 0.13123,-0.0804 0.0868,-0.0275 0.22437,-0.0275 z m 0.008,1.3081 q 0.13123,0 0.2159,-0.0466 0.0868,-0.0487 0.13758,-0.127 0.0508,-0.0783 0.0699,-0.1778 0.0212,-0.0995 0.0212,-0.2032 0,-0.0952 -0.0148,-0.1905 -0.0148,-0.0974 -0.0614,-0.17568 -0.0466,-0.0783 -0.13335,-0.127 -0.0868,-0.0487 -0.23072,-0.0487 -0.13123,0 -0.18203,0.0381 -0.0508,0.0381 -0.0508,0.11641 v 0.81069 q 0,0.0656 0.0466,0.0995 0.0487,0.0317 0.18204,0.0317 z" style="font-family:Sniglet;-inkscape-font-specification:'Sniglet Bold';fill:#000000" id="SvgjsPath1148"></path>
            <path d="m -120.79852,-530.92639 q -0.0741,0 -0.15663,-0.0106 -0.0804,-0.0127 -0.17569,-0.0508 0.0191,0.12912 0.10583,0.19474 0.0889,0.0656 0.25401,0.0656 0.0593,0 0.10583,-0.006 0.0487,-0.008 0.0847,-0.0169 0.036,-0.0106 0.0635,-0.0169 0.0275,-0.008 0.0508,-0.008 0.0296,0 0.0572,0.019 0.0275,0.0169 0.0275,0.0593 0,0.0529 -0.0444,0.0868 -0.0423,0.0339 -0.10583,0.055 -0.0614,0.019 -0.13123,0.0254 -0.0699,0.008 -0.12277,0.008 -0.12488,0 -0.23072,-0.0339 -0.10372,-0.0339 -0.17992,-0.1016 -0.0762,-0.0698 -0.11853,-0.17145 -0.0423,-0.1016 -0.0423,-0.23706 0,-0.13124 0.0402,-0.23284 0.0423,-0.1016 0.1143,-0.17145 0.072,-0.0698 0.16934,-0.10583 0.0995,-0.036 0.21378,-0.036 0.0889,0 0.17145,0.0233 0.0847,0.0233 0.14817,0.0699 0.0656,0.0466 0.10372,0.11853 0.0402,0.0698 0.0402,0.1651 0,0.0847 -0.0318,0.14394 -0.0318,0.0593 -0.091,0.0953 -0.0572,0.036 -0.1397,0.0529 -0.0804,0.0169 -0.17992,0.0169 z m -0.0148,-0.49107 q -0.0572,0 -0.11006,0.0148 -0.0529,0.0127 -0.0974,0.0444 -0.0423,0.0296 -0.072,0.0804 -0.0296,0.0487 -0.0402,0.12277 0.0804,0.036 0.15664,0.0508 0.0762,0.0127 0.16087,0.0127 0.12488,0 0.18415,-0.0296 0.0614,-0.0317 0.0614,-0.11218 0,-0.0741 -0.0572,-0.12912 -0.055,-0.055 -0.18627,-0.055 z" style="font-family:Sniglet;-inkscape-font-specification:'Sniglet Bold';fill:#000000" id="SvgjsPath1147"></path>
            <path d="m -119.78252,-531.64183 q 0.0445,0 0.11218,0.008 0.0677,0.006 0.12912,0.0275 0.0614,0.019 0.10583,0.055 0.0444,0.036 0.0444,0.091 0,0.0317 -0.019,0.055 -0.0169,0.0233 -0.055,0.0233 -0.0275,0 -0.0635,-0.008 -0.0339,-0.008 -0.0762,-0.019 -0.0402,-0.0127 -0.0889,-0.0212 -0.0466,-0.008 -0.0995,-0.008 -0.0889,0 -0.14605,0.0275 -0.055,0.0275 -0.055,0.0868 0,0.0339 0.0191,0.0571 0.0212,0.0233 0.055,0.0423 0.036,0.0169 0.0826,0.0296 0.0487,0.0127 0.1016,0.0254 0.0656,0.0169 0.12911,0.0381 0.0656,0.0212 0.11642,0.0593 0.0508,0.036 0.0825,0.0931 0.0318,0.055 0.0318,0.13758 0,0.15664 -0.11853,0.24977 -0.11854,0.091 -0.34925,0.091 -0.0508,0 -0.12065,-0.008 -0.0699,-0.006 -0.13124,-0.0275 -0.0614,-0.019 -0.10583,-0.055 -0.0423,-0.0381 -0.0423,-0.0995 0,-0.0423 0.019,-0.0635 0.0212,-0.0233 0.0508,-0.0233 0.0233,0 0.0487,0.0148 0.0254,0.0148 0.0614,0.0317 0.036,0.0169 0.0868,0.0317 0.0508,0.0148 0.12488,0.0148 0.0275,0 0.072,-0.002 0.0444,-0.004 0.0868,-0.019 0.0444,-0.0148 0.0741,-0.0402 0.0318,-0.0275 0.0318,-0.0762 0,-0.0381 -0.0212,-0.0635 -0.0212,-0.0275 -0.0572,-0.0466 -0.036,-0.019 -0.0847,-0.0317 -0.0466,-0.0148 -0.0995,-0.0296 -0.0614,-0.0169 -0.12489,-0.0381 -0.0614,-0.0212 -0.11218,-0.055 -0.0508,-0.0339 -0.0825,-0.0847 -0.0318,-0.0529 -0.0318,-0.12911 0,-0.072 0.0296,-0.13335 0.0296,-0.0635 0.0847,-0.11007 0.055,-0.0466 0.13123,-0.072 0.0783,-0.0254 0.17357,-0.0254 z" style="font-family:Sniglet;-inkscape-font-specification:'Sniglet Bold';fill:#000000" id="SvgjsPath1146"></path>
            <path d="m -119.16657,-530.66816 q -0.004,-0.0783 -0.008,-0.1778 -0.002,-0.1016 -0.002,-0.22225 0,-0.15028 0.002,-0.25612 0.002,-0.10795 0.0106,-0.17568 0.0106,-0.0698 0.0318,-0.1016 0.0212,-0.0339 0.0593,-0.0339 0.036,0 0.0635,0.0254 0.0275,0.0254 0.0318,0.11007 0.0127,0.22225 0.0127,0.42968 0,0.10584 -0.004,0.19897 -0.004,0.091 -0.008,0.20108 -0.002,0.0508 -0.0106,0.0783 -0.006,0.0275 -0.019,0.0423 -0.0127,0.0148 -0.0296,0.0169 -0.0148,0.004 -0.036,0.004 -0.0381,0 -0.0635,-0.0254 -0.0254,-0.0275 -0.0296,-0.1143 z m 0.0952,-1.35044 q 0.0487,0 0.0889,0.0381 0.0423,0.0381 0.0423,0.091 0,0.0508 -0.0423,0.0889 -0.0423,0.036 -0.0952,0.036 -0.0444,0 -0.0847,-0.036 -0.0381,-0.0381 -0.0381,-0.0931 0,-0.0508 0.0381,-0.0868 0.0402,-0.0381 0.091,-0.0381 z" style="font-family:Sniglet;-inkscape-font-specification:'Sniglet Bold';fill:#000000" id="SvgjsPath1145"></path>
            <path d="m -118.28604,-530.24694 q 0.0995,0 0.16722,-0.0402 0.0699,-0.0381 0.11218,-0.11218 0.0423,-0.072 0.0593,-0.17357 0.0191,-0.10372 0.0191,-0.23283 -0.0191,0.0677 -0.055,0.1143 -0.036,0.0466 -0.0847,0.0762 -0.0466,0.0275 -0.10583,0.0402 -0.0593,0.0127 -0.12277,0.0127 -0.0974,0 -0.18415,-0.0275 -0.0868,-0.0275 -0.1524,-0.0868 -0.0635,-0.0593 -0.1016,-0.15028 -0.0381,-0.0931 -0.0381,-0.22225 0,-0.12488 0.036,-0.2286 0.0381,-0.10583 0.10795,-0.18203 0.072,-0.0762 0.17357,-0.11854 0.1016,-0.0423 0.23283,-0.0423 0.0698,0 0.12277,0.0127 0.055,0.0127 0.0974,0.0339 0.0423,0.0212 0.0741,0.0508 0.0339,0.0296 0.0614,0.0635 0.0804,0.1016 0.11642,0.2413 0.036,0.13758 0.036,0.33231 0,0.14394 -0.0254,0.29422 -0.0233,0.15028 -0.0868,0.27093 -0.0635,0.12277 -0.17568,0.19897 -0.11219,0.0783 -0.28787,0.0783 -0.0317,0 -0.072,-0.004 -0.0381,-0.002 -0.0804,-0.008 -0.0402,-0.006 -0.0804,-0.019 -0.0402,-0.0106 -0.0741,-0.0296 -0.0423,-0.0233 -0.0677,-0.0444 -0.0254,-0.0212 -0.0254,-0.0698 0,-0.0402 0.0169,-0.0741 0.019,-0.0317 0.0635,-0.0317 0.0212,0 0.0466,0.0127 0.0254,0.0127 0.0614,0.0254 0.0381,0.0148 0.0889,0.0275 0.0529,0.0127 0.127,0.0127 z m 0.0106,-0.508 q 0.0826,0 0.1397,-0.0296 0.0593,-0.0317 0.0953,-0.0825 0.0381,-0.0508 0.055,-0.1143 0.0191,-0.0635 0.0191,-0.127 0,-0.0529 -0.0148,-0.10583 -0.0127,-0.055 -0.0444,-0.0995 -0.0318,-0.0444 -0.0868,-0.072 -0.055,-0.0275 -0.13758,-0.0275 -0.1397,0 -0.22649,0.0847 -0.0847,0.0847 -0.0847,0.24977 0,0.15451 0.0762,0.23918 0.0762,0.0847 0.20955,0.0847 z" style="font-family:Sniglet;-inkscape-font-specification:'Sniglet Bold';fill:#000000" id="SvgjsPath1144"></path>
            <path d="m -117.0245,-531.43863 q -0.0783,0 -0.14182,0.0254 -0.0614,0.0254 -0.1397,0.0762 0,0.0444 0,0.13124 0,0.0847 -0.002,0.18626 -0.002,0.0995 -0.004,0.19685 -0.002,0.0974 -0.008,0.16299 -0.004,0.0423 -0.0106,0.0677 -0.004,0.0233 -0.0148,0.036 -0.008,0.0127 -0.0254,0.0169 -0.0148,0.002 -0.0402,0.002 -0.0254,0 -0.0423,-0.002 -0.0148,-0.004 -0.0254,-0.0148 -0.0106,-0.0127 -0.0169,-0.036 -0.006,-0.0233 -0.0106,-0.0635 -0.004,-0.0381 -0.008,-0.1016 -0.002,-0.0635 -0.004,-0.13759 -0.002,-0.0762 -0.004,-0.1524 0,-0.0783 0,-0.14393 0,-0.10795 0.002,-0.17568 0.004,-0.0677 0.0127,-0.12065 0.0127,-0.0889 0.0339,-0.11219 0.0212,-0.0233 0.0572,-0.0233 0.0529,0 0.0783,0.0296 0.0275,0.0296 0.0339,0.0974 0.0783,-0.0677 0.16722,-0.10795 0.091,-0.0402 0.18626,-0.0402 0.091,0 0.1651,0.0423 0.0762,0.0423 0.12489,0.13758 0.0296,0.0571 0.0444,0.127 0.0148,0.0677 0.0212,0.14393 0.002,0.0339 0.004,0.0677 0.002,0.0317 0.002,0.0698 0.002,0.036 0.002,0.0826 0,0.0466 0,0.11006 0,0.0677 -0.002,0.127 -0.002,0.0593 -0.0127,0.10372 -0.008,0.0423 -0.0318,0.0677 -0.0233,0.0233 -0.0635,0.0233 -0.0974,0 -0.1016,-0.0931 0,-0.006 0,-0.0529 0,-0.0487 -0.002,-0.11219 0,-0.0635 -0.002,-0.12911 0,-0.0656 -0.002,-0.10795 -0.002,-0.0339 -0.006,-0.072 -0.002,-0.0402 -0.008,-0.0804 -0.004,-0.0402 -0.0127,-0.0762 -0.008,-0.0381 -0.0212,-0.0677 -0.0296,-0.0698 -0.0741,-0.0889 -0.0444,-0.019 -0.0953,-0.019 z" style="font-family:Sniglet;-inkscape-font-specification:'Sniglet Bold';fill:#000000" id="SvgjsPath1143"></path>
            <path d="m -115.66772,-531.92123 q 0,0.127 -0.008,0.2667 -0.006,0.13759 -0.0169,0.26882 0.0275,-0.0571 0.072,-0.0974 0.0444,-0.0423 0.0974,-0.0677 0.055,-0.0254 0.1143,-0.0381 0.0593,-0.0127 0.1143,-0.0127 0.0953,0 0.1778,0.036 0.0847,0.0339 0.14605,0.1016 0.0635,0.0656 0.0974,0.1651 0.036,0.0974 0.036,0.22437 0,0.12277 -0.036,0.22437 -0.036,0.1016 -0.10795,0.17568 -0.0699,0.072 -0.17568,0.11218 -0.10372,0.0402 -0.23919,0.0402 -0.18415,0 -0.28998,-0.0741 -0.10372,-0.0741 -0.15452,-0.19685 -0.0508,-0.12489 -0.0635,-0.28575 -0.0106,-0.16087 -0.0106,-0.33655 0,-0.1778 0.006,-0.32174 0.006,-0.14393 0.019,-0.23283 0.0127,-0.0804 0.0423,-0.1143 0.0296,-0.0339 0.0783,-0.0339 0.036,0 0.0571,0.0169 0.0212,0.0148 0.0296,0.0423 0.0106,0.0275 0.0127,0.0635 0.002,0.0339 0.002,0.0741 z m 0.31327,0.52917 q -0.0614,0 -0.11854,0.0212 -0.055,0.019 -0.0995,0.0614 -0.0423,0.0423 -0.0677,0.10795 -0.0254,0.0635 -0.0254,0.15452 0,0.16086 0.0783,0.24553 0.0804,0.0825 0.21379,0.0825 0.055,0 0.11218,-0.0148 0.0571,-0.0169 0.10372,-0.055 0.0466,-0.0402 0.0762,-0.10583 0.0296,-0.0656 0.0296,-0.16299 0,-0.0868 -0.0254,-0.15028 -0.0233,-0.0635 -0.0656,-0.10372 -0.0423,-0.0423 -0.0974,-0.0614 -0.055,-0.019 -0.1143,-0.019 z" style="font-family:Sniglet;-inkscape-font-specification:'Sniglet Bold';fill:#000000" id="SvgjsPath1142"></path>
            <path d="m -114.41254,-530.14958 q -0.0275,0.0487 -0.0529,0.072 -0.0233,0.0233 -0.055,0.0233 -0.0296,0 -0.0593,-0.019 -0.0296,-0.019 -0.0296,-0.0529 0,-0.0317 0.0212,-0.091 0.0233,-0.0593 0.055,-0.12912 0.0339,-0.0698 0.0699,-0.14393 0.036,-0.0741 0.0656,-0.13547 l 0.0148,-0.0318 q -0.0635,-0.12488 -0.13123,-0.2667 -0.0656,-0.14181 -0.12065,-0.26881 -0.055,-0.127 -0.091,-0.22014 -0.0339,-0.0952 -0.0339,-0.12488 0,-0.0275 0.0212,-0.0466 0.0233,-0.0212 0.0572,-0.0212 0.0296,0 0.0571,0.0127 0.0275,0.0106 0.0508,0.0508 0.0339,0.0635 0.0699,0.14605 0.0381,0.0804 0.0741,0.16933 0.0381,0.0889 0.0762,0.17992 0.0402,0.091 0.0804,0.17568 0.0466,-0.0868 0.0995,-0.18203 0.0529,-0.0952 0.1016,-0.18415 0.0508,-0.0889 0.0931,-0.16299 0.0423,-0.0762 0.072,-0.127 0.0296,-0.0487 0.0593,-0.0699 0.0296,-0.0212 0.0614,-0.0212 0.0212,0 0.0423,0.0191 0.0212,0.0169 0.0212,0.0466 0,0.0444 -0.0402,0.14394 -0.0381,0.0974 -0.0995,0.22648 -0.0614,0.12912 -0.1397,0.27728 -0.0762,0.14605 -0.1524,0.28787 -0.0762,0.1397 -0.14605,0.26247 -0.0677,0.12276 -0.11218,0.20531 z" style="font-family:Sniglet;-inkscape-font-specification:'Sniglet Bold';fill:#000000" id="SvgjsPath1141"></path>
            <path d="m -111.69474,-530.60043 q -0.0127,-0.036 -0.0169,-0.0804 -0.002,-0.0444 -0.002,-0.11007 0,-0.0466 0,-0.072 0.002,-0.0275 0.002,-0.0466 0,-0.0212 0,-0.0402 0.002,-0.0212 0.002,-0.0572 0,-0.0741 -0.004,-0.14816 -0.002,-0.0762 -0.0212,-0.13547 -0.0191,-0.0614 -0.0593,-0.0995 -0.0402,-0.0381 -0.11642,-0.0381 -0.12911,0 -0.20108,0.12276 -0.072,0.12277 -0.0868,0.39159 -0.004,0.0847 -0.004,0.15451 0,0.0698 -0.008,0.12065 -0.008,0.0487 -0.0317,0.0762 -0.0212,0.0275 -0.072,0.0275 -0.0466,0 -0.0677,-0.0233 -0.0212,-0.0254 -0.0318,-0.0741 -0.008,-0.0487 -0.0106,-0.11853 0,-0.0698 -0.006,-0.16298 -0.006,-0.1016 -0.0212,-0.19474 -0.0127,-0.0931 -0.0444,-0.16298 -0.0296,-0.072 -0.0825,-0.1143 -0.0508,-0.0423 -0.13124,-0.0423 -0.0762,0 -0.11853,0.0381 -0.0402,0.036 -0.0593,0.0974 -0.019,0.0593 -0.0233,0.13547 -0.002,0.0741 -0.002,0.15028 0,0.0381 0,0.0572 0.002,0.0169 0.002,0.0317 0,0.0148 0,0.0381 0.002,0.0233 0.002,0.072 0,0.0698 -0.004,0.12065 -0.002,0.0508 -0.0148,0.0868 -0.0148,0.0423 -0.0402,0.0529 -0.0254,0.008 -0.0466,0.008 -0.0656,0 -0.0847,-0.0466 -0.019,-0.0466 -0.0212,-0.13547 0,-0.0487 -0.002,-0.10795 0,-0.0614 0,-0.14816 0,-0.0423 0,-0.0741 0,-0.0317 0,-0.0614 0.002,-0.0296 0.002,-0.0593 0.002,-0.0317 0.004,-0.072 0.006,-0.12912 0.0466,-0.20532 0.0402,-0.0783 0.0953,-0.11853 0.055,-0.0402 0.11853,-0.0508 0.0635,-0.0127 0.11642,-0.0127 0.1143,0 0.19262,0.0339 0.0783,0.0339 0.127,0.0889 0.0508,0.055 0.0741,0.12489 0.0254,0.0698 0.0339,0.14181 0.008,-0.0699 0.0339,-0.13758 0.0275,-0.0698 0.0783,-0.12277 0.0529,-0.055 0.13547,-0.0889 0.0825,-0.0339 0.2032,-0.0339 0.0571,0 0.11641,0.0127 0.0614,0.0106 0.11219,0.0508 0.0508,0.0402 0.0847,0.11641 0.036,0.0741 0.0423,0.20109 0.002,0.0402 0.002,0.072 0.002,0.0296 0.002,0.0593 0.002,0.0296 0.002,0.0614 0,0.0317 0,0.0741 0,0.0868 -0.002,0.14816 0,0.0593 0,0.10795 0,0.0402 -0.004,0.0741 -0.002,0.0339 -0.0127,0.0571 -0.0106,0.0233 -0.0318,0.0381 -0.0191,0.0127 -0.0572,0.0127 -0.036,0 -0.055,-0.0127 -0.0191,-0.0148 -0.0318,-0.0487 z" style="font-family:Sniglet;-inkscape-font-specification:'Sniglet Bold';fill:#000000" id="SvgjsPath1140"></path>
            <path d="m -110.87982,-531.64183 q 0.0444,0 0.11218,0.008 0.0677,0.006 0.12912,0.0275 0.0614,0.019 0.10583,0.055 0.0444,0.036 0.0444,0.091 0,0.0317 -0.019,0.055 -0.0169,0.0233 -0.055,0.0233 -0.0275,0 -0.0635,-0.008 -0.0339,-0.008 -0.0762,-0.019 -0.0402,-0.0127 -0.0889,-0.0212 -0.0466,-0.008 -0.0995,-0.008 -0.0889,0 -0.14605,0.0275 -0.055,0.0275 -0.055,0.0868 0,0.0339 0.019,0.0571 0.0212,0.0233 0.055,0.0423 0.036,0.0169 0.0825,0.0296 0.0487,0.0127 0.1016,0.0254 0.0656,0.0169 0.12911,0.0381 0.0656,0.0212 0.11642,0.0593 0.0508,0.036 0.0825,0.0931 0.0318,0.055 0.0318,0.13758 0,0.15664 -0.11853,0.24977 -0.11854,0.091 -0.34925,0.091 -0.0508,0 -0.12065,-0.008 -0.0698,-0.006 -0.13124,-0.0275 -0.0614,-0.019 -0.10583,-0.055 -0.0423,-0.0381 -0.0423,-0.0995 0,-0.0423 0.0191,-0.0635 0.0212,-0.0233 0.0508,-0.0233 0.0233,0 0.0487,0.0148 0.0254,0.0148 0.0614,0.0317 0.036,0.0169 0.0868,0.0317 0.0508,0.0148 0.12488,0.0148 0.0275,0 0.072,-0.002 0.0444,-0.004 0.0868,-0.019 0.0444,-0.0148 0.0741,-0.0402 0.0318,-0.0275 0.0318,-0.0762 0,-0.0381 -0.0212,-0.0635 -0.0212,-0.0275 -0.0572,-0.0466 -0.036,-0.019 -0.0847,-0.0317 -0.0466,-0.0148 -0.0995,-0.0296 -0.0614,-0.0169 -0.12489,-0.0381 -0.0614,-0.0212 -0.11218,-0.055 -0.0508,-0.0339 -0.0825,-0.0847 -0.0318,-0.0529 -0.0318,-0.12911 0,-0.072 0.0296,-0.13335 0.0296,-0.0635 0.0847,-0.11007 0.055,-0.0466 0.13123,-0.072 0.0783,-0.0254 0.17357,-0.0254 z" style="font-family:Sniglet;-inkscape-font-specification:'Sniglet Bold';fill:#000000" id="SvgjsPath1139"></path>
            <path d="m -109.2775,-530.49459 q -0.14605,0.004 -0.35984,0.006 -0.21166,0.004 -0.4826,0.004 -0.14393,0 -0.20531,-0.0169 -0.0614,-0.0169 -0.0614,-0.0868 0,-0.019 0.004,-0.0339 0.004,-0.0169 0.0191,-0.0296 0.0148,-0.0148 0.0402,-0.0233 0.0275,-0.008 0.0698,-0.0127 0.0445,-0.002 0.091,-0.004 0.0487,-0.002 0.10795,-0.002 0.0614,-0.002 0.1397,-0.002 0.0783,0 0.18415,0 0.1143,0 0.22648,0.002 0.11219,0 0.22437,0.006 0.0508,0.002 0.0783,0.0106 0.0275,0.008 0.0423,0.0212 0.0148,0.0127 0.0169,0.0296 0.004,0.0169 0.004,0.0381 0,0.0381 -0.0275,0.0635 -0.0254,0.0254 -0.11218,0.0296 z" style="font-family:Sniglet;-inkscape-font-specification:'Sniglet Bold';fill:#000000" id="SvgjsPath1138"></path>
            <path d="m -108.75681,-530.23213 q 0,0.0402 -0.002,0.0762 -0.002,0.0381 -0.0148,0.0677 -0.0106,0.0296 -0.0339,0.0466 -0.0212,0.0191 -0.0614,0.0191 -0.0466,0 -0.0783,-0.0339 -0.0296,-0.0318 -0.0339,-0.1143 -0.002,-0.0529 -0.006,-0.12912 -0.004,-0.0762 -0.008,-0.16087 -0.002,-0.0847 -0.006,-0.16933 -0.002,-0.0847 -0.002,-0.15663 0,-0.24765 0.0339,-0.40852 0.036,-0.16087 0.10583,-0.25612 0.0699,-0.0952 0.17145,-0.13335 0.10372,-0.0381 0.23919,-0.0381 0.10795,0 0.2032,0.0339 0.0952,0.0318 0.1651,0.1016 0.072,0.0677 0.1143,0.1778 0.0423,0.10795 0.0423,0.26035 0,0.127 -0.0444,0.22437 -0.0423,0.0974 -0.11853,0.1651 -0.0762,0.0656 -0.17992,0.1016 -0.1016,0.0339 -0.21801,0.0339 -0.0995,0 -0.17992,-0.0402 -0.0783,-0.0423 -0.11219,-0.091 0.0106,0.11853 0.0169,0.22013 0.008,0.1016 0.008,0.2032 z m 0.29211,-1.17898 q -0.0741,0 -0.12912,0.0254 -0.0529,0.0254 -0.0868,0.0698 -0.0339,0.0445 -0.0508,0.10583 -0.0148,0.0614 -0.0148,0.13335 0,0.0698 0.0127,0.13335 0.0148,0.0614 0.0466,0.10795 0.0318,0.0466 0.0847,0.0741 0.0529,0.0275 0.12912,0.0275 0.0593,0 0.1143,-0.0148 0.055,-0.0169 0.0974,-0.055 0.0444,-0.0381 0.0699,-0.1016 0.0275,-0.0635 0.0275,-0.15875 0,-0.0974 -0.0275,-0.16298 -0.0254,-0.0677 -0.0699,-0.10795 -0.0423,-0.0423 -0.0974,-0.0593 -0.0529,-0.0169 -0.10583,-0.0169 z" style="font-family:Sniglet;-inkscape-font-specification:'Sniglet Bold';fill:#000000" id="SvgjsPath1137"></path>
            <path d="m -107.23069,-531.61008 q 0.12065,0 0.2159,0.0381 0.0953,0.036 0.16087,0.10372 0.0677,0.0677 0.10371,0.1651 0.036,0.0974 0.036,0.21802 0,0.13335 -0.0423,0.23918 -0.0402,0.10583 -0.1143,0.17992 -0.072,0.0741 -0.17357,0.1143 -0.0995,0.0402 -0.21801,0.0402 -0.12912,0 -0.2286,-0.0444 -0.0974,-0.0444 -0.1651,-0.12065 -0.0656,-0.0762 -0.0995,-0.17568 -0.0339,-0.0995 -0.0339,-0.20955 0,-0.12065 0.0381,-0.22013 0.0402,-0.1016 0.11218,-0.17357 0.0741,-0.0741 0.1778,-0.1143 0.10372,-0.0402 0.23072,-0.0402 z m -0.0233,0.90382 q 0.0868,0 0.14817,-0.0296 0.0614,-0.0317 0.0995,-0.0825 0.0402,-0.0508 0.0572,-0.1143 0.019,-0.0656 0.019,-0.13547 0,-0.072 -0.019,-0.13335 -0.0169,-0.0635 -0.055,-0.11007 -0.036,-0.0466 -0.0952,-0.072 -0.0572,-0.0275 -0.13758,-0.0275 -0.0826,0 -0.14394,0.0275 -0.0614,0.0275 -0.10371,0.0762 -0.0402,0.0466 -0.0614,0.11218 -0.0212,0.0656 -0.0212,0.14182 0,0.15451 0.0783,0.25188 0.0804,0.0952 0.23495,0.0952 z" style="font-family:Sniglet;-inkscape-font-specification:'Sniglet Bold';fill:#000000" id="SvgjsPath1136"></path>
            <path d="m -106.36498,-530.67451 q -0.006,-0.13335 -0.008,-0.31538 0,-0.18415 0,-0.41699 -0.0212,0.002 -0.0508,0.002 -0.0275,0 -0.0444,0 -0.0381,0 -0.0699,-0.002 -0.0296,-0.002 -0.0529,-0.0127 -0.0233,-0.0106 -0.036,-0.0296 -0.0127,-0.0212 -0.0127,-0.0571 0,-0.1016 0.1524,-0.1016 0.0233,0 0.0572,0 0.0339,0 0.0571,0.004 0,-0.11218 0.004,-0.17991 0.004,-0.0677 0.0148,-0.10372 0.0127,-0.0381 0.0317,-0.0487 0.0212,-0.0127 0.0529,-0.0127 0.0339,0 0.055,0.0233 0.0212,0.0233 0.0318,0.0593 0.0127,0.036 0.0148,0.0804 0.004,0.0444 0.004,0.0868 0,0.0296 -0.002,0.055 0,0.0233 0,0.0423 0.0296,-0.008 0.0614,-0.008 0.0318,-0.002 0.0614,-0.002 0.0783,0 0.12065,0.0254 0.0423,0.0233 0.0423,0.0783 0,0.0339 -0.0148,0.055 -0.0148,0.019 -0.0402,0.0296 -0.0233,0.0106 -0.0572,0.0148 -0.0318,0.002 -0.0699,0.002 -0.0212,0 -0.0487,0 -0.0275,0 -0.0508,-0.004 0,0.11218 0,0.20532 0,0.0931 -0.002,0.17991 -0.002,0.0847 -0.004,0.16934 -0.002,0.0847 -0.006,0.17991 -0.002,0.0508 -0.0106,0.0783 -0.006,0.0275 -0.0191,0.0423 -0.0127,0.0148 -0.0296,0.019 -0.0148,0.002 -0.036,0.002 -0.0381,0 -0.0656,-0.0254 -0.0254,-0.0275 -0.0296,-0.1143 z" style="font-family:Sniglet;-inkscape-font-specification:'Sniglet Bold';fill:#000000" id="SvgjsPath1135"></path>
            <path d="m -104.83886,-530.52846 q -0.0339,0 -0.055,-0.0106 -0.0191,-0.0127 -0.0296,-0.0317 -0.0106,-0.019 -0.0148,-0.0444 -0.004,-0.0275 -0.006,-0.0571 -0.0529,0.0656 -0.13759,0.11006 -0.0825,0.0444 -0.21166,0.0444 -0.0825,0 -0.16934,-0.0233 -0.0847,-0.0254 -0.15451,-0.0847 -0.0699,-0.0614 -0.1143,-0.16298 -0.0444,-0.1016 -0.0444,-0.25612 0,-0.12065 0.0296,-0.22648 0.0296,-0.10583 0.0889,-0.18415 0.0614,-0.0804 0.1524,-0.127 0.091,-0.0466 0.21378,-0.0466 0.10795,0 0.19262,0.0402 0.0847,0.0381 0.1524,0.127 0,-0.0254 0.002,-0.0508 0.002,-0.0275 0.0106,-0.0487 0.0106,-0.0233 0.0318,-0.036 0.0212,-0.0148 0.0572,-0.0148 0.0317,0 0.0593,0.0254 0.0275,0.0254 0.0318,0.11006 0.006,0.11219 0.008,0.20109 0.004,0.0889 0.004,0.18415 0,0.11641 -0.002,0.21378 -0.002,0.0974 -0.0106,0.20743 -0.004,0.0487 -0.0127,0.0783 -0.006,0.0275 -0.0169,0.0423 -0.0106,0.0127 -0.0254,0.0169 -0.0148,0.004 -0.0296,0.004 z m -0.1143,-0.53763 q 0,-0.11007 -0.0339,-0.17992 -0.0318,-0.0699 -0.0825,-0.10795 -0.0487,-0.0402 -0.10583,-0.055 -0.0572,-0.0148 -0.10583,-0.0148 -0.0762,0 -0.13124,0.0275 -0.0529,0.0275 -0.0868,0.0762 -0.0339,0.0466 -0.0508,0.11218 -0.0148,0.0635 -0.0148,0.1397 0,0.18627 0.0804,0.27517 0.0826,0.0889 0.22225,0.0889 0.0825,0 0.1397,-0.0275 0.0593,-0.0296 0.0952,-0.0783 0.0381,-0.0487 0.055,-0.1143 0.0191,-0.0677 0.0191,-0.14181 z" style="font-family:Sniglet;-inkscape-font-specification:'Sniglet Bold';fill:#000000" id="SvgjsPath1134"></path>
            <path d="m -104.31181,-530.67451 q -0.006,-0.13335 -0.008,-0.31538 0,-0.18415 0,-0.41699 -0.0212,0.002 -0.0508,0.002 -0.0275,0 -0.0444,0 -0.0381,0 -0.0699,-0.002 -0.0296,-0.002 -0.0529,-0.0127 -0.0233,-0.0106 -0.036,-0.0296 -0.0127,-0.0212 -0.0127,-0.0571 0,-0.1016 0.1524,-0.1016 0.0233,0 0.0571,0 0.0339,0 0.0572,0.004 0,-0.11218 0.004,-0.17991 0.004,-0.0677 0.0148,-0.10372 0.0127,-0.0381 0.0318,-0.0487 0.0212,-0.0127 0.0529,-0.0127 0.0339,0 0.055,0.0233 0.0212,0.0233 0.0318,0.0593 0.0127,0.036 0.0148,0.0804 0.004,0.0444 0.004,0.0868 0,0.0296 -0.002,0.055 0,0.0233 0,0.0423 0.0296,-0.008 0.0614,-0.008 0.0318,-0.002 0.0614,-0.002 0.0783,0 0.12065,0.0254 0.0423,0.0233 0.0423,0.0783 0,0.0339 -0.0148,0.055 -0.0148,0.019 -0.0402,0.0296 -0.0233,0.0106 -0.0571,0.0148 -0.0318,0.002 -0.0699,0.002 -0.0212,0 -0.0487,0 -0.0275,0 -0.0508,-0.004 0,0.11218 0,0.20532 0,0.0931 -0.002,0.17991 -0.002,0.0847 -0.004,0.16934 -0.002,0.0847 -0.006,0.17991 -0.002,0.0508 -0.0106,0.0783 -0.006,0.0275 -0.0191,0.0423 -0.0127,0.0148 -0.0296,0.019 -0.0148,0.002 -0.036,0.002 -0.0381,0 -0.0656,-0.0254 -0.0254,-0.0275 -0.0296,-0.1143 z" style="font-family:Sniglet;-inkscape-font-specification:'Sniglet Bold';fill:#000000" id="SvgjsPath1133"></path>
            <path d="m -103.18574,-531.61008 q 0.12065,0 0.2159,0.0381 0.0953,0.036 0.16087,0.10372 0.0677,0.0677 0.10371,0.1651 0.036,0.0974 0.036,0.21802 0,0.13335 -0.0423,0.23918 -0.0402,0.10583 -0.1143,0.17992 -0.072,0.0741 -0.17356,0.1143 -0.0995,0.0402 -0.21802,0.0402 -0.12912,0 -0.2286,-0.0444 -0.0974,-0.0444 -0.1651,-0.12065 -0.0656,-0.0762 -0.0995,-0.17568 -0.0339,-0.0995 -0.0339,-0.20955 0,-0.12065 0.0381,-0.22013 0.0402,-0.1016 0.11218,-0.17357 0.0741,-0.0741 0.1778,-0.1143 0.10372,-0.0402 0.23072,-0.0402 z m -0.0233,0.90382 q 0.0868,0 0.14816,-0.0296 0.0614,-0.0317 0.0995,-0.0825 0.0402,-0.0508 0.0572,-0.1143 0.019,-0.0656 0.019,-0.13547 0,-0.072 -0.019,-0.13335 -0.0169,-0.0635 -0.055,-0.11007 -0.036,-0.0466 -0.0952,-0.072 -0.0572,-0.0275 -0.13758,-0.0275 -0.0826,0 -0.14393,0.0275 -0.0614,0.0275 -0.10372,0.0762 -0.0402,0.0466 -0.0614,0.11218 -0.0212,0.0656 -0.0212,0.14182 0,0.15451 0.0783,0.25188 0.0804,0.0952 0.23495,0.0952 z" style="font-family:Sniglet;-inkscape-font-specification:'Sniglet Bold';fill:#000000" id="SvgjsPath1132"></path>
          </g>
        </g>
      </g>
    </g>
  </g>
  <style type="text/css" id="SvgjsStyle1131">
	.st0{fill:#75AADB;}
	.st1{fill:#4D4D4D;}
	.st2{fill:#FFFFFF;}
	.st3{fill:url(#SVGID_1_);}
	.st4{fill:url(#SVGID_2_);}
	.st5{fill:url(#SVGID_3_);}
	.st6{fill:url(#SVGID_4_);}
	.st7{fill:url(#SVGID_5_);}
	.st8{fill:url(#SVGID_6_);}
	.st9{fill:url(#SVGID_7_);}
	.st10{fill:url(#SVGID_8_);}
	.st11{fill:url(#SVGID_9_);}
	.st12{fill:url(#SVGID_10_);}
	.st13{opacity:0.18;fill:url(#SVGID_11_);}
	.st14{opacity:0.3;}
</style>
  <style type="text/css" id="SvgjsStyle1130">
	.st0{fill:#75AADB;}
	.st1{fill:#4D4D4D;}
	.st2{fill:#FFFFFF;}
	.st3{fill:url(#SVGID_1_);}
	.st4{fill:url(#SVGID_2_);}
	.st5{fill:url(#SVGID_3_);}
	.st6{fill:url(#SVGID_4_);}
	.st7{fill:url(#SVGID_5_);}
	.st8{fill:url(#SVGID_6_);}
	.st9{fill:url(#SVGID_7_);}
	.st10{fill:url(#SVGID_8_);}
	.st11{fill:url(#SVGID_9_);}
	.st12{fill:url(#SVGID_10_);}
	.st13{opacity:0.18;fill:url(#SVGID_11_);}
	.st14{opacity:0.3;}
</style>
  <style type="text/css" id="SvgjsStyle1129">
	.st0{fill:#75AADB;}
	.st1{fill:#4D4D4D;}
	.st2{fill:#FFFFFF;}
	.st3{fill:url(#SVGID_1_);}
	.st4{fill:url(#SVGID_2_);}
	.st5{fill:url(#SVGID_3_);}
	.st6{fill:url(#SVGID_4_);}
	.st7{fill:url(#SVGID_5_);}
	.st8{fill:url(#SVGID_6_);}
	.st9{fill:url(#SVGID_7_);}
	.st10{fill:url(#SVGID_8_);}
	.st11{fill:url(#SVGID_9_);}
	.st12{fill:url(#SVGID_10_);}
	.st13{opacity:0.18;fill:url(#SVGID_11_);}
	.st14{opacity:0.3;}
</style>
  <style type="text/css" id="SvgjsStyle1128">
	.st0{fill:#75AADB;}
	.st1{fill:#4D4D4D;}
	.st2{fill:#FFFFFF;}
	.st3{fill:url(#SVGID_1_);}
	.st4{fill:url(#SVGID_2_);}
	.st5{fill:url(#SVGID_3_);}
	.st6{fill:url(#SVGID_4_);}
	.st7{fill:url(#SVGID_5_);}
	.st8{fill:url(#SVGID_6_);}
	.st9{fill:url(#SVGID_7_);}
	.st10{fill:url(#SVGID_8_);}
	.st11{fill:url(#SVGID_9_);}
	.st12{fill:url(#SVGID_10_);}
	.st13{opacity:0.18;fill:url(#SVGID_11_);}
	.st14{opacity:0.3;}
</style>
  <style type="text/css" id="SvgjsStyle1127">
	.st0{fill:#75AADB;}
	.st1{fill:#4D4D4D;}
	.st2{fill:#FFFFFF;}
	.st3{fill:url(#SVGID_1_);}
	.st4{fill:url(#SVGID_2_);}
	.st5{fill:url(#SVGID_3_);}
	.st6{fill:url(#SVGID_4_);}
	.st7{fill:url(#SVGID_5_);}
	.st8{fill:url(#SVGID_6_);}
	.st9{fill:url(#SVGID_7_);}
	.st10{fill:url(#SVGID_8_);}
	.st11{fill:url(#SVGID_9_);}
	.st12{fill:url(#SVGID_10_);}
	.st13{opacity:0.18;fill:url(#SVGID_11_);}
	.st14{opacity:0.3;}
</style>
  <style type="text/css" id="SvgjsStyle1126">
	.st0{fill:#75AADB;}
	.st1{fill:#4D4D4D;}
	.st2{fill:#FFFFFF;}
	.st3{fill:url(#SVGID_1_);}
	.st4{fill:url(#SVGID_2_);}
	.st5{fill:url(#SVGID_3_);}
	.st6{fill:url(#SVGID_4_);}
	.st7{fill:url(#SVGID_5_);}
	.st8{fill:url(#SVGID_6_);}
	.st9{fill:url(#SVGID_7_);}
	.st10{fill:url(#SVGID_8_);}
	.st11{fill:url(#SVGID_9_);}
	.st12{fill:url(#SVGID_10_);}
	.st13{opacity:0.18;fill:url(#SVGID_11_);}
	.st14{opacity:0.3;}
</style>
</svg><style>@media (prefers-color-scheme: light) { :root { filter: none; } }
@media (prefers-color-scheme: dark) { :root { filter: none; } }
</style></svg>