<?xml version="1.0" encoding="UTF-8" standalone="no"?>
<!-- Created with Inkscape (http://www.inkscape.org/) -->

<svg
   width="43.929581mm"
   height="50.831631mm"
   viewBox="0 0 43.929581 50.831631"
   version="1.1"
   id="svg5"
   inkscape:version="1.1.2 (0a00cf5339, 2022-02-04)"
   sodipodi:docname="logo.svg"
   xmlns:inkscape="http://www.inkscape.org/namespaces/inkscape"
   xmlns:sodipodi="http://sodipodi.sourceforge.net/DTD/sodipodi-0.dtd"
   xmlns="http://www.w3.org/2000/svg"
   xmlns:svg="http://www.w3.org/2000/svg">
  <sodipodi:namedview
     id="namedview7"
     pagecolor="#ffffff"
     bordercolor="#000000"
     borderopacity="0.25"
     inkscape:pageshadow="2"
     inkscape:pageopacity="0.0"
     inkscape:pagecheckerboard="0"
     inkscape:document-units="mm"
     showgrid="false"
     inkscape:zoom="3.559358"
     inkscape:cx="1.5452225"
     inkscape:cy="60.404152"
     inkscape:window-width="1920"
     inkscape:window-height="1043"
     inkscape:window-x="0"
     inkscape:window-y="0"
     inkscape:window-maximized="1"
     inkscape:current-layer="layer1"
     showguides="true"
     inkscape:guide-bbox="true"
     fit-margin-top="0"
     fit-margin-left="0"
     fit-margin-right="0"
     fit-margin-bottom="0" />
  <defs
     id="defs2">
    <inkscape:perspective
       sodipodi:type="inkscape:persp3d"
       inkscape:vp_x="0 : 635.96801 : 1"
       inkscape:vp_y="0 : 999.99996 : 0"
       inkscape:vp_z="1500 : 635.96801 : 1"
       inkscape:persp3d-origin="750 : 341.92255 : 1"
       id="perspective4362" />
    <clipPath
       id="clp12">
      <path
         d="m 45.315,71.927 h 12.92 v 15.867 h -12.92 z"
         id="path184"
         inkscape:connector-curvature="0" />
    </clipPath>
    <clipPath
       id="clp21">
      <path
         d="m 123.91,72.178 h 26.23 v 15.294 h -26.23 z"
         id="path592"
         inkscape:connector-curvature="0" />
    </clipPath>
    <clipPath
       id="clp9">
      <path
         d="m 413.96,49.857 h 31.76 v 8.719 h -31.76 z"
         id="path100"
         inkscape:connector-curvature="0" />
    </clipPath>
    <inkscape:perspective
       sodipodi:type="inkscape:persp3d"
       inkscape:vp_x="0 : 389.7996 : 1"
       inkscape:vp_y="0 : 999.99992 : 0"
       inkscape:vp_z="1500 : 389.7996 : 1"
       inkscape:persp3d-origin="749.99998 : 95.754155 : 1"
       id="perspective4362-535" />
    <clipPath
       id="clp12-6">
      <path
         d="m 45.315,71.927 h 12.92 v 15.867 h -12.92 z"
         id="path184-2"
         inkscape:connector-curvature="0" />
    </clipPath>
    <clipPath
       id="clp21-9">
      <path
         d="m 123.91,72.178 h 26.23 v 15.294 h -26.23 z"
         id="path592-12"
         inkscape:connector-curvature="0" />
    </clipPath>
    <clipPath
       id="clp9-7">
      <path
         d="m 413.96,49.857 h 31.76 v 8.719 h -31.76 z"
         id="path100-0"
         inkscape:connector-curvature="0" />
    </clipPath>
    <inkscape:perspective
       sodipodi:type="inkscape:persp3d"
       inkscape:vp_x="0 : 389.7996 : 1"
       inkscape:vp_y="0 : 999.99992 : 0"
       inkscape:vp_z="1500 : 389.7996 : 1"
       inkscape:persp3d-origin="749.99998 : 95.754155 : 1"
       id="perspective4362-5" />
    <clipPath
       id="clp12-3">
      <path
         d="m 45.315,71.927 h 12.92 v 15.867 h -12.92 z"
         id="path184-5"
         inkscape:connector-curvature="0" />
    </clipPath>
    <clipPath
       id="clp21-6">
      <path
         d="m 123.91,72.178 h 26.23 v 15.294 h -26.23 z"
         id="path592-2"
         inkscape:connector-curvature="0" />
    </clipPath>
    <clipPath
       id="clp9-9">
      <path
         d="m 413.96,49.857 h 31.76 v 8.719 h -31.76 z"
         id="path100-1"
         inkscape:connector-curvature="0" />
    </clipPath>
    <inkscape:perspective
       sodipodi:type="inkscape:persp3d"
       inkscape:vp_x="0 : 635.96801 : 1"
       inkscape:vp_y="0 : 999.99996 : 0"
       inkscape:vp_z="1500 : 635.96801 : 1"
       inkscape:persp3d-origin="750 : 341.92255 : 1"
       id="perspective4362-9" />
    <clipPath
       id="clp12-37">
      <path
         d="m 45.315,71.927 h 12.92 v 15.867 h -12.92 z"
         id="path184-4"
         inkscape:connector-curvature="0" />
    </clipPath>
    <clipPath
       id="clp21-5">
      <path
         d="m 123.91,72.178 h 26.23 v 15.294 h -26.23 z"
         id="path592-25"
         inkscape:connector-curvature="0" />
    </clipPath>
    <clipPath
       id="clp9-4">
      <path
         d="m 413.96,49.857 h 31.76 v 8.719 h -31.76 z"
         id="path100-7"
         inkscape:connector-curvature="0" />
    </clipPath>
    <inkscape:perspective
       sodipodi:type="inkscape:persp3d"
       inkscape:vp_x="0 : 635.96801 : 1"
       inkscape:vp_y="0 : 999.99996 : 0"
       inkscape:vp_z="1500 : 635.96801 : 1"
       inkscape:persp3d-origin="750 : 341.92255 : 1"
       id="perspective4362-6" />
    <clipPath
       id="clp12-8">
      <path
         d="m 45.315,71.927 h 12.92 v 15.867 h -12.92 z"
         id="path184-9"
         inkscape:connector-curvature="0" />
    </clipPath>
    <clipPath
       id="clp21-2">
      <path
         d="m 123.91,72.178 h 26.23 v 15.294 h -26.23 z"
         id="path592-6"
         inkscape:connector-curvature="0" />
    </clipPath>
    <clipPath
       id="clp9-6">
      <path
         d="m 413.96,49.857 h 31.76 v 8.719 h -31.76 z"
         id="path100-4"
         inkscape:connector-curvature="0" />
    </clipPath>
    <inkscape:perspective
       sodipodi:type="inkscape:persp3d"
       inkscape:vp_x="0 : 635.96801 : 1"
       inkscape:vp_y="0 : 999.99996 : 0"
       inkscape:vp_z="1500 : 635.96801 : 1"
       inkscape:persp3d-origin="750 : 341.92255 : 1"
       id="perspective4362-53" />
    <clipPath
       id="clp12-5">
      <path
         d="m 45.315,71.927 h 12.92 v 15.867 h -12.92 z"
         id="path184-6"
         inkscape:connector-curvature="0" />
    </clipPath>
    <clipPath
       id="clp21-29">
      <path
         d="m 123.91,72.178 h 26.23 v 15.294 h -26.23 z"
         id="path592-1"
         inkscape:connector-curvature="0" />
    </clipPath>
    <clipPath
       id="clp9-2">
      <path
         d="m 413.96,49.857 h 31.76 v 8.719 h -31.76 z"
         id="path100-70"
         inkscape:connector-curvature="0" />
    </clipPath>
  </defs>
  <g
     inkscape:label="Layer 1"
     inkscape:groupmode="layer"
     id="layer1"
     transform="translate(134.31887,576.54601)">
    <path
       sodipodi:type="star"
       style="fill:#bdc3bd;fill-opacity:1;stroke:#000000;stroke-width:73.9932;stroke-miterlimit:4;stroke-dasharray:none;stroke-opacity:1"
       id="path4560"
       sodipodi:sides="6"
       sodipodi:cx="-5551.2134"
       sodipodi:cy="-204.52565"
       sodipodi:r1="1701.6108"
       sodipodi:r2="1473.6381"
       sodipodi:arg1="1.0471976"
       sodipodi:arg2="1.5707963"
       inkscape:flatsided="true"
       inkscape:rounded="0"
       inkscape:randomized="0"
       inkscape:transform-center-x="1.5731476e-05"
       inkscape:transform-center-y="7.9344316e-05"
       transform="matrix(0,0.01457052,-0.01454011,0,-115.32791,-470.24609)"
       d="m -4700.408,1269.1126 -1701.6109,-10e-5 -850.8053,-1473.63823 850.8055,-1473.63817 1701.6108,10e-5 850.8054,1473.63823 z" />
    <text
       xml:space="preserve"
       style="font-size:4.23333px;font-family:sans-serif;-inkscape-font-specification:sans-serif;fill:#fdf0e3;fill-opacity:1;stroke:#4a280d;stroke-width:15;stroke-linecap:round;stroke-linejoin:round;stroke-miterlimit:4;stroke-dasharray:none"
       x="-105.7908"
       y="-558.50726"
       id="text265343"><tspan
         sodipodi:role="line"
         id="tspan265341"
         style="stroke-width:15;stroke-miterlimit:4;stroke-dasharray:none"
         x="-105.7908"
         y="-558.50726" /></text>
    <text
       xml:space="preserve"
       style="font-size:4.23333px;font-family:sans-serif;-inkscape-font-specification:sans-serif;fill:#fdf0e3;fill-opacity:1;stroke:#4a280d;stroke-width:15;stroke-linecap:round;stroke-linejoin:round;stroke-miterlimit:4;stroke-dasharray:none"
       x="-106.25206"
       y="-560.1264"
       id="text268683"><tspan
         sodipodi:role="line"
         id="tspan268681"
         style="stroke-width:15"
         x="-106.25206"
         y="-560.1264" /></text>
    <text
       xml:space="preserve"
       style="font-size:4.23333px;font-family:sans-serif;-inkscape-font-specification:sans-serif;fill:#fdf0e3;fill-opacity:1;stroke:#4a280d;stroke-width:5;stroke-linecap:round;stroke-linejoin:round;stroke-miterlimit:4;stroke-dasharray:none"
       x="-78.450752"
       y="-551.28766"
       id="text270271"><tspan
         sodipodi:role="line"
         id="tspan270269"
         style="stroke-width:5;stroke-miterlimit:4;stroke-dasharray:none"
         x="-78.450752"
         y="-551.28766" /></text>
    <text
       xml:space="preserve"
       style="font-size:4.23333px;font-family:sans-serif;-inkscape-font-specification:sans-serif;fill:#fdf0e3;fill-opacity:1;stroke:#4a280d;stroke-width:4.99999;stroke-linecap:round;stroke-linejoin:round;stroke-miterlimit:4;stroke-dasharray:none"
       x="-75.665482"
       y="-548.79803"
       id="text275393"><tspan
         sodipodi:role="line"
         id="tspan275391"
         style="stroke-width:5"
         x="-75.665482"
         y="-548.79803" /></text>
    <path
       style="fill:#a66542;fill-opacity:1;stroke:#000000;stroke-width:0.756013;stroke-linecap:round;stroke-linejoin:round;stroke-miterlimit:4;stroke-dasharray:none"
       d="m -101.2428,-544.92457 c 1.957474,0.58836 3.256609,0.86806 3.972614,0.67693 0.813789,-0.18146 0.827839,-1.26778 0.31285,-1.61928 -0.682984,-0.45428 -2.11916,-0.3728 -3.197994,-0.57833"
       id="path8080"
       sodipodi:nodetypes="cccc" />
    <path
       style="fill:none;stroke:#000000;stroke-width:0.378001;stroke-linecap:round;stroke-linejoin:round;stroke-miterlimit:4;stroke-dasharray:none"
       d="m -99.045176,-546.00111 c 0.0551,0.55672 -0.17442,1.00765 -0.4561,1.43919"
       id="path8552"
       sodipodi:nodetypes="cc" />
    <path
       style="fill:none;stroke:#000000;stroke-width:0.378006;stroke-linecap:round;stroke-linejoin:round;stroke-miterlimit:4;stroke-dasharray:none"
       d="m -97.881526,-545.80655 c 0.05513,0.55673 -0.174412,1.00765 -0.456095,1.4392"
       id="path8691"
       sodipodi:nodetypes="cc" />
    <path
       style="fill:#d3b06e;fill-opacity:1;stroke:#000000;stroke-width:0.756013;stroke-linecap:round;stroke-linejoin:round;stroke-miterlimit:4;stroke-dasharray:none"
       d="m -121.10002,-563.26032 c -0.0689,-1.46467 0.29279,-2.16946 0.75157,-2.54176 0.22487,-0.13502 0.39242,-0.25995 0.61632,-0.29758 0.47446,-0.0791 0.94757,0.0523 1.25038,0.72289 0.0972,0.21533 0.17532,0.47352 0.17742,0.81476"
       id="path17138"
       sodipodi:nodetypes="cccsc" />
    <path
       id="path1532"
       style="fill:#d3b06e;fill-opacity:1;stroke:#000000;stroke-width:0.756014;stroke-linecap:round;stroke-linejoin:round;stroke-miterlimit:4;stroke-dasharray:none"
       d="m -116.85095,-564.3961 c -0.37459,0.045 -0.6293,0.002 -1.01495,0.0584 -0.9837,0.14385 -1.97461,0.56395 -2.71588,1.01186 -1.38051,0.83418 -2.37832,2.1792 -3.0221,3.54775 -0.50729,1.07838 -0.81772,2.14403 -0.69001,3.1398 0.15947,1.24341 0.9645,2.3476 2.48852,2.88234 0.26375,2.54854 0.62058,5.14617 1.21175,7.47879 0.2695,0.84406 0.29484,1.73084 0.96153,2.2682 0.22511,-0.13127 0.36276,-0.39199 0.51984,-0.59941 l 0.47692,0.60897 c 0.58027,-0.25013 0.74739,-0.82999 1.03403,-1.28562 1.32004,0.853 3.80321,1.05481 6.47142,1.12179 1.9106,0.048 3.82301,0.0726 5.74286,0.03 0.74975,-0.0166 1.79988,0.05 2.39567,-0.0459 0.7564,-0.0836 1.22186,-0.34427 1.74855,-0.74544 0.19824,-0.18581 0.41341,-0.38411 0.64866,-0.62503 0.52289,-0.53551 0.839814,-1.23055 1.097834,-1.97034 0.73515,-2.10778 0.35923,-4.878 -0.505994,-6.72979 -0.60754,-1.3003 -1.87728,-3.17657 -4.27998,-4.18971 -0.92162,-0.38861 -2.35156,-0.68276 -3.63002,-0.81243 -0.60668,-0.0615 -0.95408,-0.007 -1.61032,-0.0386 -0.38211,-0.76054 -0.7988,-1.41014 -1.18914,-2.04287 -0.33798,-0.54783 -0.53797,-0.86908 -1.02525,-1.43524 -1.19207,-1.26063 -2.74642,-1.46243 -4.23401,-1.59617 -0.25486,-0.0229 -0.53922,-6.7e-4 -0.87993,-0.0313 z"
       sodipodi:nodetypes="ccsssccccccssccssssscscsc" />
    <path
       style="fill:#d3b06e;fill-opacity:1;stroke:#000000;stroke-width:0.756013;stroke-linecap:round;stroke-linejoin:round;stroke-miterlimit:4;stroke-dasharray:none"
       d="m -116.162,-545.19111 c 0.10272,0.71694 0.47617,1.51056 0.80412,1.80039 0.2106,-0.21818 0.4212,-0.43636 0.63179,-0.65454 l 0.41028,0.66488 c 0.29733,0.0607 0.65673,-0.62112 1.05726,-1.79479"
       id="path8726"
       sodipodi:nodetypes="ccccc" />
    <path
       style="fill:none;stroke:#000000;stroke-width:0.756013;stroke-linecap:round;stroke-linejoin:round;stroke-miterlimit:4;stroke-dasharray:none"
       d="m -125.6095,-559.46186 c 0.87599,0.11845 1.5353,0.21134 2.42096,0.67234"
       id="path10130"
       sodipodi:nodetypes="cc" />
    <path
       style="fill:none;stroke:#000000;stroke-width:0.756013;stroke-linecap:round;stroke-linejoin:round;stroke-miterlimit:4;stroke-dasharray:none"
       d="m -125.60345,-557.57764 c 0.14939,-0.002 1.00503,-0.39478 1.90462,-0.26089"
       id="path10336"
       sodipodi:nodetypes="cc" />
    <path
       style="fill:none;stroke:#000000;stroke-width:0.756013;stroke-linecap:round;stroke-linejoin:round;stroke-miterlimit:4;stroke-dasharray:none"
       d="m -113.53455,-558.81293 c 0.57674,-0.28015 1.1636,-0.54299 1.91365,-0.52687"
       id="path10884"
       sodipodi:nodetypes="cc" />
    <path
       style="fill:none;stroke:#000000;stroke-width:0.756013;stroke-linecap:round;stroke-linejoin:round;stroke-miterlimit:4;stroke-dasharray:none"
       d="m -113.26277,-557.79701 c 0.69737,0.0344 1.15964,0.15506 1.54087,0.30552"
       id="path11166"
       sodipodi:nodetypes="cc" />
    <path
       style="fill:#a66542;fill-opacity:1;stroke:#a66542;stroke-width:0.378006;stroke-linecap:round;stroke-linejoin:round;stroke-miterlimit:4;stroke-dasharray:none"
       d="m -117.06793,-559.17458 c 0.0572,0.48366 -3.22829,0.96889 -3.36214,-0.12094 -0.0167,-0.13627 0.17504,-0.39796 0.34656,-0.54484 0.25387,-0.21738 0.61444,-0.39585 0.9462,-0.46312 0.50359,-0.10212 1.07282,0.008 1.48176,0.2392 0.32049,0.20704 0.69604,0.70834 0.59717,0.9945"
       id="path13062"
       sodipodi:nodetypes="cssscc" />
    <path
       style="fill:#ffffff;fill-opacity:1;stroke:none;stroke-width:0.756013;stroke-linecap:round;stroke-linejoin:round;stroke-miterlimit:4;stroke-dasharray:none"
       d="m -118.93079,-558.60665 -0.75595,0.6369 1.57584,0.0131 z"
       id="path62249" />
    <path
       style="fill:none;stroke:#000000;stroke-width:0.756;stroke-linecap:round;stroke-linejoin:round;stroke-miterlimit:4;stroke-dasharray:none"
       d="m -120.41233,-558.97837 c 0.079,0.37875 0.19465,0.49683 0.41692,0.57308 0.18972,0.0651 0.42267,0.0175 0.68353,-0.14718 0.13338,-0.0842 0.32928,-0.70931 0.47339,-0.83741 0.25235,-0.0304 0.13878,0.57651 0.29769,0.76237 0.1689,0.19755 0.62445,0.40889 1.03654,0.15791 0.24033,-0.14795 0.31382,-0.36551 0.35638,-0.51254"
       id="path11372"
       sodipodi:nodetypes="csscscc" />
    <ellipse
       style="fill:#000000;stroke:none;stroke-width:3.96942;stroke-linecap:round;stroke-linejoin:round;stroke-miterlimit:4;stroke-dasharray:none"
       id="ellipse13025"
       cx="-121.36185"
       cy="-560.28485"
       rx="0.65961587"
       ry="0.6884765" />
    <ellipse
       style="fill:#000000;stroke:none;stroke-width:4.03096;stroke-linecap:round;stroke-linejoin:round;stroke-miterlimit:4;stroke-dasharray:none"
       id="ellipse13027"
       cx="-114.8082"
       cy="-560.26831"
       rx="0.66984326"
       ry="0.69915134" />
    <path
       style="fill:#ffffff;stroke:#000000;stroke-width:0.756;stroke-linecap:round;stroke-linejoin:round;stroke-miterlimit:4;stroke-dasharray:none"
       d="m -119.88769,-558.11296 c 0.0248,0.54947 -0.40699,1.53078 0.95258,1.53062 1.26127,0.0626 1.07719,-0.77232 1.01261,-1.50181"
       id="path15924"
       sodipodi:nodetypes="ccc" />
    <path
       style="fill:none;stroke:#000000;stroke-width:0.378001;stroke-linecap:round;stroke-linejoin:round;stroke-miterlimit:4;stroke-dasharray:none"
       d="m -118.93324,-556.63341 c 0.0172,-0.32978 0.0365,-0.65647 0.0148,-1.04045"
       id="path16966"
       sodipodi:nodetypes="cc" />
    <path
       style="fill:#d3b06e;fill-opacity:1;stroke:#000000;stroke-width:0.756013;stroke-linecap:round;stroke-linejoin:round;stroke-miterlimit:4;stroke-dasharray:none"
       d="m -114.6855,-563.54968 c -0.0388,-0.85794 0.11927,-1.45934 0.38446,-1.87384 0.21213,-0.33156 0.49277,-0.54354 0.79598,-0.67157 0.38601,-0.13723 0.71977,-0.0493 1.05161,0.1292 0.23485,0.13063 0.40613,0.3176 0.53993,0.64013 0.20506,0.49432 0.29898,1.45087 0.14498,2.23202 -0.003,0.0141 -0.0831,0.51339 -0.086,0.52736"
       id="path18180"
       sodipodi:nodetypes="csccssc" />
    <path
       style="fill:#d3b06e;fill-opacity:1;stroke:#000000;stroke-width:0.756013;stroke-linecap:round;stroke-linejoin:round;stroke-miterlimit:4;stroke-dasharray:none"
       d="m -106.10783,-544.85029 c 0.10272,0.71694 0.47617,1.16974 0.80412,1.45957 0.2106,-0.21818 0.42119,-0.43636 0.63179,-0.65454 l 0.41027,0.66488 c 0.29734,0.0607 0.65674,-0.62112 1.05727,-1.79479"
       id="path5766"
       sodipodi:nodetypes="ccccc" />
    <path
       d="m -122.71469,-540.64584 q 0.16368,0 0.32737,0.0282 0.16934,0.0282 0.3048,0.079 0.13547,0.0508 0.22014,0.12418 0.0847,0.0734 0.0847,0.16933 0,0.24836 -0.28222,0.24836 -0.0677,0 -0.12982,-0.0169 -0.0564,-0.0226 -0.13547,-0.0395 -0.079,-0.0226 -0.19755,-0.0395 -0.11854,-0.0226 -0.29351,-0.0226 -0.37254,0 -0.57574,0.254 -0.2032,0.254 -0.2032,0.6604 0,0.44591 0.2032,0.71685 0.20885,0.27093 0.58702,0.27093 0.23707,0 0.38383,-0.0395 0.14675,-0.0395 0.23706,-0.0903 0.096,-0.0508 0.1524,-0.0903 0.0621,-0.0395 0.13547,-0.0395 0.1016,0 0.15804,0.0452 0.0621,0.0395 0.0621,0.16933 0,0.13547 -0.10724,0.23707 -0.1016,0.1016 -0.25965,0.16933 -0.15804,0.0677 -0.34431,0.1016 -0.18062,0.0339 -0.33302,0.0339 -0.68298,0 -1.07244,-0.37818 -0.38947,-0.37818 -0.38947,-1.07244 0,-0.29916 0.0903,-0.56445 0.096,-0.27093 0.28222,-0.47413 0.18627,-0.2032 0.4572,-0.32173 0.27658,-0.11854 0.63783,-0.11854 z"
       id="path17031"
       style="font-size:5.64444px;font-family:Sniglet;-inkscape-font-specification:Sniglet;text-align:center;text-anchor:middle;fill:#000000;stroke-width:0.76;stroke-linecap:round;stroke-linejoin:round;fill-opacity:1" />
    <path
       d="m -118.88212,-537.74459 q -0.0903,0 -0.14676,-0.0282 -0.0508,-0.0339 -0.079,-0.0847 -0.0282,-0.0508 -0.0395,-0.11853 -0.0113,-0.0734 -0.0169,-0.1524 -0.14111,0.17497 -0.36689,0.29351 -0.22014,0.11853 -0.56445,0.11853 -0.22013,0 -0.45155,-0.0621 -0.22578,-0.0677 -0.41205,-0.22578 -0.18626,-0.16369 -0.3048,-0.43462 -0.11853,-0.27093 -0.11853,-0.68298 0,-0.32173 0.079,-0.60395 0.079,-0.28222 0.23707,-0.49107 0.16369,-0.21449 0.4064,-0.33866 0.24271,-0.12418 0.57009,-0.12418 0.28786,0 0.51364,0.10724 0.22578,0.1016 0.4064,0.33867 0,-0.0677 0.006,-0.13547 0.006,-0.0734 0.0282,-0.12982 0.0282,-0.0621 0.0847,-0.096 0.0564,-0.0395 0.1524,-0.0395 0.0847,0 0.15804,0.0677 0.0734,0.0677 0.0847,0.29351 0.0169,0.29915 0.0226,0.53622 0.0113,0.23707 0.0113,0.49107 0,0.31044 -0.006,0.57008 -0.006,0.25965 -0.0282,0.55316 -0.0113,0.12982 -0.0339,0.20884 -0.0169,0.0734 -0.0452,0.11289 -0.0282,0.0339 -0.0677,0.0452 -0.0395,0.0113 -0.079,0.0113 z m -0.3048,-1.43369 q 0,-0.29351 -0.0903,-0.47978 -0.0847,-0.18626 -0.22014,-0.28786 -0.12982,-0.10725 -0.28222,-0.14676 -0.1524,-0.0395 -0.28222,-0.0395 -0.2032,0 -0.34995,0.0734 -0.14112,0.0734 -0.23143,0.2032 -0.0903,0.12417 -0.13546,0.29915 -0.0395,0.16933 -0.0395,0.37253 0,0.49672 0.21448,0.73378 0.22014,0.23707 0.59267,0.23707 0.22013,0 0.37253,-0.0734 0.15805,-0.079 0.254,-0.20884 0.1016,-0.12983 0.14676,-0.3048 0.0508,-0.18063 0.0508,-0.37818 z"
       id="path17033"
       style="font-size:5.64444px;font-family:Sniglet;-inkscape-font-specification:Sniglet;text-align:center;text-anchor:middle;fill:#000000;stroke-width:0.76;stroke-linecap:round;stroke-linejoin:round;fill-opacity:1" />
    <path
       d="m -117.34683,-536.95437 q 0,0.10724 -0.006,0.2032 -0.006,0.1016 -0.0395,0.18062 -0.0282,0.079 -0.0903,0.12418 -0.0564,0.0508 -0.16369,0.0508 -0.12418,0 -0.20884,-0.0903 -0.079,-0.0847 -0.0903,-0.3048 -0.006,-0.14111 -0.0169,-0.34431 -0.0113,-0.2032 -0.0226,-0.42898 -0.006,-0.22578 -0.0169,-0.45156 -0.006,-0.22577 -0.006,-0.41768 0,-0.6604 0.0903,-1.08938 0.096,-0.42898 0.28222,-0.68298 0.18627,-0.254 0.4572,-0.3556 0.27658,-0.1016 0.63782,-0.1016 0.28787,0 0.54187,0.0903 0.254,0.0847 0.44026,0.27094 0.19191,0.18062 0.3048,0.47413 0.11289,0.28787 0.11289,0.69426 0,0.33867 -0.11853,0.59832 -0.11289,0.25964 -0.31609,0.44026 -0.2032,0.17498 -0.47978,0.27093 -0.27093,0.0903 -0.58137,0.0903 -0.26529,0 -0.47978,-0.10725 -0.20885,-0.11289 -0.29916,-0.24271 0.0282,0.31609 0.0452,0.58702 0.0226,0.27094 0.0226,0.54187 z m 0.77893,-3.14395 q -0.19756,0 -0.34431,0.0677 -0.14111,0.0677 -0.23142,0.18627 -0.0903,0.11853 -0.13547,0.28222 -0.0395,0.16369 -0.0395,0.3556 0,0.18626 0.0339,0.3556 0.0395,0.16369 0.12418,0.28786 0.0847,0.12418 0.22578,0.19756 0.14111,0.0734 0.34431,0.0734 0.15805,0 0.3048,-0.0395 0.14676,-0.0452 0.25964,-0.14676 0.11854,-0.1016 0.18627,-0.27093 0.0734,-0.16934 0.0734,-0.42334 0,-0.25964 -0.0734,-0.43462 -0.0677,-0.18062 -0.18627,-0.28786 -0.11288,-0.11289 -0.25964,-0.15805 -0.14111,-0.0452 -0.28222,-0.0452 z"
       id="path17035"
       style="font-size:5.64444px;font-family:Sniglet;-inkscape-font-specification:Sniglet;text-align:center;text-anchor:middle;fill:#000000;stroke-width:0.76;stroke-linecap:round;stroke-linejoin:round;fill-opacity:1" />
    <path
       d="m -114.00534,-536.73424 q -0.0734,0.12982 -0.14111,0.19191 -0.0621,0.0621 -0.14675,0.0621 -0.079,0 -0.15805,-0.0508 -0.079,-0.0508 -0.079,-0.14111 0,-0.0847 0.0564,-0.24271 0.0621,-0.15804 0.14676,-0.34431 0.0903,-0.18627 0.18627,-0.38382 0.0959,-0.19756 0.17497,-0.36125 l 0.0395,-0.0847 q -0.16933,-0.33303 -0.34995,-0.7112 -0.17498,-0.37818 -0.32173,-0.71685 -0.14676,-0.33866 -0.24271,-0.58702 -0.0903,-0.254 -0.0903,-0.33302 0,-0.0734 0.0564,-0.12418 0.0621,-0.0564 0.1524,-0.0564 0.079,0 0.1524,0.0339 0.0734,0.0282 0.13546,0.13547 0.0903,0.16933 0.18627,0.38947 0.1016,0.21449 0.19756,0.45155 0.1016,0.23707 0.2032,0.47978 0.10724,0.24271 0.21449,0.46849 0.12417,-0.23142 0.26528,-0.48542 0.14112,-0.254 0.27094,-0.49107 0.13546,-0.23707 0.24835,-0.43462 0.11289,-0.2032 0.19191,-0.33867 0.079,-0.12982 0.15805,-0.18627 0.079,-0.0564 0.16369,-0.0564 0.0564,0 0.11289,0.0508 0.0564,0.0452 0.0564,0.12418 0,0.11853 -0.10724,0.38382 -0.1016,0.25964 -0.26529,0.60396 -0.16369,0.34431 -0.37254,0.73942 -0.2032,0.38946 -0.4064,0.76764 -0.2032,0.37253 -0.38946,0.69991 -0.18062,0.32738 -0.29916,0.54751 z"
       id="path17037"
       style="font-size:5.64444px;font-family:Sniglet;-inkscape-font-specification:Sniglet;text-align:center;text-anchor:middle;fill:#000000;stroke-width:0.76;stroke-linecap:round;stroke-linejoin:round;fill-opacity:1" />
    <path
       d="m -111.12103,-541.45863 q 0,0.33866 -0.0226,0.71119 -0.0169,0.36689 -0.0451,0.71685 0.0734,-0.1524 0.19191,-0.25965 0.11853,-0.11288 0.25964,-0.18062 0.14676,-0.0677 0.3048,-0.1016 0.15804,-0.0339 0.3048,-0.0339 0.254,0 0.47413,0.096 0.22578,0.0903 0.38947,0.27093 0.16933,0.17498 0.25964,0.44027 0.096,0.25965 0.096,0.59831 0,0.32738 -0.096,0.59831 -0.096,0.27094 -0.28786,0.46849 -0.18627,0.19191 -0.46849,0.29916 -0.27658,0.10724 -0.63782,0.10724 -0.49107,0 -0.77329,-0.19756 -0.27658,-0.19755 -0.41205,-0.52493 -0.13546,-0.33302 -0.16933,-0.762 -0.0282,-0.42897 -0.0282,-0.89746 0,-0.47414 0.0169,-0.85796 0.0169,-0.38382 0.0508,-0.62089 0.0339,-0.21449 0.11289,-0.3048 0.079,-0.0903 0.20885,-0.0903 0.096,0 0.1524,0.0452 0.0564,0.0395 0.079,0.11289 0.0282,0.0734 0.0339,0.16933 0.006,0.0903 0.006,0.19756 z m 0.83538,1.41111 q -0.16369,0 -0.31609,0.0564 -0.14676,0.0508 -0.26529,0.16369 -0.11289,0.11289 -0.18062,0.28787 -0.0677,0.16933 -0.0677,0.41204 0,0.42898 0.20885,0.65475 0.21449,0.22014 0.57009,0.22014 0.14675,0 0.29915,-0.0395 0.1524,-0.0452 0.27658,-0.14676 0.12418,-0.10724 0.2032,-0.28222 0.079,-0.17498 0.079,-0.43462 0,-0.23143 -0.0677,-0.40076 -0.0621,-0.16933 -0.17498,-0.27658 -0.11289,-0.11288 -0.25964,-0.16368 -0.14676,-0.0508 -0.3048,-0.0508 z"
       id="path17039"
       style="font-size:5.64444px;font-family:Sniglet;-inkscape-font-specification:Sniglet;text-align:center;text-anchor:middle;fill:#000000;stroke-width:0.76;stroke-linecap:round;stroke-linejoin:round;fill-opacity:1" />
    <path
       d="m -106.09184,-537.74459 q -0.0903,0 -0.14675,-0.0282 -0.0508,-0.0339 -0.079,-0.0847 -0.0282,-0.0508 -0.0395,-0.11853 -0.0113,-0.0734 -0.0169,-0.1524 -0.14111,0.17497 -0.36689,0.29351 -0.22013,0.11853 -0.56444,0.11853 -0.22013,0 -0.45156,-0.0621 -0.22577,-0.0677 -0.41204,-0.22578 -0.18627,-0.16369 -0.3048,-0.43462 -0.11853,-0.27093 -0.11853,-0.68298 0,-0.32173 0.079,-0.60395 0.079,-0.28222 0.23706,-0.49107 0.16369,-0.21449 0.4064,-0.33866 0.24272,-0.12418 0.57009,-0.12418 0.28787,0 0.51365,0.10724 0.22577,0.1016 0.4064,0.33867 0,-0.0677 0.006,-0.13547 0.006,-0.0734 0.0282,-0.12982 0.0282,-0.0621 0.0847,-0.096 0.0564,-0.0395 0.1524,-0.0395 0.0847,0 0.15804,0.0677 0.0734,0.0677 0.0847,0.29351 0.0169,0.29915 0.0226,0.53622 0.0113,0.23707 0.0113,0.49107 0,0.31044 -0.006,0.57008 -0.006,0.25965 -0.0282,0.55316 -0.0113,0.12982 -0.0339,0.20884 -0.0169,0.0734 -0.0451,0.11289 -0.0282,0.0339 -0.0677,0.0452 -0.0395,0.0113 -0.079,0.0113 z m -0.3048,-1.43369 q 0,-0.29351 -0.0903,-0.47978 -0.0847,-0.18626 -0.22013,-0.28786 -0.12982,-0.10725 -0.28222,-0.14676 -0.1524,-0.0395 -0.28222,-0.0395 -0.2032,0 -0.34996,0.0734 -0.14111,0.0734 -0.23142,0.2032 -0.0903,0.12417 -0.13547,0.29915 -0.0395,0.16933 -0.0395,0.37253 0,0.49672 0.21449,0.73378 0.22013,0.23707 0.59267,0.23707 0.22013,0 0.37253,-0.0734 0.15804,-0.079 0.254,-0.20884 0.1016,-0.12983 0.14675,-0.3048 0.0508,-0.18063 0.0508,-0.37818 z"
       id="path17041"
       style="font-size:5.64444px;font-family:Sniglet;-inkscape-font-specification:Sniglet;text-align:center;text-anchor:middle;fill:#000000;stroke-width:0.76;stroke-linecap:round;stroke-linejoin:round;fill-opacity:1" />
    <path
       d="m -105.14357,-538.11148 q -0.0226,-0.19756 -0.0282,-0.47978 -0.006,-0.28222 -0.006,-0.68298 0,-0.39511 0,-0.63782 0.006,-0.24271 0.0339,-0.42898 0.0282,-0.23142 0.0847,-0.29915 0.0621,-0.0677 0.15804,-0.0677 0.0677,0 0.11853,0.0113 0.0564,0.0113 0.096,0.0508 0.0452,0.0339 0.0677,0.1016 0.0226,0.0677 0.0226,0.18627 0,0.0226 0.006,0.0452 0,0.0226 0,0.0508 0.006,0.0226 0.006,0.0564 0.1524,-0.19191 0.34431,-0.32738 0.19755,-0.13546 0.44591,-0.13546 0.33302,0 0.33302,0.27657 0,0.1016 -0.0451,0.16934 -0.0395,0.0677 -0.11854,0.11289 -0.0734,0.0395 -0.17497,0.0621 -0.096,0.0226 -0.21449,0.0452 -0.18062,0.0339 -0.33867,0.12982 -0.15804,0.0903 -0.21449,0.23143 0,0.10724 0,0.15804 0.006,0.0508 0.006,0.0847 0.006,0.0339 0.006,0.0734 0,0.0395 0,0.12418 0,0.28787 -0.0113,0.54187 -0.0113,0.24835 -0.0226,0.54186 -0.006,0.13547 -0.0339,0.20885 -0.0226,0.0734 -0.0621,0.11289 -0.0339,0.0395 -0.079,0.0451 -0.0452,0.0113 -0.0903,0.0113 -0.15805,0 -0.21449,-0.0677 -0.0508,-0.0734 -0.0734,-0.3048 z"
       id="path17043"
       style="font-size:5.64444px;font-family:Sniglet;-inkscape-font-specification:Sniglet;text-align:center;text-anchor:middle;fill:#000000;stroke-width:0.76;stroke-linecap:round;stroke-linejoin:round;fill-opacity:1" />
    <path
       d="m -100.78607,-537.74459 q -0.0903,0 -0.14676,-0.0282 -0.0508,-0.0339 -0.079,-0.0847 -0.0282,-0.0508 -0.0395,-0.11853 -0.0113,-0.0734 -0.0169,-0.1524 -0.14111,0.17497 -0.36689,0.29351 -0.22014,0.11853 -0.56445,0.11853 -0.22013,0 -0.45155,-0.0621 -0.22578,-0.0677 -0.41205,-0.22578 -0.18626,-0.16369 -0.3048,-0.43462 -0.11853,-0.27093 -0.11853,-0.68298 0,-0.32173 0.079,-0.60395 0.079,-0.28222 0.23707,-0.49107 0.16369,-0.21449 0.4064,-0.33866 0.24271,-0.12418 0.57009,-0.12418 0.28786,0 0.51364,0.10724 0.22578,0.1016 0.4064,0.33867 0,-0.0677 0.006,-0.13547 0.006,-0.0734 0.0282,-0.12982 0.0282,-0.0621 0.0847,-0.096 0.0564,-0.0395 0.15239,-0.0395 0.0847,0 0.15805,0.0677 0.0734,0.0677 0.0847,0.29351 0.0169,0.29915 0.0226,0.53622 0.0113,0.23707 0.0113,0.49107 0,0.31044 -0.006,0.57008 -0.006,0.25965 -0.0282,0.55316 -0.0113,0.12982 -0.0339,0.20884 -0.0169,0.0734 -0.0452,0.11289 -0.0282,0.0339 -0.0677,0.0452 -0.0395,0.0113 -0.079,0.0113 z m -0.3048,-1.43369 q 0,-0.29351 -0.0903,-0.47978 -0.0847,-0.18626 -0.22014,-0.28786 -0.12982,-0.10725 -0.28222,-0.14676 -0.1524,-0.0395 -0.28222,-0.0395 -0.2032,0 -0.34996,0.0734 -0.14111,0.0734 -0.23142,0.2032 -0.0903,0.12417 -0.13546,0.29915 -0.0395,0.16933 -0.0395,0.37253 0,0.49672 0.21448,0.73378 0.22014,0.23707 0.59267,0.23707 0.22013,0 0.37253,-0.0734 0.15805,-0.079 0.254,-0.20884 0.1016,-0.12983 0.14676,-0.3048 0.0508,-0.18063 0.0508,-0.37818 z"
       id="path17045"
       style="font-size:5.64444px;font-family:Sniglet;-inkscape-font-specification:Sniglet;text-align:center;text-anchor:middle;fill:#000000;stroke-width:0.76;stroke-linecap:round;stroke-linejoin:round;fill-opacity:1" />
  </g>
  <style
     type="text/css"
     id="style10296">
	.st0{fill:#75AADB;}
	.st1{fill:#4D4D4D;}
	.st2{fill:#FFFFFF;}
	.st3{fill:url(#SVGID_1_);}
	.st4{fill:url(#SVGID_2_);}
	.st5{fill:url(#SVGID_3_);}
	.st6{fill:url(#SVGID_4_);}
	.st7{fill:url(#SVGID_5_);}
	.st8{fill:url(#SVGID_6_);}
	.st9{fill:url(#SVGID_7_);}
	.st10{fill:url(#SVGID_8_);}
	.st11{fill:url(#SVGID_9_);}
	.st12{fill:url(#SVGID_10_);}
	.st13{opacity:0.18;fill:url(#SVGID_11_);}
	.st14{opacity:0.3;}
</style>
  <style
     type="text/css"
     id="style10296-3">
	.st0{fill:#75AADB;}
	.st1{fill:#4D4D4D;}
	.st2{fill:#FFFFFF;}
	.st3{fill:url(#SVGID_1_);}
	.st4{fill:url(#SVGID_2_);}
	.st5{fill:url(#SVGID_3_);}
	.st6{fill:url(#SVGID_4_);}
	.st7{fill:url(#SVGID_5_);}
	.st8{fill:url(#SVGID_6_);}
	.st9{fill:url(#SVGID_7_);}
	.st10{fill:url(#SVGID_8_);}
	.st11{fill:url(#SVGID_9_);}
	.st12{fill:url(#SVGID_10_);}
	.st13{opacity:0.18;fill:url(#SVGID_11_);}
	.st14{opacity:0.3;}
</style>
  <style
     type="text/css"
     id="style10296-7">
	.st0{fill:#75AADB;}
	.st1{fill:#4D4D4D;}
	.st2{fill:#FFFFFF;}
	.st3{fill:url(#SVGID_1_);}
	.st4{fill:url(#SVGID_2_);}
	.st5{fill:url(#SVGID_3_);}
	.st6{fill:url(#SVGID_4_);}
	.st7{fill:url(#SVGID_5_);}
	.st8{fill:url(#SVGID_6_);}
	.st9{fill:url(#SVGID_7_);}
	.st10{fill:url(#SVGID_8_);}
	.st11{fill:url(#SVGID_9_);}
	.st12{fill:url(#SVGID_10_);}
	.st13{opacity:0.18;fill:url(#SVGID_11_);}
	.st14{opacity:0.3;}
</style>
  <style
     type="text/css"
     id="style10296-4">
	.st0{fill:#75AADB;}
	.st1{fill:#4D4D4D;}
	.st2{fill:#FFFFFF;}
	.st3{fill:url(#SVGID_1_);}
	.st4{fill:url(#SVGID_2_);}
	.st5{fill:url(#SVGID_3_);}
	.st6{fill:url(#SVGID_4_);}
	.st7{fill:url(#SVGID_5_);}
	.st8{fill:url(#SVGID_6_);}
	.st9{fill:url(#SVGID_7_);}
	.st10{fill:url(#SVGID_8_);}
	.st11{fill:url(#SVGID_9_);}
	.st12{fill:url(#SVGID_10_);}
	.st13{opacity:0.18;fill:url(#SVGID_11_);}
	.st14{opacity:0.3;}
</style>
  <style
     type="text/css"
     id="style10296-9">
	.st0{fill:#75AADB;}
	.st1{fill:#4D4D4D;}
	.st2{fill:#FFFFFF;}
	.st3{fill:url(#SVGID_1_);}
	.st4{fill:url(#SVGID_2_);}
	.st5{fill:url(#SVGID_3_);}
	.st6{fill:url(#SVGID_4_);}
	.st7{fill:url(#SVGID_5_);}
	.st8{fill:url(#SVGID_6_);}
	.st9{fill:url(#SVGID_7_);}
	.st10{fill:url(#SVGID_8_);}
	.st11{fill:url(#SVGID_9_);}
	.st12{fill:url(#SVGID_10_);}
	.st13{opacity:0.18;fill:url(#SVGID_11_);}
	.st14{opacity:0.3;}
</style>
  <style
     type="text/css"
     id="style10296-2">
	.st0{fill:#75AADB;}
	.st1{fill:#4D4D4D;}
	.st2{fill:#FFFFFF;}
	.st3{fill:url(#SVGID_1_);}
	.st4{fill:url(#SVGID_2_);}
	.st5{fill:url(#SVGID_3_);}
	.st6{fill:url(#SVGID_4_);}
	.st7{fill:url(#SVGID_5_);}
	.st8{fill:url(#SVGID_6_);}
	.st9{fill:url(#SVGID_7_);}
	.st10{fill:url(#SVGID_8_);}
	.st11{fill:url(#SVGID_9_);}
	.st12{fill:url(#SVGID_10_);}
	.st13{opacity:0.18;fill:url(#SVGID_11_);}
	.st14{opacity:0.3;}
</style>
</svg>
