<?xml version="1.0" encoding="UTF-8" standalone="no"?>
<!-- Created with Inkscape (http://www.inkscape.org/) -->

<svg
   width="43.929581mm"
   height="50.831631mm"
   viewBox="0 0 43.929581 50.831631"
   version="1.1"
   id="svg5"
   inkscape:version="1.1.2 (0a00cf5339, 2022-02-04)"
   sodipodi:docname="capybara.svg"
   xmlns:inkscape="http://www.inkscape.org/namespaces/inkscape"
   xmlns:sodipodi="http://sodipodi.sourceforge.net/DTD/sodipodi-0.dtd"
   xmlns="http://www.w3.org/2000/svg"
   xmlns:svg="http://www.w3.org/2000/svg">
  <sodipodi:namedview
     id="namedview7"
     pagecolor="#ffffff"
     bordercolor="#000000"
     borderopacity="0.25"
     inkscape:pageshadow="2"
     inkscape:pageopacity="0.0"
     inkscape:pagecheckerboard="0"
     inkscape:document-units="mm"
     showgrid="false"
     inkscape:zoom="2.5620932"
     inkscape:cx="205.69119"
     inkscape:cy="112.01778"
     inkscape:window-width="1920"
     inkscape:window-height="1043"
     inkscape:window-x="1920"
     inkscape:window-y="0"
     inkscape:window-maximized="1"
     inkscape:current-layer="layer1"
     showguides="true"
     inkscape:guide-bbox="true"
     fit-margin-top="0"
     fit-margin-left="0"
     fit-margin-right="0"
     fit-margin-bottom="0" />
  <defs
     id="defs2">
    <inkscape:perspective
       sodipodi:type="inkscape:persp3d"
       inkscape:vp_x="0 : 635.96801 : 1"
       inkscape:vp_y="0 : 999.99996 : 0"
       inkscape:vp_z="1500 : 635.96801 : 1"
       inkscape:persp3d-origin="750 : 341.92255 : 1"
       id="perspective4362" />
    <clipPath
       id="clp12">
      <path
         d="m 45.315,71.927 h 12.92 v 15.867 h -12.92 z"
         id="path184"
         inkscape:connector-curvature="0" />
    </clipPath>
    <clipPath
       id="clp21">
      <path
         d="m 123.91,72.178 h 26.23 v 15.294 h -26.23 z"
         id="path592"
         inkscape:connector-curvature="0" />
    </clipPath>
    <clipPath
       id="clp9">
      <path
         d="m 413.96,49.857 h 31.76 v 8.719 h -31.76 z"
         id="path100"
         inkscape:connector-curvature="0" />
    </clipPath>
  </defs>
  <g
     inkscape:label="Layer 1"
     inkscape:groupmode="layer"
     id="layer1"
     transform="translate(134.31887,576.54601)">
    <g
       transform="matrix(0.17878894,0,0,0.17878894,638.97605,-1122.9543)"
       id="g4347">
      <g
         id="g79"
         transform="translate(-698.824,84.861967)"
         style="fill:#fdf0e3;fill-opacity:1;stroke:#4a280d">
        <g
           id="g4546"
           transform="matrix(0,0.06313002,-0.06299821,0,-3442.3338,3199.9624)"
           style="fill:#fdf0e3;fill-opacity:1;stroke:#4a280d">
          <path
             inkscape:connector-curvature="0"
             id="path4548"
             d="M -444.71497,-925.67388 V 2899.9594"
             style="fill:#fdf0e3;fill-opacity:1;fill-rule:evenodd;stroke:#4a280d;stroke-width:25.0857;stroke-linecap:butt;stroke-linejoin:miter;stroke-miterlimit:4;stroke-dasharray:none;stroke-opacity:1" />
          <path
             style="fill:#fdf0e3;fill-opacity:1;fill-rule:evenodd;stroke:#4a280d;stroke-width:25.1912;stroke-linecap:butt;stroke-linejoin:miter;stroke-miterlimit:4;stroke-dasharray:none;stroke-opacity:1"
             d="M -1051.3825,-957.92792 V 2899.9594"
             id="path4550"
             inkscape:connector-curvature="0" />
          <path
             style="fill:#fdf0e3;fill-opacity:1;fill-rule:evenodd;stroke:#4a280d;stroke-width:24.8733;stroke-linecap:butt;stroke-linejoin:miter;stroke-miterlimit:4;stroke-dasharray:none;stroke-opacity:1"
             d="M -2264.7175,-901.48335 V 2859.6418"
             id="path4554"
             inkscape:connector-curvature="0" />
          <path
             inkscape:connector-curvature="0"
             id="path4556"
             d="M -2871.3852,-238.73614 V 2201.6181"
             style="fill:#fdf0e3;fill-opacity:1;fill-rule:evenodd;stroke:#4a280d;stroke-width:20.0355;stroke-linecap:butt;stroke-linejoin:miter;stroke-miterlimit:4;stroke-dasharray:none;stroke-opacity:1" />
          <path
             style="fill:#fdf0e3;fill-opacity:1;fill-rule:evenodd;stroke:#4a280d;stroke-width:19.4657;stroke-linecap:butt;stroke-linejoin:miter;stroke-miterlimit:4;stroke-dasharray:none;stroke-opacity:1"
             d="M 161.95255,-164.61323 V 2138.8987"
             id="path4558"
             inkscape:connector-curvature="0" />
        </g>
        <path
           sodipodi:type="star"
           style="fill:#fdf0e3;fill-opacity:1;stroke:#4a280d;stroke-width:73.9932;stroke-miterlimit:4;stroke-dasharray:none;stroke-opacity:1"
           id="path4560"
           sodipodi:sides="6"
           sodipodi:cx="-5551.2134"
           sodipodi:cy="-204.52565"
           sodipodi:r1="1701.6108"
           sodipodi:r2="1473.6381"
           sodipodi:arg1="1.0471976"
           sodipodi:arg2="1.5707963"
           inkscape:flatsided="true"
           inkscape:rounded="0"
           inkscape:randomized="0"
           inkscape:transform-center-x="1.5731476e-05"
           inkscape:transform-center-y="7.9344316e-05"
           transform="matrix(0,0.08149567,-0.08132553,0,-3520.1392,3565.8571)"
           d="m -4700.408,1269.1126 -1701.6109,-10e-5 -850.8053,-1473.63823 850.8055,-1473.63817 1701.6108,10e-5 850.8054,1473.63823 z" />
      </g>
    </g>
    <g
       id="g53979"
       transform="translate(0.175456,-1.2008572)">
      <g
         id="g260961"
         transform="matrix(0.19250811,0,0,0.19250811,-104.91857,-463.29235)">
        <g
           id="g127962"
           transform="matrix(0.13090574,0,0,0.13090574,-134.83835,-577.30997)">
          <path
             style="fill:#da915a;fill-opacity:1;stroke:#4a280d;stroke-width:30;stroke-linecap:round;stroke-linejoin:round;stroke-miterlimit:4;stroke-dasharray:none"
             d="m 325.21243,490.85439 c -2.73519,-58.1207 11.61829,-86.08812 29.82352,-100.86185 8.92327,-5.35777 15.57203,-10.31504 24.45688,-11.80837 18.82753,-3.13701 37.60159,2.07575 49.61737,28.68554 3.8584,8.54469 6.9571,18.79015 7.04054,32.33127"
             id="path17138"
             sodipodi:nodetypes="cccsc" />
          <path
             style="fill:#7f6160;fill-opacity:1;stroke:#4a280d;stroke-width:30;stroke-linecap:round;stroke-linejoin:round;stroke-miterlimit:4;stroke-dasharray:none"
             d="m 1125.8258,1214.9549 c 77.6759,23.3469 129.2281,34.4461 157.6405,26.8618 32.2927,-7.2007 32.8502,-50.308 12.4145,-64.2562 -27.1021,-18.0265 -84.0923,-14.7934 -126.9024,-22.9493"
             id="path8080"
             sodipodi:nodetypes="cccc" />
          <path
             id="path1532"
             style="fill:#da915a;fill-opacity:1;stroke:#4a280d;stroke-width:113.386;stroke-linecap:round;stroke-linejoin:round;stroke-miterlimit:4;stroke-dasharray:none"
             d="m 1866.4199,1684.8555 c -56.1803,6.7411 -94.3815,0.3059 -152.2207,8.7636 -147.5338,21.5742 -296.1494,84.58 -407.3242,151.7579 -207.0478,125.1094 -356.69784,326.8331 -453.25195,532.0859 -76.0828,161.7352 -122.64037,321.5595 -103.48633,470.9043 23.91745,186.4851 144.65522,352.0904 373.22458,432.289 5.8302,505.705 108.3452,964.9831 263.1387,1399.1583 10.8251,30.3628 43.6163,59.2842 62.8086,62.6835 33.7604,-19.6871 54.4052,-58.7895 77.9648,-89.8984 l 71.5274,91.332 c 74.6905,-12.6871 101.923,-110.6002 146.3379,-177.6562 l 8.7441,-15.1582 c 197.9783,127.9313 570.4006,158.1986 970.5762,168.2441 286.5494,7.1928 573.3709,10.8847 861.3066,4.4961 112.4469,-2.4948 269.9441,7.4921 359.3008,-6.8867 113.444,-12.5412 183.252,-51.6337 262.2441,-111.8008 29.7328,-27.8664 62.0029,-57.6072 97.2852,-93.7402 78.4237,-80.315 125.9545,-184.5565 164.6523,-295.5098 110.256,-316.1227 53.8762,-731.5968 -75.8886,-1009.3261 -91.1184,-195.0164 -281.5518,-476.4175 -641.9063,-628.3672 -138.2223,-58.2838 -352.6829,-102.3998 -544.4258,-121.8477 -90.988,-9.2286 -143.0913,-1.0425 -241.5136,-5.793 -57.308,-114.0644 -119.8022,-211.4913 -178.3457,-306.3867 -50.6891,-82.1637 -80.6846,-130.3445 -153.7657,-215.2558 -178.7853,-189.0686 -411.9039,-219.3335 -635.0117,-239.3926 -38.224,-3.4366 -80.8716,-0.1001 -131.9707,-4.6953 z"
             transform="scale(0.26458333)" />
          <path
             style="fill:none;stroke:#4a280d;stroke-width:15;stroke-linecap:round;stroke-linejoin:round;stroke-miterlimit:4;stroke-dasharray:none"
             d="m 1213.0312,1172.2357 c 2.1876,22.0918 -6.921,39.9853 -18.0987,57.1098"
             id="path8552"
             sodipodi:nodetypes="cc" />
          <path
             style="fill:none;stroke:#4a280d;stroke-width:15;stroke-linecap:round;stroke-linejoin:round;stroke-miterlimit:4;stroke-dasharray:none"
             d="m 1259.2072,1179.9563 c 2.1876,22.0918 -6.921,39.9853 -18.0987,57.1098"
             id="path8691"
             sodipodi:nodetypes="cc" />
          <path
             style="fill:#da915a;fill-opacity:1;stroke:#4a280d;stroke-width:30;stroke-linecap:round;stroke-linejoin:round;stroke-miterlimit:4;stroke-dasharray:none"
             d="m 509.81494,1138.2809 c 13.37157,53.7397 23.22364,104.8959 43.25636,120.0383 l 25.07085,-25.9733 16.2803,26.3835 c 11.79868,2.408 26.06064,-24.6471 41.95442,-71.2205"
             id="path8726"
             sodipodi:nodetypes="ccccc" />
          <path
             style="fill:none;stroke:#4a280d;stroke-width:30;stroke-linecap:round;stroke-linejoin:round;stroke-miterlimit:4;stroke-dasharray:none"
             d="m 924.4144,1205.2019 c -12.22363,-5.1838 -18.73403,-2.175 -26.86992,0.5441 -29.46716,9.8484 -27.93866,27.097 -29.67539,39.9618"
             id="path9658"
             sodipodi:nodetypes="csc" />
          <path
             style="fill:none;stroke:#4a280d;stroke-width:30;stroke-linecap:round;stroke-linejoin:round;stroke-miterlimit:4;stroke-dasharray:none"
             d="m 146.26762,641.58464 c 34.76095,4.70038 60.92368,8.38611 96.06828,26.67977"
             id="path10130"
             sodipodi:nodetypes="cc" />
          <path
             style="fill:none;stroke:#4a280d;stroke-width:30;stroke-linecap:round;stroke-linejoin:round;stroke-miterlimit:4;stroke-dasharray:none"
             d="m 146.50785,716.35387 c 5.92796,-0.0703 39.88153,-15.66573 75.57892,-10.35261"
             id="path10336"
             sodipodi:nodetypes="cc" />
          <path
             style="fill:none;stroke:#4a280d;stroke-width:30;stroke-linecap:round;stroke-linejoin:round;stroke-miterlimit:4;stroke-dasharray:none"
             d="m 625.42454,667.33528 c 22.88609,-11.11666 46.17383,-21.54672 75.93721,-20.90708"
             id="path10884"
             sodipodi:nodetypes="cc" />
          <path
             style="fill:none;stroke:#4a280d;stroke-width:30;stroke-linecap:round;stroke-linejoin:round;stroke-miterlimit:4;stroke-dasharray:none"
             d="m 636.20916,707.64892 c 27.67318,1.36326 46.01688,6.1529 61.14468,12.12364"
             id="path11166"
             sodipodi:nodetypes="cc" />
          <path
             style="fill:#7f6160;fill-opacity:1;stroke:#7f6160;stroke-width:15;stroke-linecap:round;stroke-linejoin:round;stroke-miterlimit:4;stroke-dasharray:none"
             d="m 464.215,652.98428 c 2.27015,19.1928 -128.10492,38.44729 -133.41624,-4.79909 -0.66414,-5.40759 6.94588,-15.79169 13.75243,-21.62004 10.0738,-8.62606 24.38188,-15.70808 37.54661,-18.37773 19.9836,-4.05244 42.57174,0.31848 58.79928,9.49188 12.71753,8.21578 27.62026,28.10839 23.69665,39.46364"
             id="path13062"
             sodipodi:nodetypes="cssscc" />
          <path
             style="fill:#ffffff;fill-opacity:1;stroke:none;stroke-width:30;stroke-linecap:round;stroke-linejoin:round;stroke-miterlimit:4;stroke-dasharray:none"
             d="m 390.29303,675.5209 -29.99734,25.27345 62.53199,0.5193 z"
             id="path62249" />
          <path
             style="fill:none;stroke:#4a280d;stroke-width:30;stroke-linecap:round;stroke-linejoin:round;stroke-miterlimit:4;stroke-dasharray:none"
             d="m 331.50281,660.77042 c 3.13442,15.0294 7.72417,19.71492 16.5443,22.74088 7.52849,2.58284 16.77226,0.69297 27.12372,-5.84044 5.29257,-3.34045 13.06636,-28.14694 18.78474,-33.23011 10.01406,-1.20618 5.50716,22.87707 11.81287,30.25228 6.70262,7.83944 24.77942,16.22548 41.1322,6.26639 9.53669,-5.87112 12.45276,-14.50433 14.1418,-20.33881"
             id="path11372"
             sodipodi:nodetypes="csscscc" />
          <ellipse
             style="fill:#4a280d;stroke:none;stroke-width:60.1189;stroke-linecap:round;stroke-linejoin:round;stroke-miterlimit:4;stroke-dasharray:none"
             id="path12897"
             cx="376.31128"
             cy="640.01056"
             rx="9.9902229"
             ry="10.427332" />
          <ellipse
             style="fill:#4a280d;stroke:none;stroke-width:60.1189;stroke-linecap:round;stroke-linejoin:round;stroke-miterlimit:4;stroke-dasharray:none"
             id="ellipse13023"
             cx="413.88269"
             cy="640.01056"
             rx="9.9902229"
             ry="10.427332" />
          <ellipse
             style="fill:#4a280d;stroke:none;stroke-width:157.514;stroke-linecap:round;stroke-linejoin:round;stroke-miterlimit:4;stroke-dasharray:none"
             id="ellipse13025"
             cx="314.82214"
             cy="608.92719"
             rx="26.174797"
             ry="27.32004" />
          <ellipse
             style="fill:#4a280d;stroke:none;stroke-width:159.956;stroke-linecap:round;stroke-linejoin:round;stroke-miterlimit:4;stroke-dasharray:none"
             id="ellipse13027"
             cx="574.88293"
             cy="609.58362"
             rx="26.580639"
             ry="27.743639" />
          <path
             style="fill:#ffffff;stroke:#4a280d;stroke-width:30;stroke-linecap:round;stroke-linejoin:round;stroke-miterlimit:4;stroke-dasharray:none"
             d="m 354.63823,697.52116 c 0.92551,32.95014 -15.19225,91.7975 35.55769,91.78786 47.08063,3.75344 40.20903,-46.31428 37.7984,-90.06058"
             id="path15924"
             sodipodi:nodetypes="ccc" />
          <path
             style="fill:none;stroke:#4a280d;stroke-width:5;stroke-linecap:round;stroke-linejoin:round;stroke-miterlimit:4;stroke-dasharray:none"
             d="m 390.19591,789.30901 c 0.68087,-24.33398 1.44973,-48.44009 0.58626,-76.77335"
             id="path16966"
             sodipodi:nodetypes="cc" />
          <path
             style="fill:#da915a;fill-opacity:1;stroke:#4a280d;stroke-width:30;stroke-linecap:round;stroke-linejoin:round;stroke-miterlimit:4;stroke-dasharray:none"
             d="m 579.75264,479.37205 c -1.54056,-34.04471 4.73291,-57.90934 15.25616,-74.35753 8.4175,-13.15684 19.55415,-21.56838 31.58575,-26.64907 15.31792,-5.44557 28.562,-1.95514 41.7299,5.12692 9.31938,5.18357 16.11624,12.6029 21.42557,25.40171 8.13714,19.61559 11.86421,57.57298 5.75299,88.57051 -0.11019,0.55893 -3.29671,20.37233 -3.41333,20.92658"
             id="path18180"
             sodipodi:nodetypes="csccssc" />
        </g>
      </g>
      <g
         aria-label="CapybaRa"
         id="text277889"
         style="font-size:4.23333px;-inkscape-font-specification:sans-serif;fill:#4a280d;stroke:#4a280d;stroke-width:0;stroke-linecap:round;stroke-linejoin:round">
        <g
           aria-label="CapybaRa"
           id="text20255"
           style="font-family:Sniglet;-inkscape-font-specification:Sniglet;stroke-width:0.2">
          <g
             id="g53933"
             transform="translate(-2.0330589,1.1712922)">
            <g
               aria-label="CapybaRa"
               id="text277889-3"
               style="font-size:4.23333px;-inkscape-font-specification:sans-serif;fill:#fdf0e3;stroke:#4a280d;stroke-width:0;stroke-linecap:round;stroke-linejoin:round"
               transform="translate(14.340128,9.644316)">
              <g
                 id="g10357"
                 transform="matrix(0.26458333,0,0,0.26458333,-343.57169,-485.79826)">
                <g
                   id="Gray_Logo" />
                <g
                   id="Black_Letters" />
                <g
                   id="Blue_Gradient_Letters">
                  <g
                     id="g10326">
                    <g
                       id="g10522"
                       transform="matrix(0.03956547,0,0,0.03956547,885.79627,-206.27306)">
                      <circle
                         transform="rotate(-45)"
                         class="st0"
                         cx="-72.644951"
                         cy="-1181.45"
                         id="ellipse10300"
                         r="309.79703"
                         style="stroke-width:0" />
                    </g>
                  </g>
                </g>
                <g
                   id="White_Letters" />
                <g
                   id="R_Ball" />
              </g>
            </g>
            <path
               d="m -118.51219,-540.44758 q 0.1397,0 0.2794,0.0254 0.14393,0.0212 0.25823,0.072 0.1143,0.0466 0.18627,0.11853 0.0762,0.0677 0.0762,0.16087 0,0.0974 -0.0508,0.14817 -0.0508,0.0508 -0.127,0.0508 -0.072,0 -0.127,-0.0212 -0.055,-0.0254 -0.127,-0.055 -0.0677,-0.0296 -0.1651,-0.0508 -0.0974,-0.0254 -0.25824,-0.0254 -0.16086,0 -0.30903,0.0847 -0.14393,0.0804 -0.254,0.2286 -0.10583,0.14394 -0.16933,0.3429 -0.0635,0.19897 -0.0635,0.4318 0,0.28787 0.072,0.4953 0.0762,0.20744 0.19474,0.3429 0.11853,0.13124 0.2667,0.19897 0.1524,0.0635 0.3048,0.0635 0.18203,0 0.3048,-0.0381 0.12276,-0.0381 0.20743,-0.0847 0.0889,-0.0466 0.1524,-0.0847 0.0635,-0.0381 0.12277,-0.0381 0.072,0 0.1143,0.0423 0.0423,0.0381 0.0423,0.1397 0,0.0847 -0.0677,0.17357 -0.0635,0.0847 -0.1905,0.15663 -0.12277,0.0677 -0.29634,0.1143 -0.17356,0.0423 -0.38946,0.0423 -0.23707,0 -0.47414,-0.0931 -0.23283,-0.0931 -0.4191,-0.27517 -0.18203,-0.18626 -0.29633,-0.46143 -0.1143,-0.2794 -0.1143,-0.6477 0,-0.3683 0.1016,-0.65617 0.10583,-0.28786 0.28363,-0.48683 0.18204,-0.2032 0.4191,-0.30903 0.2413,-0.10584 0.51224,-0.10584 z"
               id="path21106"
               style="fill:#4a280d;stroke:#4a280d;stroke-width:0.1;stroke-miterlimit:4;stroke-dasharray:none" />
            <path
               d="m -115.46843,-537.43345 q -0.0677,0 -0.11007,-0.0212 -0.0381,-0.0254 -0.0593,-0.0635 -0.0212,-0.0381 -0.0296,-0.0889 -0.008,-0.055 -0.0127,-0.1143 -0.10583,0.13123 -0.27517,0.22013 -0.1651,0.0889 -0.42333,0.0889 -0.1651,0 -0.33867,-0.0466 -0.16933,-0.0508 -0.30903,-0.16933 -0.1397,-0.12276 -0.2286,-0.32596 -0.0889,-0.2032 -0.0889,-0.51224 0,-0.2413 0.0593,-0.45296 0.0593,-0.21167 0.1778,-0.3683 0.12276,-0.16087 0.3048,-0.254 0.18203,-0.0931 0.42756,-0.0931 0.2159,0 0.38524,0.0804 0.16933,0.0762 0.3048,0.254 0,-0.0508 0.004,-0.1016 0.004,-0.055 0.0212,-0.0974 0.0212,-0.0466 0.0635,-0.072 0.0423,-0.0296 0.1143,-0.0296 0.0635,0 0.11853,0.0508 0.055,0.0508 0.0635,0.22013 0.0127,0.22437 0.0169,0.40217 0.008,0.1778 0.008,0.3683 0,0.23283 -0.004,0.42757 -0.004,0.19473 -0.0212,0.41486 -0.008,0.0974 -0.0254,0.15664 -0.0127,0.055 -0.0339,0.0847 -0.0212,0.0254 -0.0508,0.0339 -0.0296,0.008 -0.0593,0.008 z m -0.2286,-1.07526 q 0,-0.22013 -0.0677,-0.35983 -0.0635,-0.1397 -0.1651,-0.2159 -0.0974,-0.0804 -0.21166,-0.11007 -0.1143,-0.0296 -0.21167,-0.0296 -0.1524,0 -0.26247,0.055 -0.10583,0.055 -0.17356,0.1524 -0.0677,0.0931 -0.1016,0.22437 -0.0296,0.127 -0.0296,0.2794 0,0.37253 0.16087,0.55033 0.1651,0.1778 0.4445,0.1778 0.1651,0 0.2794,-0.055 0.11853,-0.0593 0.1905,-0.15664 0.0762,-0.0974 0.11007,-0.2286 0.0381,-0.13546 0.0381,-0.28363 z"
               id="path21108"
               style="fill:#4a280d;stroke:#4a280d;stroke-width:0.1;stroke-miterlimit:4;stroke-dasharray:none" />
            <path
               d="m -114.31697,-536.84078 q 0,0.0804 -0.004,0.1524 -0.004,0.0762 -0.0296,0.13547 -0.0212,0.0593 -0.0677,0.0931 -0.0423,0.0381 -0.12276,0.0381 -0.0931,0 -0.15664,-0.0677 -0.0593,-0.0635 -0.0677,-0.2286 -0.004,-0.10584 -0.0127,-0.25824 -0.008,-0.1524 -0.0169,-0.32173 -0.004,-0.16933 -0.0127,-0.33866 -0.004,-0.16934 -0.004,-0.31327 0,-0.4953 0.0677,-0.81703 0.072,-0.32174 0.21166,-0.51224 0.1397,-0.1905 0.3429,-0.2667 0.20743,-0.0762 0.47837,-0.0762 0.2159,0 0.4064,0.0677 0.1905,0.0635 0.3302,0.2032 0.14393,0.13546 0.2286,0.3556 0.0847,0.2159 0.0847,0.5207 0,0.254 -0.0889,0.44873 -0.0847,0.19473 -0.23706,0.3302 -0.1524,0.13123 -0.35984,0.2032 -0.2032,0.0677 -0.43603,0.0677 -0.19897,0 -0.35983,-0.0804 -0.15664,-0.0847 -0.22437,-0.18203 0.0212,0.23706 0.0339,0.44026 0.0169,0.2032 0.0169,0.4064 z m 0.5842,-2.35796 q -0.14817,0 -0.25823,0.0508 -0.10584,0.0508 -0.17357,0.1397 -0.0677,0.0889 -0.1016,0.21166 -0.0296,0.12277 -0.0296,0.2667 0,0.1397 0.0254,0.2667 0.0296,0.12277 0.0931,0.2159 0.0635,0.0931 0.16933,0.14817 0.10584,0.055 0.25824,0.055 0.11853,0 0.2286,-0.0296 0.11006,-0.0339 0.19473,-0.11007 0.0889,-0.0762 0.1397,-0.2032 0.055,-0.127 0.055,-0.3175 0,-0.19473 -0.055,-0.32596 -0.0508,-0.13547 -0.1397,-0.2159 -0.0847,-0.0847 -0.19473,-0.11854 -0.10584,-0.0339 -0.21167,-0.0339 z"
               id="path21110"
               style="fill:#4a280d;stroke:#4a280d;stroke-width:0.1;stroke-miterlimit:4;stroke-dasharray:none" />
            <path
               d="m -111.81085,-536.67568 q -0.055,0.0974 -0.10583,0.14393 -0.0466,0.0466 -0.11007,0.0466 -0.0593,0 -0.11853,-0.0381 -0.0593,-0.0381 -0.0593,-0.10583 0,-0.0635 0.0423,-0.18204 0.0466,-0.11853 0.11006,-0.25823 0.0677,-0.1397 0.1397,-0.28787 0.072,-0.14816 0.13124,-0.27093 l 0.0296,-0.0635 q -0.127,-0.24976 -0.26247,-0.5334 -0.13123,-0.28363 -0.2413,-0.53763 -0.11006,-0.254 -0.18203,-0.44027 -0.0677,-0.1905 -0.0677,-0.24976 0,-0.055 0.0423,-0.0931 0.0466,-0.0423 0.1143,-0.0423 0.0593,0 0.1143,0.0254 0.055,0.0212 0.1016,0.1016 0.0677,0.127 0.1397,0.2921 0.0762,0.16087 0.14817,0.33867 0.0762,0.1778 0.1524,0.35983 0.0804,0.18203 0.16086,0.35137 0.0931,-0.17357 0.19897,-0.36407 0.10583,-0.1905 0.2032,-0.3683 0.1016,-0.1778 0.18627,-0.32597 0.0847,-0.1524 0.14393,-0.254 0.0593,-0.0974 0.11853,-0.1397 0.0593,-0.0423 0.12277,-0.0423 0.0423,0 0.0847,0.0381 0.0423,0.0339 0.0423,0.0931 0,0.0889 -0.0804,0.28787 -0.0762,0.19473 -0.19897,0.45297 -0.12277,0.25823 -0.2794,0.55456 -0.1524,0.2921 -0.3048,0.57574 -0.1524,0.27939 -0.2921,0.52493 -0.13547,0.24553 -0.22437,0.41063 z"
               id="path21112"
               style="fill:#4a280d;stroke:#4a280d;stroke-width:0.1;stroke-miterlimit:4;stroke-dasharray:none" />
            <path
               d="m -109.64762,-540.21898 q 0,0.254 -0.0169,0.5334 -0.0127,0.27517 -0.0339,0.53764 0.055,-0.1143 0.14394,-0.19474 0.0889,-0.0847 0.19473,-0.13546 0.11007,-0.0508 0.2286,-0.0762 0.11853,-0.0254 0.2286,-0.0254 0.1905,0 0.3556,0.072 0.16933,0.0677 0.2921,0.2032 0.127,0.13124 0.19473,0.3302 0.072,0.19474 0.072,0.44874 0,0.24553 -0.072,0.44873 -0.072,0.2032 -0.2159,0.35137 -0.1397,0.14393 -0.35136,0.22436 -0.20744,0.0804 -0.47837,0.0804 -0.3683,0 -0.57997,-0.14816 -0.20743,-0.14817 -0.30903,-0.3937 -0.1016,-0.24977 -0.127,-0.5715 -0.0212,-0.32173 -0.0212,-0.6731 0,-0.3556 0.0127,-0.64347 0.0127,-0.28786 0.0381,-0.46566 0.0254,-0.16087 0.0847,-0.2286 0.0593,-0.0677 0.15663,-0.0677 0.072,0 0.1143,0.0339 0.0423,0.0296 0.0593,0.0847 0.0212,0.055 0.0254,0.127 0.004,0.0677 0.004,0.14816 z m 0.62654,1.05834 q -0.12277,0 -0.23707,0.0423 -0.11007,0.0381 -0.19897,0.12277 -0.0847,0.0847 -0.13546,0.2159 -0.0508,0.127 -0.0508,0.30903 0,0.32173 0.15663,0.49107 0.16087,0.1651 0.42757,0.1651 0.11006,0 0.22436,-0.0296 0.1143,-0.0339 0.20744,-0.11006 0.0931,-0.0804 0.1524,-0.21167 0.0593,-0.13123 0.0593,-0.32597 0,-0.17356 -0.0508,-0.30056 -0.0466,-0.127 -0.13123,-0.20744 -0.0847,-0.0847 -0.19473,-0.12276 -0.11007,-0.0381 -0.2286,-0.0381 z"
               id="path21114"
               style="fill:#4a280d;stroke:#4a280d;stroke-width:0.1;stroke-miterlimit:4;stroke-dasharray:none" />
            <path
               d="m -105.87572,-537.43345 q -0.0677,0 -0.11007,-0.0212 -0.0381,-0.0254 -0.0593,-0.0635 -0.0212,-0.0381 -0.0296,-0.0889 -0.008,-0.055 -0.0127,-0.1143 -0.10583,0.13123 -0.27516,0.22013 -0.1651,0.0889 -0.42334,0.0889 -0.1651,0 -0.33866,-0.0466 -0.16934,-0.0508 -0.30904,-0.16933 -0.1397,-0.12276 -0.2286,-0.32596 -0.0889,-0.2032 -0.0889,-0.51224 0,-0.2413 0.0593,-0.45296 0.0593,-0.21167 0.1778,-0.3683 0.12277,-0.16087 0.3048,-0.254 0.18203,-0.0931 0.42757,-0.0931 0.2159,0 0.38523,0.0804 0.16933,0.0762 0.3048,0.254 0,-0.0508 0.004,-0.1016 0.004,-0.055 0.0212,-0.0974 0.0212,-0.0466 0.0635,-0.072 0.0423,-0.0296 0.1143,-0.0296 0.0635,0 0.11853,0.0508 0.055,0.0508 0.0635,0.22013 0.0127,0.22437 0.0169,0.40217 0.008,0.1778 0.008,0.3683 0,0.23283 -0.004,0.42757 -0.004,0.19473 -0.0212,0.41486 -0.008,0.0974 -0.0254,0.15664 -0.0127,0.055 -0.0339,0.0847 -0.0212,0.0254 -0.0508,0.0339 -0.0296,0.008 -0.0593,0.008 z m -0.2286,-1.07526 q 0,-0.22013 -0.0677,-0.35983 -0.0635,-0.1397 -0.16509,-0.2159 -0.0974,-0.0804 -0.21167,-0.11007 -0.1143,-0.0296 -0.21167,-0.0296 -0.1524,0 -0.26246,0.055 -0.10584,0.055 -0.17357,0.1524 -0.0677,0.0931 -0.1016,0.22437 -0.0296,0.127 -0.0296,0.2794 0,0.37253 0.16086,0.55033 0.1651,0.1778 0.4445,0.1778 0.1651,0 0.2794,-0.055 0.11854,-0.0593 0.1905,-0.15664 0.0762,-0.0974 0.11007,-0.2286 0.0381,-0.13546 0.0381,-0.28363 z"
               id="path21116"
               style="fill:#4a280d;fill-opacity:1;stroke:#4a280d;stroke-width:0.1;stroke-miterlimit:4;stroke-dasharray:none" />
            <path
               d="m -104.21202,-538.49178 q -0.0593,0.004 -0.12277,0.008 -0.0593,0 -0.12277,0 -0.072,0 -0.14393,0 -0.072,0 -0.16087,-0.008 v 0.85937 q 0,0.13546 -0.0677,0.16933 -0.0635,0.0296 -0.16087,0.0296 -0.0508,0 -0.0804,-0.008 -0.0296,-0.004 -0.0508,-0.0212 -0.0169,-0.0212 -0.0296,-0.0593 -0.008,-0.0381 -0.0127,-0.10583 -0.008,-0.0762 -0.0127,-0.22013 -0.004,-0.14817 -0.008,-0.381 0,-0.23283 -0.004,-0.56303 0,-0.33444 0,-0.78317 0,-0.17357 0.0423,-0.33443 0.0423,-0.1651 0.1524,-0.28787 0.11007,-0.127 0.29633,-0.2032 0.1905,-0.0762 0.4826,-0.0762 0.20744,0 0.40217,0.0466 0.19897,0.0466 0.35137,0.16086 0.1524,0.1143 0.24553,0.30904 0.0931,0.19473 0.0931,0.48683 0,0.38947 -0.16933,0.60537 -0.1651,0.21166 -0.4572,0.30056 l 0.56727,0.77894 q 0.0762,0.1016 0.0762,0.20743 0,0.0847 -0.0593,0.13123 -0.055,0.0508 -0.1397,0.0508 -0.0931,0 -0.16087,-0.0508 -0.0677,-0.055 -0.127,-0.1397 z m 0.66463,-0.98636 q 0,-0.2921 -0.1778,-0.4318 -0.17357,-0.14394 -0.55457,-0.14394 -0.1397,0 -0.23283,0.0254 -0.0931,0.0212 -0.14817,0.0847 -0.055,0.0635 -0.0804,0.1778 -0.0212,0.11007 -0.0212,0.28363 0,0.12277 0,0.28787 0,0.1651 0.004,0.30057 0.0974,0.004 0.2159,0.004 0.12276,0 0.2286,0 0.11853,0 0.24976,-0.0127 0.13547,-0.0169 0.24977,-0.0762 0.1143,-0.0635 0.1905,-0.1778 0.0762,-0.11853 0.0762,-0.32173 z"
               id="path21118"
               style="fill:#ffffff;stroke:#ffffff;stroke-width:0.1;stroke-miterlimit:4;stroke-dasharray:none" />
            <path
               d="m -101.00739,-537.43345 q -0.0677,0 -0.11007,-0.0212 -0.0381,-0.0254 -0.0593,-0.0635 -0.0212,-0.0381 -0.0296,-0.0889 -0.008,-0.055 -0.0127,-0.1143 -0.10583,0.13123 -0.27517,0.22013 -0.1651,0.0889 -0.42333,0.0889 -0.1651,0 -0.33867,-0.0466 -0.16933,-0.0508 -0.30903,-0.16933 -0.1397,-0.12276 -0.2286,-0.32596 -0.0889,-0.2032 -0.0889,-0.51224 0,-0.2413 0.0593,-0.45296 0.0593,-0.21167 0.1778,-0.3683 0.12276,-0.16087 0.3048,-0.254 0.18203,-0.0931 0.42756,-0.0931 0.2159,0 0.38524,0.0804 0.16933,0.0762 0.3048,0.254 0,-0.0508 0.004,-0.1016 0.004,-0.055 0.0212,-0.0974 0.0212,-0.0466 0.0635,-0.072 0.0423,-0.0296 0.1143,-0.0296 0.0635,0 0.11853,0.0508 0.055,0.0508 0.0635,0.22013 0.0127,0.22437 0.0169,0.40217 0.008,0.1778 0.008,0.3683 0,0.23283 -0.004,0.42757 -0.004,0.19473 -0.0212,0.41486 -0.008,0.0974 -0.0254,0.15664 -0.0127,0.055 -0.0339,0.0847 -0.0212,0.0254 -0.0508,0.0339 -0.0296,0.008 -0.0593,0.008 z m -0.2286,-1.07526 q 0,-0.22013 -0.0677,-0.35983 -0.0635,-0.1397 -0.1651,-0.2159 -0.0974,-0.0804 -0.21166,-0.11007 -0.1143,-0.0296 -0.21167,-0.0296 -0.1524,0 -0.26247,0.055 -0.10583,0.055 -0.17356,0.1524 -0.0677,0.0931 -0.1016,0.22437 -0.0296,0.127 -0.0296,0.2794 0,0.37253 0.16087,0.55033 0.1651,0.1778 0.4445,0.1778 0.1651,0 0.2794,-0.055 0.11853,-0.0593 0.1905,-0.15664 0.0762,-0.0974 0.11007,-0.2286 0.0381,-0.13546 0.0381,-0.28363 z"
               id="path21120"
               style="fill:#4a280d;stroke:#4a280d;stroke-width:0.1;stroke-miterlimit:4;stroke-dasharray:none" />
          </g>
        </g>
      </g>
    </g>
    <text
       xml:space="preserve"
       style="font-size:4.23333px;font-family:sans-serif;-inkscape-font-specification:sans-serif;fill:#fdf0e3;fill-opacity:1;stroke:#4a280d;stroke-width:15;stroke-linecap:round;stroke-linejoin:round;stroke-miterlimit:4;stroke-dasharray:none"
       x="-105.7908"
       y="-558.50726"
       id="text265343"><tspan
         sodipodi:role="line"
         id="tspan265341"
         style="stroke-width:15;stroke-miterlimit:4;stroke-dasharray:none"
         x="-105.7908"
         y="-558.50726" /></text>
    <text
       xml:space="preserve"
       style="font-size:4.23333px;font-family:sans-serif;-inkscape-font-specification:sans-serif;fill:#fdf0e3;fill-opacity:1;stroke:#4a280d;stroke-width:15;stroke-linecap:round;stroke-linejoin:round;stroke-miterlimit:4;stroke-dasharray:none"
       x="-106.25206"
       y="-560.1264"
       id="text268683"><tspan
         sodipodi:role="line"
         id="tspan268681"
         style="stroke-width:15"
         x="-106.25206"
         y="-560.1264" /></text>
    <text
       xml:space="preserve"
       style="font-size:4.23333px;font-family:sans-serif;-inkscape-font-specification:sans-serif;fill:#fdf0e3;fill-opacity:1;stroke:#4a280d;stroke-width:5;stroke-linecap:round;stroke-linejoin:round;stroke-miterlimit:4;stroke-dasharray:none"
       x="-78.450752"
       y="-551.28766"
       id="text270271"><tspan
         sodipodi:role="line"
         id="tspan270269"
         style="stroke-width:5;stroke-miterlimit:4;stroke-dasharray:none"
         x="-78.450752"
         y="-551.28766" /></text>
    <text
       xml:space="preserve"
       style="font-size:4.23333px;font-family:sans-serif;-inkscape-font-specification:sans-serif;fill:#fdf0e3;fill-opacity:1;stroke:#4a280d;stroke-width:4.99999;stroke-linecap:round;stroke-linejoin:round;stroke-miterlimit:4;stroke-dasharray:none"
       x="-75.665482"
       y="-548.79803"
       id="text275393"><tspan
         sodipodi:role="line"
         id="tspan275391"
         style="stroke-width:5"
         x="-75.665482"
         y="-548.79803" /></text>
  </g>
  <style
     type="text/css"
     id="style10296">
	.st0{fill:#75AADB;}
	.st1{fill:#4D4D4D;}
	.st2{fill:#FFFFFF;}
	.st3{fill:url(#SVGID_1_);}
	.st4{fill:url(#SVGID_2_);}
	.st5{fill:url(#SVGID_3_);}
	.st6{fill:url(#SVGID_4_);}
	.st7{fill:url(#SVGID_5_);}
	.st8{fill:url(#SVGID_6_);}
	.st9{fill:url(#SVGID_7_);}
	.st10{fill:url(#SVGID_8_);}
	.st11{fill:url(#SVGID_9_);}
	.st12{fill:url(#SVGID_10_);}
	.st13{opacity:0.18;fill:url(#SVGID_11_);}
	.st14{opacity:0.3;}
</style>
</svg>
